<svg width="32" height="32" viewBox="0 0 32 32" fill="none" xmlns="http://www.w3.org/2000/svg">
<g id="mdi:instagram">
<path id="Vector" d="M10.4001 2.66663H21.6001C25.8667 2.66663 29.3334 6.13329 29.3334 10.4V21.6C29.3334 23.651 28.5187 25.618 27.0684 27.0683C25.6181 28.5185 23.6511 29.3333 21.6001 29.3333H10.4001C6.13341 29.3333 2.66675 25.8666 2.66675 21.6V10.4C2.66675 8.34895 3.48151 6.38195 4.93179 4.93167C6.38207 3.48139 8.34907 2.66663 10.4001 2.66663ZM10.1334 5.33329C8.86037 5.33329 7.63948 5.83901 6.7393 6.73918C5.83913 7.63935 5.33341 8.86025 5.33341 10.1333V21.8666C5.33341 24.52 7.48008 26.6666 10.1334 26.6666H21.8667C23.1398 26.6666 24.3607 26.1609 25.2609 25.2607C26.161 24.3606 26.6667 23.1397 26.6667 21.8666V10.1333C26.6667 7.47996 24.5201 5.33329 21.8667 5.33329H10.1334ZM23.0001 7.33329C23.4421 7.33329 23.866 7.50889 24.1786 7.82145C24.4912 8.13401 24.6667 8.55793 24.6667 8.99996C24.6667 9.44199 24.4912 9.86591 24.1786 10.1785C23.866 10.491 23.4421 10.6666 23.0001 10.6666C22.5581 10.6666 22.1341 10.491 21.8216 10.1785C21.509 9.86591 21.3334 9.44199 21.3334 8.99996C21.3334 8.55793 21.509 8.13401 21.8216 7.82145C22.1341 7.50889 22.5581 7.33329 23.0001 7.33329ZM16.0001 9.33329C17.7682 9.33329 19.4639 10.0357 20.7141 11.2859C21.9644 12.5362 22.6667 14.2318 22.6667 16C22.6667 17.7681 21.9644 19.4638 20.7141 20.714C19.4639 21.9642 17.7682 22.6666 16.0001 22.6666C14.232 22.6666 12.5363 21.9642 11.286 20.714C10.0358 19.4638 9.33341 17.7681 9.33341 16C9.33341 14.2318 10.0358 12.5362 11.286 11.2859C12.5363 10.0357 14.232 9.33329 16.0001 9.33329ZM16.0001 12C14.9392 12 13.9218 12.4214 13.1717 13.1715C12.4215 13.9217 12.0001 14.9391 12.0001 16C12.0001 17.0608 12.4215 18.0782 13.1717 18.8284C13.9218 19.5785 14.9392 20 16.0001 20C17.0609 20 18.0784 19.5785 18.8285 18.8284C19.5787 18.0782 20.0001 17.0608 20.0001 16C20.0001 14.9391 19.5787 13.9217 18.8285 13.1715C18.0784 12.4214 17.0609 12 16.0001 12Z" fill="#B0B0B0"/>
</g>
</svg>
