<svg width="32" height="32" viewBox="0 0 32 32" fill="none" xmlns="http://www.w3.org/2000/svg">
<g id="mdi:twitter">
<path id="Vector" d="M29.9466 8.00004C28.9199 8.46671 27.8132 8.77337 26.6666 8.92004C27.8399 8.21337 28.7466 7.09337 29.1732 5.74671C28.0666 6.41337 26.8399 6.88004 25.5466 7.14671C24.4932 6.00004 23.0132 5.33337 21.3332 5.33337C18.1999 5.33337 15.6399 7.89337 15.6399 11.0534C15.6399 11.5067 15.6932 11.9467 15.7866 12.36C11.0399 12.12 6.81322 9.84004 3.99989 6.38671C3.50656 7.22671 3.22656 8.21337 3.22656 9.25337C3.22656 11.24 4.22656 13 5.77322 14C4.82656 14 3.94656 13.7334 3.17322 13.3334V13.3734C3.17322 16.1467 5.14656 18.4667 7.75989 18.9867C6.92086 19.2163 6.04002 19.2483 5.18656 19.08C5.5487 20.2167 6.25794 21.2113 7.21458 21.9239C8.17122 22.6366 9.32715 23.0316 10.5199 23.0534C8.49806 24.654 5.99188 25.5191 3.41322 25.5067C2.95989 25.5067 2.50656 25.48 2.05322 25.4267C4.58656 27.0534 7.59989 28 10.8266 28C21.3332 28 27.1066 19.28 27.1066 11.72C27.1066 11.4667 27.1066 11.2267 27.0932 10.9734C28.2132 10.1734 29.1732 9.16004 29.9466 8.00004Z" fill="#B0B0B0"/>
</g>
</svg>
