<svg width="64" height="64" viewBox="0 0 64 64" fill="none" xmlns="http://www.w3.org/2000/svg">
<g id="Gift">
<path id="Vector" d="M54 18.0001H45.23C45.3275 17.9176 45.4275 17.8376 45.5225 17.7501C46.2818 17.0755 46.8937 16.2515 47.32 15.3297C47.7463 14.4079 47.9778 13.408 48 12.3926C48.0328 11.2818 47.8383 10.176 47.4283 9.14304C47.0183 8.11013 46.4016 7.17191 45.6159 6.38599C44.8302 5.60006 43.8922 4.98301 42.8594 4.57272C41.8266 4.16243 40.7208 3.96756 39.61 4.00007C38.5942 4.02195 37.5938 4.25328 36.6715 4.67959C35.7492 5.10589 34.9248 5.71799 34.25 6.47757C33.3162 7.55981 32.5571 8.78118 32 10.0976C31.4429 8.78118 30.6838 7.55981 29.75 6.47757C29.0752 5.71799 28.2508 5.10589 27.3285 4.67959C26.4062 4.25328 25.4058 4.02195 24.39 4.00007C23.2792 3.96756 22.1734 4.16243 21.1406 4.57272C20.1078 4.98301 19.1698 5.60006 18.3841 6.38599C17.5984 7.17191 16.9817 8.11013 16.5717 9.14304C16.1617 10.176 15.9672 11.2818 16 12.3926C16.0222 13.408 16.2537 14.4079 16.68 15.3297C17.1063 16.2515 17.7182 17.0755 18.4775 17.7501C18.5725 17.8326 18.6725 17.9126 18.77 18.0001H10C8.93913 18.0001 7.92172 18.4215 7.17157 19.1716C6.42143 19.9218 6 20.9392 6 22.0001V30.0001C6 31.0609 6.42143 32.0784 7.17157 32.8285C7.92172 33.5786 8.93913 34.0001 10 34.0001V50.0001C10 51.0609 10.4214 52.0784 11.1716 52.8285C11.9217 53.5786 12.9391 54.0001 14 54.0001H50C51.0609 54.0001 52.0783 53.5786 52.8284 52.8285C53.5786 52.0784 54 51.0609 54 50.0001V34.0001C55.0609 34.0001 56.0783 33.5786 56.8284 32.8285C57.5786 32.0784 58 31.0609 58 30.0001V22.0001C58 20.9392 57.5786 19.9218 56.8284 19.1716C56.0783 18.4215 55.0609 18.0001 54 18.0001ZM37.25 9.12757C37.5667 8.77787 37.9522 8.49742 38.3824 8.30382C38.8127 8.11022 39.2783 8.00766 39.75 8.00257H39.8725C40.4254 8.00603 40.9721 8.11981 41.4805 8.33725C41.9889 8.55469 42.4487 8.87141 42.8331 9.26886C43.2175 9.66631 43.5188 10.1365 43.7191 10.6518C43.9195 11.1672 44.015 11.7173 44 12.2701C43.9949 12.7418 43.8923 13.2074 43.6987 13.6376C43.5052 14.0679 43.2247 14.4534 42.875 14.7701C40.5025 16.8701 36.565 17.6101 34.125 17.8701C34.425 15.2226 35.25 11.3751 37.25 9.12757ZM21.2275 9.21757C22.0024 8.4428 23.0518 8.00525 24.1475 8.00007H24.27C24.7417 8.00516 25.2073 8.10772 25.6376 8.30132C26.0678 8.49492 26.4533 8.77537 26.77 9.12507C28.8675 11.4951 29.6075 15.4251 29.8675 17.8551C27.4375 17.6051 23.5075 16.8551 21.1375 14.7576C20.7878 14.4409 20.5073 14.0554 20.3137 13.6251C20.1202 13.1949 20.0176 12.7293 20.0125 12.2576C19.997 11.6957 20.0958 11.1365 20.3029 10.6139C20.5101 10.0913 20.8212 9.61627 21.2175 9.21757H21.2275ZM10 22.0001H30V30.0001H10V22.0001ZM14 34.0001H30V50.0001H14V34.0001ZM50 50.0001H34V34.0001H50V50.0001ZM54 30.0001H34V22.0001H54V30.0001Z" fill="#674941"/>
</g>
</svg>
