<svg width="64" height="64" viewBox="0 0 64 64" fill="none" xmlns="http://www.w3.org/2000/svg">
<g id="Images">
<path id="Vector" d="M54 10H18C16.9391 10 15.9217 10.4214 15.1716 11.1716C14.4214 11.9217 14 12.9391 14 14V18H10C8.93913 18 7.92172 18.4214 7.17157 19.1716C6.42143 19.9217 6 20.9391 6 22V50C6 51.0609 6.42143 52.0783 7.17157 52.8284C7.92172 53.5786 8.93913 54 10 54H46C47.0609 54 48.0783 53.5786 48.8284 52.8284C49.5786 52.0783 50 51.0609 50 50V46H54C55.0609 46 56.0783 45.5786 56.8284 44.8284C57.5786 44.0783 58 43.0609 58 42V14C58 12.9391 57.5786 11.9217 56.8284 11.1716C56.0783 10.4214 55.0609 10 54 10ZM18 14H54V29.6875L51.4825 27.1725C51.1111 26.801 50.6701 26.5063 50.1847 26.3052C49.6993 26.1041 49.1791 26.0006 48.6538 26.0006C48.1284 26.0006 47.6082 26.1041 47.1228 26.3052C46.6374 26.5063 46.1964 26.801 45.825 27.1725L40.825 32.1725L29.825 21.1725C29.0749 20.4229 28.0579 20.0019 26.9975 20.0019C25.9371 20.0019 24.9201 20.4229 24.17 21.1725L18 27.3425V14ZM46 50H10V22H14V42C14 43.0609 14.4214 44.0783 15.1716 44.8284C15.9217 45.5786 16.9391 46 18 46H46V50ZM54 42H18V33L27 24L39.415 36.415C39.79 36.7898 40.2985 37.0003 40.8288 37.0003C41.359 37.0003 41.8675 36.7898 42.2425 36.415L48.6575 30L54 35.345V42ZM40 21C40 20.4067 40.1759 19.8266 40.5056 19.3333C40.8352 18.8399 41.3038 18.4554 41.852 18.2284C42.4001 18.0013 43.0033 17.9419 43.5853 18.0576C44.1672 18.1734 44.7018 18.4591 45.1213 18.8787C45.5409 19.2982 45.8266 19.8328 45.9424 20.4147C46.0581 20.9967 45.9987 21.5999 45.7716 22.1481C45.5446 22.6962 45.1601 23.1648 44.6667 23.4944C44.1734 23.8241 43.5933 24 43 24C42.2043 24 41.4413 23.6839 40.8787 23.1213C40.3161 22.5587 40 21.7956 40 21Z" fill="#674941"/>
</g>
</svg>
