<svg width="252" height="250" viewBox="0 0 252 250" fill="none" xmlns="http://www.w3.org/2000/svg">
<path fill-rule="evenodd" clip-rule="evenodd" d="M235.829 131.924C239.234 133.035 242.51 134.506 245.605 136.308C248.234 137.838 251.46 139.738 251.486 143.179C251.503 144.922 250.753 146.554 249.893 148.027C249.109 149.366 248.212 150.649 247.279 151.887C245.59 154.129 243.697 156.214 241.656 158.14C241.683 158.243 241.666 158.362 241.581 158.448C241.086 158.942 240.51 159.341 239.919 159.718C236.938 162.279 233.65 164.491 230.154 166.29C230.476 166.964 230.795 167.639 231.105 168.317C232.512 171.397 233.823 174.522 235.031 177.685C235.639 179.28 236.223 180.884 236.781 182.497C236.831 182.644 236.883 182.791 236.934 182.939C237.415 184.319 237.903 185.721 238.095 187.172C238.29 188.644 238.122 190.141 237.34 191.426C236.716 192.452 235.741 193.206 234.674 193.729C232.296 194.896 229.514 194.988 226.919 195.008C220.68 195.055 214.434 193.812 208.675 191.411C203.266 189.157 198.291 185.86 194.112 181.748C191.139 178.821 188.404 175.461 186.364 171.763C186.383 171.941 186.402 172.12 186.422 172.298C186.464 172.685 186.506 173.073 186.543 173.46C186.74 175.521 186.896 177.587 187.016 179.655L187.031 179.9C187.217 183.087 187.405 186.325 187.12 189.51C186.862 192.375 186.137 195.298 184.372 197.625C182.536 200.047 179.747 201.474 176.831 202.138C175.166 202.517 173.455 202.633 171.75 202.63C170.078 202.627 168.38 202.516 166.721 202.266C169.118 205.781 171.295 209.462 173.12 213.283C174.474 216.118 175.592 219.282 175.215 222.472C174.878 225.315 173.28 227.705 171.259 229.649C169.18 231.649 166.707 233.245 164.276 234.777C161.954 236.24 159.562 237.592 157.118 238.839C157.048 239.08 156.765 239.217 156.565 239.122C156.507 239.152 156.449 239.182 156.391 239.213C156.354 239.231 156.318 239.25 156.281 239.268C150.775 242.005 144.996 244.172 139.065 245.786C133.154 247.394 127.091 248.436 120.983 248.897C115.153 249.337 109.155 249.327 103.51 247.622C100.777 246.798 98.1627 245.536 95.8955 243.792C93.6312 242.05 91.7343 239.865 90.1658 237.485C88.5772 235.074 87.287 232.477 86.1709 229.818C84.9577 226.929 83.9607 223.94 83.281 220.879C82.3691 216.773 81.9967 212.257 82.8145 208.037C82.4356 208.518 82.4158 207.984 81.9861 208.397C81.8097 208.566 81.6448 208.236 81.4861 208.397C81.2736 208.612 80.2128 208.785 80.0001 209L77.5001 210.5C77.5163 210.457 77.0804 210.905 77.0969 210.862C73.0719 213.664 68.7557 216.044 64.2252 217.922C57.4305 220.737 50.1783 222.471 42.8451 223.025C39.1945 223.301 35.5048 223.308 31.8582 222.968C28.2877 222.636 24.7052 221.918 21.4069 220.476C20.521 220.088 19.6742 219.642 18.8584 219.155C18.814 219.154 18.7695 219.153 18.7251 219.152C18.5474 219.149 18.3697 219.145 18.1927 219.136C18.0246 219.127 18.0366 218.878 18.1897 218.851C18.2122 218.847 18.2347 218.843 18.2571 218.84C18.2797 218.837 18.3023 218.834 18.3249 218.83C13.8334 215.987 10.412 211.717 7.86954 207.028C4.41913 200.664 2.27902 193.495 1.06682 186.381C0.415177 182.552 0.0608252 178.673 0.00777286 174.79C-0.0382726 171.356 0.102868 167.885 0.96572 164.545C1.82056 161.238 3.41614 158.262 5.90259 155.899C8.40607 153.518 11.5191 151.794 14.6172 150.317C20.9274 147.31 27.8383 145.516 34.8101 145.038C41.3346 144.591 47.878 145.285 54.1382 147.157C53.8459 146.823 53.5456 146.497 53.2323 146.182C51.4754 144.414 49.3451 143.092 47.2346 141.781C46.844 141.539 46.454 141.297 46.0673 141.052C43.5778 139.48 41.2105 137.729 38.9843 135.801C36.8922 133.989 34.9343 132.021 33.0984 129.944C33.0044 129.907 32.9213 129.836 32.8722 129.714C32.8683 129.702 32.8633 129.69 32.8584 129.678C32.8454 129.663 32.8322 129.65 32.8202 129.636C32.7711 129.6 32.7301 129.553 32.6991 129.496C32.588 129.369 32.48 129.239 32.3721 129.11C32.2982 129.021 32.2244 128.932 32.1495 128.844C28.3167 126.626 24.535 124.287 21.1416 121.429C17.7473 118.572 14.8254 115.218 12.8264 111.234C10.7424 107.081 9.6553 102.501 8.92959 97.9344C8.14281 92.9819 7.6313 87.9644 7.17085 82.9729C6.9226 80.2757 6.73041 77.5726 6.65934 74.8644C6.58927 72.2124 6.53622 69.4461 6.99968 66.8271C7.05373 66.5226 7.57024 66.4785 7.57525 66.8201C7.57636 66.8708 7.57593 66.9211 7.57549 66.9715C7.57515 67.0118 7.5748 67.0521 7.57525 67.0927C7.67935 66.9674 7.9366 66.9955 7.99466 67.2029C8.02994 67.3294 8.0644 67.4563 8.09883 67.5831C8.11813 67.6541 8.13741 67.7251 8.15682 67.796C9.89254 69.2157 11.5532 70.7336 13.1788 72.2755C15.0066 74.0098 16.7914 75.7902 18.49 77.6518C21.511 80.9611 24.2657 84.5238 26.4869 88.4243C28.7752 92.4409 30.4138 96.7812 31.4899 101.273C32.5809 105.827 33.1305 110.497 33.4148 115.167C33.5569 117.5 33.636 119.837 33.673 122.174C33.691 123.343 33.702 124.511 33.7071 125.68C33.708 125.905 33.7105 126.13 33.7129 126.355C33.7204 127.043 33.728 127.733 33.694 128.418C33.7523 128.451 33.8108 128.485 33.8693 128.518C33.9284 128.552 33.9875 128.586 34.0464 128.619C34.3147 128.772 34.4928 129.056 34.3587 129.371C34.3136 129.479 34.2176 129.571 34.1084 129.639C36.4077 132.213 38.8912 134.618 41.5808 136.788C43.6446 138.454 45.8453 139.893 48.0579 141.34C48.3115 141.506 48.5652 141.672 48.819 141.838C51.1092 143.34 53.3705 144.996 54.8179 147.363C54.913 147.393 55.0084 147.421 55.1039 147.449C55.2264 147.484 55.349 147.52 55.4705 147.56C55.95 147.717 55.6467 148.419 55.1742 148.279C53.5576 147.797 51.92 147.389 50.2654 147.06C43.5658 145.728 36.653 145.58 29.9093 146.671C23.2327 147.752 16.6302 150.026 10.8375 153.549C7.98465 155.285 5.33604 157.46 3.70442 160.427C3.24397 161.264 2.87061 162.136 2.55429 163.028C6.13583 160.908 9.8585 159.036 13.7093 157.457C21.1617 154.401 29.0434 152.384 37.0443 151.469C41.0403 151.012 45.0673 150.838 49.0882 150.941C51.0792 150.992 53.0722 151.102 55.0531 151.308C56.4675 151.455 57.8839 151.625 59.2863 151.869C59.7528 151.824 60.2202 151.788 60.6867 151.758C60.2663 151.519 59.8499 151.274 59.4605 150.994C54.4796 147.421 51.0292 142.206 48.1833 136.865C46.6699 134.025 45.2775 131.115 43.9291 128.193C42.4227 124.926 41.0403 121.569 40.2825 118.041C40.2595 117.935 40.2402 117.829 40.2208 117.723C40.2099 117.663 40.199 117.603 40.1875 117.544C40.1574 117.5 40.1258 117.457 40.0942 117.414C40.0574 117.364 40.0207 117.314 39.9863 117.262C39.9212 117.165 40.0083 117.058 40.0964 117.064C39.5899 114.183 39.5678 111.233 40.1814 108.362C40.8031 105.45 41.9902 102.7 43.5788 100.189C46.9361 94.8796 52.0322 90.928 57.8219 88.5856C60.9279 87.3292 64.2062 86.5076 67.5214 86.0447C69.1701 85.8143 70.8297 85.673 72.4923 85.6109C73.7556 85.5638 75.0269 85.5508 76.2911 85.6199C76.0278 84.8024 75.7766 83.9808 75.5544 83.1502C73.7476 76.4054 72.6645 69.4862 72.3052 62.5209C72.2371 62.0551 72.154 61.5922 72.0439 61.1343C71.8969 60.5262 71.6979 59.935 71.499 59.3444C71.442 59.175 71.385 59.0056 71.3292 58.836C71.3162 59.2317 70.7366 59.4341 70.5524 58.9993C70.3693 58.5674 70.152 58.1637 69.9128 57.7779C69.7757 57.7238 69.6365 57.6717 69.4904 57.6326C67.9463 57.2168 66.2962 57.4551 64.7278 57.6817C64.5656 57.7052 64.4044 57.7284 64.2442 57.7509C61.8248 58.0905 59.3914 58.335 56.953 58.4853C56.4641 58.5154 55.9753 58.5326 55.4861 58.5499C55.2911 58.5568 55.0961 58.5637 54.901 58.5714C54.8238 58.5888 54.7469 58.6065 54.6699 58.6243C54.5163 58.6597 54.3627 58.695 54.2073 58.7277C50.3525 59.5373 46.4747 60.2356 42.5828 60.8388L42.3158 60.8802C38.6955 61.4419 35.0425 62.0088 31.3848 62.2434C27.9353 62.4649 24.3348 62.2805 21.1747 60.7426C18.5281 59.4541 16.416 57.276 15.0296 54.6941C13.6342 52.0951 13.0206 49.0834 13.3209 46.1468C13.6292 43.1391 14.8454 40.2486 16.6602 37.843C18.8714 34.9104 21.8974 32.8525 25.2617 31.6862C24.1566 30.5551 23.7582 28.7066 23.7532 27.1957C23.7462 25.1909 24.4729 23.2692 25.4799 21.562C29.0575 15.4964 35.5299 11.9737 41.6249 8.93094L41.6784 8.90425C45.0781 7.20725 48.5948 5.45191 52.4145 4.99244C55.6657 4.6017 59.1662 5.22488 61.7467 7.3389C62.043 6.62755 62.3754 5.93223 62.7838 5.27297C64.7317 2.12999 68.101 0.479857 71.6996 0.100134C75.2961 -0.279589 79.0038 0.44679 82.3241 1.83343C85.6093 3.20604 88.5862 5.27197 90.9055 7.97812L90.9891 7.91772C91.2274 7.74539 91.4656 7.5731 91.7103 7.40804C93.1357 6.4442 94.7854 5.60861 96.5451 5.62064C98.3589 5.63266 99.7212 6.84497 100.25 8.53419C100.805 10.3116 100.809 12.3144 100.654 14.1539C100.491 16.0916 100.05 18.0032 99.4179 19.8407C96.8668 27.2642 91.3371 32.936 85.9695 38.4417C85.6887 38.7298 85.4083 39.0174 85.1288 39.3048C81.8015 42.7253 78.4743 46.3121 75.8937 50.3418C75.2441 51.54 74.6245 52.7574 74.0729 54.0148C74.0199 54.137 73.8867 54.124 73.8137 54.0538C73.5974 54.5037 73.3892 54.9576 73.196 55.4184C73.1921 55.5684 73.1879 55.7184 73.1838 55.8684C73.1658 56.5167 73.1478 57.1647 73.147 57.814C73.143 62.6111 73.4863 67.4123 74.137 72.1643C74.7366 76.5436 75.6985 80.8408 76.7636 85.124C76.7866 85.0238 76.8086 84.9226 76.8336 84.8224C78.4482 78.328 81.204 72.1323 84.6083 66.3873C88.0387 60.5983 92.1728 55.2301 96.7773 50.3297C97.8574 49.1796 98.9715 48.0624 100.107 46.9684C101.066 45.7601 102.025 44.5507 102.964 43.3284C102.962 43.3199 102.958 43.3126 102.954 43.3054C102.948 43.2938 102.942 43.2823 102.942 43.2663C102.95 42.9293 102.978 42.5914 103.006 42.2534L103.009 42.2063C102.884 41.5389 102.849 40.8433 102.815 40.1693C102.81 40.0693 102.805 39.9697 102.799 39.8708C102.738 38.7257 102.735 37.5775 102.79 36.4323C102.902 34.0878 103.271 31.7604 103.863 29.4901C104.382 27.5053 105.075 25.5676 105.946 23.7101C106.389 22.7673 106.878 21.8475 107.407 20.9498C107.476 20.8319 107.546 20.7117 107.616 20.5903C108.043 19.8523 108.496 19.0702 109.103 18.4911C109.68 17.9401 110.525 17.7207 111.224 18.1876C111.856 18.6094 112.159 19.3939 112.309 20.1092C112.518 21.0991 112.492 22.1731 112.465 23.1801C112.436 24.2912 112.322 25.3993 112.132 26.4944C111.069 32.6491 107.91 38.1255 104.094 43.0549C104.092 43.084 104.092 43.1131 104.093 43.1421C104.093 43.1822 104.093 43.2222 104.09 43.2623C104.088 43.2873 104.08 43.3092 104.073 43.3309C104.071 43.3371 104.069 43.3433 104.067 43.3495C106.813 40.9679 109.678 38.7227 112.633 36.6086C116.624 33.7542 120.788 31.1442 125.058 28.7256C126.991 27.2959 128.885 25.8121 130.679 24.211C131.017 23.9085 131.352 23.6009 131.683 23.2893C131.653 23.2422 131.629 23.1861 131.62 23.118C131.474 22.0509 131.643 20.9498 131.815 19.8928C131.981 18.8678 132.216 17.8549 132.509 16.859C133.105 14.8231 133.976 12.8785 135.07 11.062C136.025 9.47598 137.161 8.00017 138.455 6.67665C138.531 6.59892 138.608 6.51967 138.685 6.43963C139.247 5.85837 139.848 5.23587 140.549 4.85719C141.301 4.45042 142.241 4.62675 142.519 5.51144C142.744 6.22636 142.518 7.06584 142.32 7.80077C142.288 7.91761 142.257 8.0318 142.229 8.14244C141.993 9.0682 141.711 9.97993 141.374 10.8736C140.691 12.6941 139.801 14.4344 138.772 16.0836C136.229 20.1603 132.856 23.5388 129.116 26.4934C129.927 26.0626 130.74 25.6387 131.557 25.221C134.847 23.5367 138.188 21.9507 141.564 20.4449C144.942 18.938 148.339 17.4782 151.858 16.33C152.293 16.1877 152.565 16.7899 152.142 16.9913C151.908 17.1027 151.675 17.2159 151.442 17.3291C150.862 17.611 150.281 17.893 149.689 18.1475C142.985 21.025 136.316 23.9576 129.864 27.372C125.659 29.5973 121.548 32.0028 117.569 34.6098C119.883 33.4626 122.266 32.4537 124.701 31.579C128.565 30.1914 132.568 29.1594 136.614 28.4691C138.636 28.1245 140.673 27.867 142.717 27.6997C143.751 27.6145 144.789 27.5454 145.826 27.5173C146.537 27.4983 147.38 27.5454 147.837 28.1796C148.319 28.8499 147.987 29.6323 147.443 30.1363C146.834 30.7031 146.012 30.976 145.23 31.2358C145.139 31.2658 145.05 31.2955 144.961 31.3256C143.028 31.9788 141.033 32.4698 139.018 32.7864C134.862 33.4386 130.585 33.3003 126.476 32.4066C126.183 32.3425 126.064 32.081 126.088 31.8476C121.994 33.1931 118.023 34.8984 114.197 36.8932C113.211 37.5835 112.229 38.2818 111.262 39.0002C105.75 43.091 100.592 47.6597 95.9545 52.7243C95.8742 52.8118 95.7955 52.901 95.7168 52.9902C95.6612 53.0533 95.6055 53.1165 95.5491 53.1792C97.1477 51.6643 98.8414 50.2466 100.666 49.0112C104.59 46.3542 109.178 44.4706 113.95 44.2512L113.998 44.249C115.624 44.1743 118.429 44.0454 119.157 45.9294C120.003 48.1165 117.166 49.2337 115.629 49.8168C113.024 50.8037 110.33 51.6238 107.632 52.445C101.824 54.2124 96.0011 55.9847 91.0256 59.4351C90.9656 59.4952 90.9065 59.5553 90.8465 59.6154C90.4411 60.0913 90.0307 60.5622 89.5902 61.0061C89.5242 61.0732 89.4531 61.1063 89.384 61.1133C89.2018 61.3024 89.0196 61.4906 88.8374 61.6788C88.7473 61.7718 88.6573 61.8648 88.5672 61.9579C86.9997 64.2062 85.5312 66.5236 84.1999 68.9191C81.3591 74.0289 79.1429 79.4181 77.4512 85.0007C78.1389 83.8766 78.9197 82.8176 79.8606 81.8928C81.0638 80.7106 82.5423 79.7538 84.1649 79.2698C85.9086 78.7499 87.6733 78.8531 89.4 79.3921C90.9172 79.8662 92.3475 80.6025 93.7629 81.3312C94.0257 81.4665 94.2879 81.6015 94.5501 81.7345C96.2198 82.5821 97.8764 83.4578 99.487 84.4146C104.495 87.3893 109.722 91.8969 111.046 97.7911C111.082 97.7052 111.119 97.6198 111.155 97.5342C111.177 97.484 111.198 97.4337 111.22 97.3833C111.219 97.1058 111.218 96.8273 111.231 96.5487C111.363 93.7284 112.368 90.9932 113.716 88.5385C115.156 85.9165 116.952 83.545 118.963 81.3378C121.01 79.0905 123.223 76.9915 125.472 74.9486C127.856 72.7835 130.306 70.6905 132.83 68.6887C134.046 67.7229 135.28 66.7801 136.532 65.8603C137.386 64.8895 138.181 63.8655 138.905 62.7925C138.559 62.2204 138.322 61.5701 138.118 60.942C137.848 60.1094 137.653 59.2507 137.549 58.3811C137.343 56.6578 137.474 54.9084 137.929 53.2353C138.279 51.9468 138.824 50.3939 140.049 49.6885C141.309 48.9622 142.762 49.6394 143.463 50.8077C144.328 52.2454 143.886 54.0007 143.414 55.4926C142.963 56.9223 142.399 58.3129 141.729 59.6535C141.178 60.7556 140.554 61.8307 139.87 62.8696C139.875 62.8827 139.881 62.8957 139.886 62.9097C139.99 63.2002 139.747 63.4457 139.502 63.4247C139.352 63.6411 139.197 63.8545 139.042 64.0669C142.159 61.8948 145.376 59.8699 148.702 58.0304C151.145 56.6798 153.649 55.4385 156.202 54.3073C156.474 54.1451 156.746 53.9834 157.019 53.8216C157.266 53.6746 157.514 53.5274 157.763 53.3796C158.065 53.1997 158.361 53.0122 158.658 52.8245C158.718 52.7864 158.778 52.7483 158.839 52.7103C158.686 50.1013 158.739 47.296 160.056 44.9796C161 43.3204 162.816 41.6141 164.878 41.8175C165.866 41.9147 166.623 42.6141 166.691 43.623C166.764 44.706 166.258 45.8622 165.777 46.807C164.742 48.8439 163.135 50.5472 161.329 51.9238C161.108 52.0918 160.879 52.2483 160.65 52.4047C160.57 52.459 160.49 52.5133 160.411 52.568C162.483 51.7745 164.583 51.0551 166.712 50.4309C169.848 49.5112 173.037 48.7598 176.267 48.2588C179.458 47.7639 182.749 47.4132 185.979 47.6366C186.262 47.6557 186.259 48.0945 185.985 48.1275C185.402 48.1986 184.819 48.2576 184.235 48.3167C184.028 48.3376 183.821 48.3586 183.614 48.38C182.899 48.4542 182.186 48.5363 181.473 48.6235C184.21 48.7678 186.968 49.2447 189.532 50.1664C190.838 50.6353 192.174 51.5671 192.227 53.093C192.279 54.5838 190.943 55.3162 189.644 55.5076C188.174 55.724 186.607 55.6569 185.133 55.5116C183.596 55.3603 182.073 55.0547 180.595 54.6069C177.636 53.7102 174.855 52.2083 172.475 50.2356C172.453 50.2172 172.439 50.197 172.426 50.1769C172.419 50.1673 172.412 50.1578 172.405 50.1484C171.302 50.3899 170.204 50.6514 169.111 50.9399C169.057 50.9569 169.003 50.9728 168.95 50.9887C168.886 51.0075 168.822 51.0264 168.758 51.0471C168.74 51.0523 168.724 51.053 168.707 51.0538L168.698 51.0541C167.392 51.4058 166.091 51.7855 164.799 52.2113C161.503 53.2984 158.281 54.5899 155.136 56.0507C156.219 55.7851 157.314 55.5687 158.421 55.4174C161.304 55.0227 164.358 54.9195 167.234 55.4245C168.578 55.6609 169.903 56.0827 171.035 56.8622C172.066 57.5715 173.077 58.7798 172.77 60.1214C172.483 61.3758 171.215 62.0741 170.006 62.1212C168.615 62.1753 167.165 61.6473 165.9 61.1153C163.392 60.0613 161.173 58.4031 159.423 56.3222C159.397 56.2903 159.383 56.2578 159.368 56.2252C159.365 56.2168 159.361 56.2084 159.357 56.1999C158.501 56.2911 157.647 56.4033 156.801 56.5616C155.448 56.8141 154.108 57.1397 152.797 57.5545C152.054 57.7889 151.321 58.0514 150.589 58.3149C149.491 58.8991 148.399 59.4962 147.323 60.1214C143.302 62.4548 139.446 65.0668 135.744 67.8792C134.459 69.1265 133.058 70.2487 131.555 71.2055C130.489 72.0862 129.431 72.9769 128.391 73.8876C130.08 72.9017 131.822 72.004 133.593 71.1884C137.199 69.5283 140.955 68.2098 144.805 67.2419C146.765 66.75 148.781 66.2721 150.794 66.0557C152.547 65.8673 154.638 66.215 155.497 67.9693C156.328 69.6646 155.163 71.5181 153.702 72.3827C152.095 73.3335 150.041 73.6632 148.204 73.7944C144.299 74.073 140.377 73.1211 137.037 71.0812C136.913 71.0051 136.854 70.9039 136.837 70.7987C135.181 71.456 133.552 72.1773 131.956 72.9688C129.62 74.1271 127.366 75.4305 125.151 76.8021C125.075 76.8717 124.998 76.9395 124.921 77.0082C124.896 77.0306 124.872 77.053 124.847 77.0757C122.676 79.0785 120.544 81.1284 118.615 83.3697C116.729 85.5618 114.98 87.9043 113.747 90.5313C113.032 92.0552 112.499 93.6602 112.178 95.3064C112.464 94.7333 112.763 94.1662 113.089 93.6121C114.112 91.8748 115.381 90.2538 116.967 88.9964C118.669 87.6488 120.701 86.8142 122.84 86.4826C126.999 85.8382 131.238 86.8493 135.3 87.8182C135.735 87.9219 136.167 88.0251 136.598 88.1257C141.409 89.2508 146.235 90.5072 150.727 92.6112C154.55 94.4027 158.127 96.8403 160.912 100.041C162.515 101.885 163.757 103.978 164.647 106.216C164.57 102.481 164.97 98.7449 165.943 95.125C167.19 90.4862 169.346 86.0588 172.366 82.3156C173.872 80.4491 175.597 78.7478 177.508 77.2961C179.599 75.7071 181.975 74.3615 184.582 73.8736C186.935 73.4327 189.356 73.8315 191.332 75.2181C192.783 76.2371 193.897 77.788 194.147 79.5384C195.806 78.5926 197.517 77.7369 199.283 77.0075C202.21 75.7992 205.293 74.8635 208.422 74.3475C211.333 73.8676 214.747 73.8075 217.201 75.7081C218.529 76.736 219.333 78.2369 219.866 79.8008C220.46 81.5482 220.86 83.3777 221.128 85.2021C221.621 88.5485 221.649 92.0191 220.989 95.3455C221.039 95.3314 221.088 95.3144 221.138 95.3004C223.791 94.5519 226.503 94.0149 229.242 93.7073C231.93 93.4048 234.939 93.1603 237.29 94.7663C239.313 96.148 240.305 98.5556 240.887 100.847C241.475 103.169 241.744 105.581 241.777 107.974C241.844 112.793 240.893 117.607 239.054 122.058C237.682 125.377 235.816 128.482 233.52 131.236C234.294 131.449 235.065 131.675 235.829 131.924ZM154.735 68.6276C154.728 68.6045 154.717 68.5835 154.709 68.5615C154.665 68.5905 154.616 68.6166 154.555 68.6316C149.326 69.9892 143.889 70.8157 138.473 70.7646C141.732 72.516 145.533 73.2223 149.199 72.7284C150.845 72.507 152.981 72.1543 154.13 70.8288C154.639 70.2407 154.973 69.402 154.735 68.6276ZM147.598 67.5736C145.786 67.9453 143.99 68.3951 142.219 68.9261C140.837 69.3409 139.473 69.8148 138.12 70.3218C143.59 70.0733 149.013 69.39 154.294 67.8882C153.99 67.5605 153.584 67.3191 153.168 67.1668C152.257 66.8342 151.244 66.9384 150.306 67.0796C149.399 67.2169 148.496 67.3892 147.598 67.5736ZM168.482 56.6728C167.321 56.3041 166.094 56.1649 164.883 56.0827C164.846 56.0802 164.81 56.0784 164.773 56.0767C164.722 56.0745 164.671 56.0726 164.619 56.0697C165.319 56.2099 166.011 56.3923 166.682 56.6137C167.745 56.9634 168.77 57.4192 169.743 57.9733C170.212 58.2398 170.669 58.5273 171.111 58.8379C171.186 58.8911 171.267 58.946 171.352 59.0028C171.514 59.1122 171.687 59.229 171.849 59.3549C171.794 59.0924 171.674 58.838 171.52 58.6145C170.826 57.6116 169.611 57.0325 168.482 56.6728ZM169.383 58.4853C168.471 57.9683 167.509 57.5375 166.517 57.1988C164.643 56.5586 162.69 56.3352 160.726 56.251C162.385 58.0575 164.438 59.4882 166.718 60.3969C167.865 60.8538 169.298 61.4239 170.542 61.1042C171.029 60.979 171.514 60.6724 171.749 60.2166C171.76 60.1965 171.765 60.1755 171.774 60.1555C171.56 60.0252 171.354 59.8524 171.153 59.6835C171.009 59.5626 170.868 59.4438 170.727 59.3439C170.294 59.0353 169.845 58.7478 169.383 58.4853ZM189.265 51.005C188.559 50.7445 187.826 50.5422 187.097 50.3588C183.02 49.3319 178.771 49.1565 174.619 49.7306C177.313 49.6575 180.001 49.962 182.639 50.5281C185.615 51.1663 188.581 52.1292 191.312 53.4888C191.43 53.0179 191.257 52.4929 190.97 52.1081C190.557 51.5511 189.898 51.2395 189.265 51.005ZM190.92 54.1089C188.2 52.8525 185.416 51.8246 182.482 51.1784C179.709 50.5672 176.87 50.2947 174.036 50.1945C176.261 51.8517 178.764 53.086 181.437 53.8605C182.793 54.2532 184.191 54.5127 185.596 54.644C186.937 54.7692 188.365 54.8454 189.697 54.6079C190.119 54.5328 190.586 54.3955 190.92 54.1089ZM165.865 44.0368C165.881 43.8584 165.865 43.7031 165.835 43.5599C165.791 43.6501 165.745 43.7395 165.7 43.8272C165.652 43.9205 165.605 44.0121 165.562 44.1009C165.344 44.5578 165.115 45.0096 164.873 45.4545C164.412 46.3021 163.911 47.1277 163.368 47.9262C162.411 49.3329 161.328 50.6504 160.121 51.8466C160.174 51.8101 160.226 51.7737 160.279 51.7374C160.475 51.6025 160.671 51.4677 160.86 51.3216C162.437 50.0973 163.863 48.6175 164.831 46.8571C165.298 46.0075 165.775 45.0146 165.865 44.0368ZM164.177 42.6722C162.36 42.9637 161.017 44.66 160.375 46.271C159.688 47.9953 159.668 49.8378 159.707 51.6663C160.866 50.4079 161.948 49.0824 162.888 47.6516C163.443 46.807 163.953 45.9324 164.413 45.0317C164.632 44.6028 164.843 44.169 165.038 43.7282C165.083 43.6249 165.125 43.516 165.167 43.4061C165.235 43.2251 165.305 43.0414 165.397 42.8755C165.086 42.6631 164.651 42.596 164.177 42.6722ZM142.444 55.6214C142.884 54.3303 143.433 52.722 142.792 51.4329C142.586 51.0201 142.235 50.6373 141.81 50.4329C141.653 54.0218 141.101 57.6928 139.944 61.1143C140.269 60.5662 140.583 60.0122 140.866 59.4411C141.452 58.2578 141.963 57.0345 142.388 55.7831C142.406 55.7298 142.425 55.6759 142.444 55.6214ZM138.499 54.7542C138.271 56.1428 138.286 57.5595 138.531 58.9442C138.654 59.6395 138.835 60.3238 139.078 60.988C139.119 61.1011 139.168 61.2111 139.217 61.321C139.236 61.3639 139.255 61.4068 139.273 61.4499C139.778 59.7326 140.242 58.0074 140.565 56.243C140.924 54.2723 141.133 52.2794 141.202 50.2776C140.676 50.2716 140.216 50.5963 139.889 51.006C139.071 52.028 138.706 53.4878 138.499 54.7542ZM145.343 28.3589C141.521 28.5152 137.715 28.9741 133.966 29.7425C132.375 30.0682 130.803 30.4619 129.243 30.9008C129.405 30.8967 129.566 30.8927 129.727 30.8867C130.047 30.8749 130.367 30.8643 130.686 30.8536C131.208 30.8363 131.729 30.8189 132.25 30.7966C133.932 30.7254 135.613 30.6232 137.291 30.49C138.998 30.3557 140.702 30.1874 142.401 29.985C143.238 29.8848 144.073 29.7796 144.907 29.6634C145.175 29.6261 145.446 29.5784 145.719 29.5306C146.178 29.45 146.641 29.3687 147.099 29.3348C147.171 29.2286 147.228 29.1164 147.246 28.9881C147.35 28.2346 146.089 28.3134 145.508 28.3497C145.444 28.3537 145.388 28.3571 145.343 28.3589ZM131.434 31.4058C130.152 31.4638 128.838 31.5233 127.57 31.3937C127.501 31.4147 127.432 31.4351 127.363 31.4555C127.255 31.4876 127.147 31.5197 127.039 31.554C131.191 32.4006 135.473 32.4788 139.655 31.7904C141.6 31.4708 143.508 30.9749 145.362 30.3056C145.418 30.2856 145.484 30.2625 145.55 30.2395C145.366 30.2585 145.182 30.2776 145.002 30.3006C144.166 30.4068 143.33 30.508 142.493 30.6002C140.792 30.7876 139.086 30.9469 137.379 31.0761C135.672 31.2064 133.962 31.3045 132.251 31.3706C131.981 31.3811 131.708 31.3934 131.434 31.4058ZM141.356 6.28293C141.417 6.03385 141.478 5.78343 141.556 5.54149C141.503 5.50542 141.44 5.49539 141.377 5.49239C139.569 7.87893 137.921 10.3937 136.516 13.0388C135.77 14.4424 135.092 15.8802 134.481 17.347C134.174 18.0804 133.885 18.8208 133.612 19.5672C133.541 19.7613 133.478 19.9684 133.414 20.1788C133.363 20.3475 133.311 20.5183 133.254 20.6863L133.317 20.6214C133.508 20.4228 133.7 20.2242 133.882 20.02C134.333 19.5151 134.77 18.9951 135.19 18.4631C136.741 16.4994 138.083 14.3703 139.178 12.12C139.721 11.0049 140.199 9.85871 140.614 8.68948C140.826 8.09435 141.02 7.4922 141.199 6.88605C141.257 6.6895 141.307 6.48667 141.356 6.28293ZM135.072 13.0147C134.298 14.5687 133.677 16.2108 133.254 17.896C133.053 18.7005 132.898 19.5171 132.782 20.3397C132.822 20.237 132.863 20.135 132.903 20.034C132.954 19.9072 133.004 19.782 133.051 19.6594C133.298 19.0091 133.557 18.3639 133.828 17.7237C135.649 13.4325 137.998 9.35074 140.859 5.66772C140.443 5.91985 139.995 6.36988 139.758 6.60756C139.715 6.65134 139.678 6.68791 139.651 6.71472C139.031 7.31786 138.449 7.9611 137.903 8.63137C136.803 9.98295 135.85 11.4547 135.072 13.0147ZM132.634 21.8715C132.628 21.8721 132.622 21.8727 132.617 21.8746C132.613 21.9174 132.609 21.9603 132.605 22.0032C132.592 22.149 132.58 22.2951 132.563 22.4407C134.621 20.3958 136.487 18.1565 138.033 15.6978C139.017 14.1328 139.86 12.4777 140.523 10.7514C140.625 10.4839 140.718 10.213 140.811 9.94259L140.839 9.8607C139.961 12.0519 138.87 14.1629 137.561 16.1256C136.86 17.1766 136.101 18.1896 135.285 19.1544C134.862 19.6543 134.424 20.1433 133.973 20.6182C133.917 20.6776 133.86 20.7376 133.803 20.7979C133.448 21.1761 133.082 21.5644 132.662 21.8626C132.652 21.8694 132.643 21.8705 132.634 21.8715ZM103.876 40.1739C103.88 40.2368 103.883 40.2996 103.888 40.3628C103.908 40.5982 103.935 40.8337 103.962 41.0691C104.668 39.8027 105.354 38.5233 105.963 37.2098C107.278 34.3774 108.382 31.4157 109.181 28.396C109.594 26.836 109.939 25.256 110.198 23.663C110.323 22.8905 110.431 22.116 110.522 21.3386C110.548 21.1177 110.567 20.892 110.586 20.6649C110.608 20.4047 110.63 20.1427 110.663 19.8838C109.934 21.2504 109.239 22.637 108.603 24.0487C107.239 27.0815 106.116 30.2295 105.245 33.4396C104.805 35.0587 104.435 36.6978 104.132 38.3479C104.03 38.901 103.946 39.456 103.866 40.0121C103.87 40.0662 103.873 40.12 103.876 40.1739ZM111.489 20.044C111.485 20.0283 111.48 20.0125 111.476 19.997C111.441 20.4327 111.366 20.8745 111.292 21.302C111.263 21.4722 111.234 21.6401 111.209 21.8044C111.067 22.7032 110.9 23.5969 110.717 24.4886C109.483 30.499 107.292 36.4063 104.026 41.6182C104.029 41.6413 104.032 41.6644 104.035 41.6876C104.043 41.7576 104.052 41.8277 104.059 41.8977C105.069 40.5331 106.038 39.1405 106.924 37.6877C109.103 34.1169 110.794 30.1834 111.431 26.0285C111.587 25.0045 111.68 23.9706 111.698 22.9356C111.714 22.0138 111.731 21.0179 111.51 20.1172C111.504 20.0939 111.497 20.069 111.489 20.044ZM108.476 20.7765C106.441 24.1178 105.034 27.859 104.326 31.7063C103.982 33.5759 103.798 35.4745 103.776 37.3751C105.077 30.8707 107.414 24.5647 110.791 18.8528C110.634 18.7486 110.452 18.6935 110.236 18.7336C109.772 18.8188 109.45 19.2816 109.201 19.6433C108.945 20.012 108.709 20.3938 108.476 20.7765ZM115.362 48.8839C116.221 48.5747 117.13 48.2476 117.8 47.6316C118.128 47.3301 118.295 46.9641 118.283 46.6101C118.286 46.7803 118.198 46.9596 117.991 47.0134C115.946 47.5474 113.922 48.1586 111.916 48.8239C107.501 50.2887 103.234 52.1001 99.1286 54.2422C99.7032 54.0148 100.281 53.7923 100.862 53.584C103.054 52.7998 105.283 52.1265 107.511 51.4532C110.005 50.6993 112.5 49.9455 114.943 49.0363C115.081 48.9852 115.221 48.9348 115.362 48.8839ZM111.756 45.4344C107.226 46.1528 103.034 48.2989 99.4299 51.0852C98.2217 52.019 97.0756 53.0299 95.9735 54.0839C98.6141 52.1131 101.459 50.4179 104.447 49.0263C108.285 47.2389 112.365 45.9755 116.541 45.2831C116.075 45.207 115.594 45.195 115.142 45.187C114.01 45.1679 112.874 45.2571 111.756 45.4344ZM110.304 47.4994C105.972 48.889 101.852 50.9099 98.1066 53.4928C96.6702 54.4837 95.2868 55.5487 93.9655 56.6838C94.3429 56.4714 94.7253 56.265 95.1107 56.0647C95.8004 55.6509 96.491 55.2381 97.1927 54.8443C103.722 51.1794 110.658 48.2408 117.884 46.274C118.108 46.2129 118.247 46.3582 118.28 46.5365C118.251 46.259 118.109 45.9925 117.827 45.7791C117.823 45.7801 117.82 45.7821 117.816 45.7831C115.269 46.1428 112.753 46.7139 110.304 47.4994ZM99.6321 12.7161C99.6482 11.7874 99.5961 10.8496 99.454 9.93184C99.4179 9.7004 99.3709 9.46696 99.3148 9.23552C98.9895 12.646 97.9505 16.0204 96.5941 19.1404C93.8404 25.4744 89.6213 30.9749 85.4391 36.4143C84.1959 38.0313 82.9557 39.6564 81.7475 41.3046C82.9687 39.9841 84.2169 38.6976 85.4511 37.4292C90.8835 31.8476 96.502 25.9664 98.7573 18.3018C99.2908 16.4913 99.5981 14.6047 99.6321 12.7161ZM98.7193 7.84455C98.6685 7.76297 98.6178 7.68149 98.5551 7.60742C98.3028 7.30785 98.0085 7.09844 97.6912 6.95417C97.2288 10.7063 96.0146 14.3242 94.3659 17.7157C92.0229 22.5363 88.8964 26.8759 85.7735 31.2105C84.8378 32.5091 83.9025 33.8073 82.9887 35.1178C81.0088 37.9592 79.1109 40.8718 77.5463 43.9666C76.7696 45.5026 76.0789 47.0816 75.5003 48.7026C75.4426 48.8651 75.3901 49.028 75.3376 49.191C75.3172 49.2543 75.2968 49.3176 75.2761 49.3809C75.2964 49.3938 75.3111 49.4145 75.3257 49.4351C75.3304 49.4419 75.3352 49.4486 75.3402 49.4551C76.3592 47.808 77.5123 46.24 78.7485 44.7301C78.8261 44.6131 78.9029 44.4957 78.9796 44.3783C79.1138 44.1731 79.248 43.9679 79.3862 43.7652C81.1367 41.2027 83.0173 38.7341 84.8978 36.2656C87.2045 33.2378 89.511 30.2101 91.5772 27.0094C93.433 24.1349 95.1157 21.1342 96.3969 17.9561C97.6812 14.7701 98.453 11.4938 98.7243 8.0713C98.7283 8.01219 98.7453 7.96409 98.7693 7.92402C98.7523 7.89769 98.7358 7.87111 98.7193 7.84455ZM97.0376 6.7578C96.1007 6.6005 95.0506 6.87804 94.1918 7.24975C92.6182 7.93104 91.2108 9.03513 89.9005 10.1242C88.8595 10.9919 87.8785 11.9226 86.9546 12.9065C86.9666 12.9486 86.9757 12.9937 86.9706 13.0448C86.6894 16.1938 85.8916 19.2636 84.8245 22.2323C83.4992 25.9187 81.7688 29.4301 80.039 32.9404C79.2513 34.539 78.4637 36.1373 77.7145 37.7518C76.5293 40.3037 75.4313 42.9036 74.5934 45.5927C74.4313 46.1157 74.2891 46.6437 74.149 47.1718C73.9938 48.7027 73.8607 50.2346 73.7416 51.7635C73.7696 51.6911 73.7982 51.6187 73.8267 51.5464C73.8859 51.3965 73.9452 51.2466 73.9998 51.0952C74.0259 51.0251 74.0759 51.001 74.129 50.994C74.2401 50.7736 74.3552 50.5562 74.4723 50.3398C75.195 47.7629 76.2991 45.2651 77.5203 42.9327C79.7366 38.6997 82.5075 34.8228 85.2785 30.9459C86.541 29.1794 87.8036 27.4129 89.0137 25.6127C92.8414 19.9188 96.2828 13.69 97.0376 6.7578ZM75.6755 36.7469C75.164 39.2627 74.7726 41.8055 74.4623 44.3584C75.7893 40.3715 77.6235 36.5863 79.4549 32.8069C80.0548 31.5687 80.6545 30.3312 81.236 29.0873C83.5072 24.2311 85.5442 19.1825 86.1248 13.8192C82.6524 17.7888 80.0608 22.5318 78.252 27.4712C77.195 30.3597 76.3902 33.3194 75.7626 36.3201C75.7616 36.3221 75.7616 36.3251 75.7616 36.3281C75.7446 36.4703 75.7115 36.6086 75.6755 36.7469ZM90.349 8.39592C87.6693 5.71282 84.4432 3.56472 80.8666 2.29029C80.9697 4.57164 80.9677 6.85598 80.8516 9.13733C80.5923 14.229 79.7645 19.3297 78.3822 24.2661C78.3852 24.2596 78.3879 24.2528 78.3907 24.246C78.3934 24.2393 78.3962 24.2326 78.3992 24.2261C81.0618 18.1254 85.0177 12.4386 90.349 8.39592ZM80.1789 2.06087C77.0969 1.06297 73.7476 0.630133 70.5514 1.2453C70.0029 1.35151 69.4634 1.50481 68.9318 1.68115C70.3112 3.93844 71.5134 6.30695 72.4753 8.77364C74.205 13.2101 75.2771 17.9281 75.6415 22.6761C75.8617 25.5456 75.8457 28.4601 75.5183 31.3316C75.5183 31.3346 75.5193 31.3366 75.5193 31.3396C76.0799 29.8087 76.6134 28.2667 77.0879 26.7098C79.4913 18.8198 80.5143 10.4819 80.1389 2.24321C80.1359 2.17307 80.1539 2.11397 80.1789 2.06087ZM65.9669 3.185C64.5635 4.236 63.5395 5.67475 62.8208 7.26277C62.4304 8.12641 62.1241 9.02312 61.8709 9.93586C63.9019 11.0921 65.6906 12.5799 67.3012 14.2711C70.1761 17.2878 72.4323 20.9137 73.8827 24.8202C74.3912 26.1908 74.8016 27.6005 75.1139 29.0302C75.1154 29.0012 75.1177 28.9724 75.1199 28.9436C75.1222 28.9148 75.1244 28.8859 75.1259 28.8569C75.6054 19.5101 73.203 10.0791 68.2822 2.11797C68.2432 2.05485 68.2281 1.99273 68.2231 1.93061C67.4233 2.25423 66.6596 2.66601 65.9669 3.185ZM70.0329 19.0121C67.8448 15.5986 64.9879 12.7803 61.7628 10.3506C61.5806 11.045 61.4194 11.7443 61.2803 12.4466C60.8719 14.5266 60.5976 16.6336 60.4565 18.7486C60.3784 19.9209 60.3453 21.0991 60.3494 22.2784C61.7387 22.7242 63.1101 23.1991 64.4574 23.7652C66.8298 24.7621 69.137 26.0125 71.092 27.7017C72.0049 28.4902 72.8477 29.3709 73.5614 30.3457C73.9017 30.8106 74.21 31.2975 74.4893 31.8015C74.5284 31.8722 74.5705 31.9457 74.6138 32.0209C74.6349 32.0576 74.6562 32.0947 74.6775 32.1321C74.6134 31.5169 74.5374 30.9038 74.4323 30.2946C73.7416 26.297 72.2211 22.4266 70.0329 19.0121ZM72.9403 31.028C72.9491 31.0353 72.9578 31.0425 72.9678 31.049C72.8167 30.8316 72.6625 30.6162 72.4994 30.4098C69.6724 26.8103 65.457 25.0032 61.3548 23.2447C61.021 23.1016 60.6879 22.9588 60.3564 22.8154C60.3984 25.6598 60.6827 28.5042 61.2593 31.2845C61.3295 31.2607 61.3991 31.2353 61.4686 31.21C61.5604 31.1764 61.6523 31.1428 61.7457 31.1132C63.7337 30.478 65.8128 30.0381 67.9018 29.9389C69.6135 29.8578 71.4463 30.0451 72.9128 31.007C72.9228 31.0135 72.9315 31.0208 72.9403 31.028ZM61.3607 8.28811C61.3316 8.27528 61.3029 8.26265 61.2743 8.23863C58.8929 6.21878 55.7208 5.66471 52.6848 5.98032C53.4656 6.72774 54.2123 7.51123 54.891 8.35384C57.0661 11.056 58.7428 14.2681 59.5786 17.6636C59.5874 17.5606 59.5956 17.4575 59.6038 17.3546C59.6218 17.13 59.6397 16.9056 59.6637 16.6817C59.8869 14.5817 60.2262 12.4807 60.7417 10.4318C60.9229 9.71042 61.1411 9.00007 61.3864 8.29973C61.3778 8.29565 61.3692 8.29187 61.3607 8.28811ZM51.7128 6.10757C51.4926 6.14364 51.2734 6.18471 51.0562 6.2298C49.0412 6.64559 47.1143 7.38299 45.2354 8.23461C46.6188 9.62425 47.9251 11.087 49.1393 12.629C51.4696 15.5886 53.4736 18.8077 55.1272 22.1922C55.957 23.8914 56.6917 25.6387 57.3324 27.4181C57.9019 28.9981 58.4315 30.6202 58.7538 32.2734C59.2563 32.0459 59.7628 31.8285 60.2773 31.6301C60.2755 31.6233 60.2726 31.6175 60.2698 31.6117C60.2663 31.6048 60.2629 31.5978 60.2613 31.5891C59.5826 27.6766 59.2793 23.7221 59.4445 19.7656C58.2343 14.5596 55.7248 9.74448 51.7198 6.11658C51.7183 6.11507 51.7163 6.11207 51.7163 6.11207C51.7163 6.11207 51.7143 6.10907 51.7128 6.10757ZM41.4369 10.0764C41.3146 10.1378 41.1924 10.1992 41.0703 10.2605C41.0411 10.2753 41.0119 10.2904 40.9826 10.3056C40.9388 10.3283 40.895 10.351 40.8511 10.3727C41.107 10.8911 41.3401 11.4229 41.5729 11.9539C41.718 12.2849 41.863 12.6156 42.0133 12.9426C42.4487 13.8894 42.8951 14.8312 43.3506 15.769C46.5517 22.3575 50.3064 28.6535 54.6367 34.5587C55.8059 33.7862 57.0261 33.0929 58.2903 32.4918C58.0984 31.9187 57.9136 31.3436 57.7289 30.7686C57.3258 29.5141 56.9229 28.2602 56.4465 27.0284C53.7749 20.1192 49.6798 13.8633 44.5277 8.55723C43.4855 9.04749 42.4569 9.56411 41.4369 10.0764ZM41.284 12.2842C41.0207 11.7078 40.7559 11.128 40.5338 10.537C38.3306 11.6531 36.1585 12.8414 34.1014 14.211C34.3647 14.7213 34.6019 15.247 34.8391 15.7724C35.0158 16.1641 35.1925 16.5555 35.3797 16.9402C35.8472 17.899 36.3367 18.8468 36.8572 19.7776C38.722 23.1139 40.9482 26.2449 43.4627 29.1224C44.7399 30.5832 46.0943 31.9768 47.5217 33.2913C48.2034 33.9185 48.9011 34.5287 49.6138 35.1208C50.0061 35.4464 50.4025 35.766 50.8039 36.0806C50.8847 36.1438 50.9659 36.2047 51.0466 36.2653C51.2629 36.4275 51.4755 36.587 51.6658 36.7789C52.4426 36.1257 53.2473 35.5045 54.0832 34.9264C52.9621 33.2943 51.87 31.6371 50.8089 29.967C48.83 26.853 46.9762 23.6469 45.2434 20.3897C44.3626 18.7336 43.5167 17.0594 42.7069 15.3672C42.3015 14.5216 41.9092 13.67 41.5248 12.8143C41.4455 12.6378 41.3648 12.4612 41.284 12.2842ZM33.4035 14.6848C33.1345 14.8652 32.8656 15.0454 32.604 15.2379C31.0594 16.3751 29.571 17.6575 28.2747 19.1003C28.3267 19.1173 28.3728 19.1494 28.3988 19.2085C28.5381 19.5286 28.6734 19.8498 28.8085 20.1708C29.1987 21.0975 29.5879 22.0217 30.0705 22.9095C30.7251 24.1148 31.4999 25.254 32.3697 26.314C33.2386 27.372 34.2035 28.3499 35.2546 29.2266C35.7581 29.6474 36.2806 30.0441 36.8201 30.4168C37.0203 30.555 37.2224 30.6908 37.4244 30.8265C37.5123 30.8856 37.6002 30.9447 37.688 31.0039C37.7422 31.0405 37.798 31.0761 37.8541 31.112C38.0259 31.2217 38.2005 31.3334 38.3416 31.4769C39.9833 31.9658 41.5728 32.6341 43.0703 33.4626C44.4737 34.2401 45.847 35.1268 47.0702 36.1688C47.9671 36.9322 48.851 37.7388 49.6248 38.6335C50.0131 38.2508 50.4095 37.876 50.8149 37.5104C50.874 37.4574 50.9343 37.4061 50.9947 37.3547C51.0417 37.3147 51.0888 37.2746 51.1353 37.2338C50.8776 37.0766 50.6419 36.8816 50.407 36.6872C50.3217 36.6165 50.2365 36.546 50.1503 36.4774C49.7159 36.1307 49.2864 35.7771 48.863 35.4164C48.0512 34.7261 47.2604 34.0107 46.4907 33.2733C43.6909 30.5902 41.1764 27.6175 39.0033 24.4044C37.9252 22.8084 36.9292 21.1562 36.0223 19.457C35.5649 18.5993 35.1255 17.7297 34.7201 16.845C34.6917 16.7831 34.6632 16.7211 34.6347 16.659C34.3061 15.9435 33.972 15.2161 33.7261 14.4675C33.6188 14.5405 33.5112 14.6127 33.4035 14.6848ZM24.4859 27.37C24.499 28.1545 24.6281 28.952 24.8933 29.6915C25.1246 30.3377 25.4779 30.9238 25.8343 31.5059C28.3608 30.7134 31.0584 30.4068 33.7371 30.6122C34.6069 30.6793 35.4698 30.8036 36.3236 30.9739C35.9112 30.6823 35.5018 30.3868 35.1114 30.0672C33.4138 28.6775 31.9203 27.0344 30.7001 25.2099C29.5309 23.4626 28.4459 21.4708 28.0124 19.3939C27.1936 20.3427 26.4619 21.3626 25.8603 22.4607C25.0375 23.9605 24.4569 25.6418 24.4859 27.37ZM31.4708 31.57C28.2997 31.6752 25.1436 32.4948 22.3929 34.0958C20.8674 34.9845 19.488 36.1327 18.3169 37.4623C18.9126 37.8699 19.5065 38.2801 20.1005 38.6903C21.1023 39.3823 22.1041 40.0742 23.1146 40.7535C28.8272 44.5948 34.9022 47.8911 41.2285 50.6023C41.6749 49.4611 42.3065 48.376 42.9141 47.3461C44.6659 44.3744 46.7409 41.5851 49.1533 39.1194C48.9982 38.976 48.842 38.8334 48.6856 38.6905C48.5896 38.6029 48.4935 38.5151 48.3976 38.4271C43.814 34.2181 37.7801 31.3606 31.4708 31.57ZM18.0546 37.7648C17.3879 38.5573 16.7893 39.408 16.2838 40.3087C16.1507 40.5441 16.0296 40.7866 15.9095 41.0301C16.6502 42.1432 17.478 43.2202 18.3048 44.2692C19.1697 45.3663 20.0986 46.4133 21.0856 47.4012C24.6091 50.9309 28.8473 53.7102 33.4688 55.5737C35.7671 56.5005 38.1474 57.2129 40.5838 57.6657C41.6028 57.8551 42.6309 57.9913 43.6629 58.0915C43.6256 58.0781 43.5882 58.0652 43.5509 58.0523C43.4517 58.0181 43.3527 57.9839 43.2575 57.9402C41.4667 57.1177 40.6149 55.2661 40.6339 53.3605C40.6409 52.6712 40.772 52.0019 40.9692 51.3497C39.3156 50.6303 37.677 49.8789 36.0604 49.0794C32.8692 47.5014 29.7551 45.7691 26.7312 43.8885C23.7262 42.0199 20.7693 40.0412 18.0546 37.7648ZM17.2918 56.261C19.1437 58.6195 21.7182 60.1905 24.6391 60.8377C27.8493 61.5501 31.1745 61.2986 34.4127 60.9209C31.0674 60.5472 27.7932 59.5984 24.7802 58.0585C22.6551 56.9724 20.6612 55.6288 18.8644 54.0568C17.0876 52.5029 15.6282 50.7105 14.3389 48.7447C14.5722 51.4689 15.6032 54.111 17.2918 56.261ZM40.774 60.0392C42.0753 59.8879 43.3676 59.6475 44.6358 59.3179C44.7277 59.2939 44.8192 59.2676 44.9103 59.2414C44.9641 59.2259 45.0177 59.2105 45.0713 59.1956C44.7032 59.1626 44.3375 59.122 43.9799 59.0822C43.8708 59.0701 43.7623 59.0581 43.6549 59.0463C42.2455 58.8921 40.8461 58.6536 39.4647 58.335C34.5018 57.1898 29.8312 55.0297 25.6911 52.066C23.6441 50.6003 21.7442 48.9301 20.0295 47.0866C19.1667 46.1588 18.3529 45.1859 17.5931 44.171C16.9055 43.2513 16.3349 42.2824 15.7784 41.2845C14.7433 43.4567 14.1908 45.8702 14.3099 48.2778C14.377 48.2478 14.457 48.2568 14.5161 48.337C16.0646 50.444 17.9795 52.3526 20.0085 53.9957C23.7432 57.0205 28.2367 59.0764 32.9813 59.8559C35.5559 60.2787 38.1825 60.3408 40.774 60.0392ZM63.6912 56.6761C65.1018 56.47 66.5172 56.2631 67.9408 56.2961C68.2431 56.3031 68.5454 56.3292 68.8447 56.3703C68.1451 55.6248 67.3182 54.9946 66.3863 54.4776C63.426 52.8354 60.0822 52.5304 56.7623 52.2276C55.6425 52.1255 54.5253 52.0236 53.4265 51.8707C50.0622 51.4018 46.2294 50.3127 44.0553 47.5204C43.4567 48.4973 42.9011 49.5002 42.4447 50.5371C41.706 52.2153 41.2925 54.3534 42.4737 55.9474C43.5583 57.4107 45.5993 57.4574 47.3138 57.4967C47.5045 57.501 47.6912 57.5053 47.872 57.5114C50.3455 57.5946 52.8209 57.5725 55.2924 57.4573C55.7598 57.3722 56.2283 57.296 56.6988 57.2329C56.8339 57.2149 56.947 57.267 57.0321 57.3491C58.6987 57.2409 60.3634 57.1037 62.022 56.9053C62.5778 56.8389 63.1341 56.7576 63.6912 56.6761ZM62.7107 52.3255C65.4784 52.9507 68.5314 54.3554 70.2762 56.7269C70.5484 56.8311 70.8117 56.9544 71.0599 57.1037C70.3242 55.3493 69.3993 53.6851 68.2592 52.1572C65.8728 48.9591 62.6827 46.3612 59.0411 44.7271C58.0006 44.2599 56.9208 43.9031 55.8407 43.5463C55.0494 43.2848 54.2579 43.0233 53.4816 42.7183C52.0111 42.1402 50.6137 41.3857 49.6548 40.1504C49.6441 40.1611 49.6333 40.1718 49.6226 40.1825C49.5573 40.2478 49.4922 40.3128 49.4286 40.3808C48.0502 41.8526 46.792 43.4346 45.6448 45.0928C45.1784 45.7681 44.7199 46.4624 44.2775 47.1667C45.6308 48.6025 47.3305 49.6234 49.1983 50.2807C51.697 51.1598 54.3153 51.3716 56.9356 51.5837C58.8754 51.7406 60.8163 51.8977 62.7107 52.3255ZM60.5816 44.674C62.3503 45.5927 64.003 46.7329 65.4914 48.0584C68.1571 50.4329 70.3222 53.3926 71.7106 56.6899C71.7046 54.8624 71.6495 53.0249 71.4403 51.2094C71.0319 47.6657 70.105 44.1881 68.7036 40.9088C68.0009 39.2637 67.1811 37.6656 66.2432 36.1418C65.7857 35.3973 65.3002 34.6699 64.7897 33.9606C64.5135 33.5769 64.2292 33.1992 63.9399 32.8254C63.8874 32.7577 63.8341 32.6917 63.781 32.6261C63.5792 32.3763 63.3825 32.133 63.2612 31.8275C63.2585 31.8204 63.2591 31.8141 63.2596 31.8079C63.2601 31.8029 63.2606 31.7979 63.2592 31.7925C61.961 32.1421 60.6897 32.587 59.4595 33.132C56.0361 34.6479 52.9551 36.8561 50.3024 39.4911C50.3182 39.5131 50.3353 39.5339 50.3523 39.5547C50.3711 39.5775 50.3898 39.6002 50.4065 39.6244C50.5146 39.7777 50.4025 39.98 50.2534 40.0131C51.6017 41.2384 53.3204 41.9628 55.0441 42.5409C55.2675 42.6158 55.4908 42.69 55.7138 42.764C57.3736 43.3151 59.0188 43.8614 60.5816 44.674ZM71.2471 46.5105C71.8257 48.9231 72.1991 51.4299 72.2481 53.9296C72.3952 49.7326 72.7816 45.5476 73.2491 41.3737C73.3802 40.2045 73.5184 39.0362 73.6575 37.867C73.6761 37.7103 73.6958 37.5531 73.7155 37.3955C73.8244 36.5257 73.9347 35.645 73.8677 34.7721C73.7956 33.8313 73.4973 32.9136 72.7916 32.2563C72.2261 31.7293 71.4914 31.4047 70.7476 31.2214C68.9609 30.7805 67.051 31.0049 65.2652 31.3276C64.7887 31.4137 64.3153 31.5169 63.8458 31.6311C64.116 31.8514 64.3316 32.1384 64.5429 32.4197C64.5891 32.4813 64.6352 32.5427 64.6816 32.603C64.9989 33.0158 65.3043 33.4366 65.6005 33.8634C66.1841 34.703 66.7307 35.5686 67.2432 36.4533C69.059 39.5873 70.4023 42.9888 71.2471 46.5105ZM10.0697 99.0375C10.8595 103.536 12.0717 108.011 14.3169 112.016C17.9034 118.413 23.9314 122.675 30.1365 126.357C29.1896 125.135 28.2787 123.886 27.4078 122.612C24.0495 117.698 21.2367 112.425 18.8834 106.961C16.1597 100.638 14.0266 94.078 12.1938 87.4464C10.4431 81.1154 8.92058 74.7032 7.7314 68.2419L7.58025 68.0936C7.57293 68.5543 7.5604 69.0151 7.54788 69.4761C7.53131 70.0858 7.51474 70.6957 7.51018 71.3057C7.49817 72.7865 7.53121 74.2693 7.58926 75.7491C7.70538 78.7108 7.95662 81.6654 8.25892 84.613C8.28239 84.8414 8.30582 85.0699 8.32925 85.2984C8.79972 89.8858 9.2726 94.4966 10.0697 99.0375ZM20.7352 108.709C23.1927 114.086 26.1146 119.262 29.594 124.046C30.2777 124.986 30.9934 125.902 31.7231 126.807C30.9875 124.958 30.2561 123.107 29.5247 121.257C28.8757 119.614 28.2268 117.972 27.575 116.331C25.2555 110.495 22.9025 104.669 20.5498 98.8444C19.7011 96.7434 18.8525 94.6425 18.0055 92.5411C16.7909 89.5262 15.5646 86.5159 14.3382 83.5054C13.9576 82.5712 13.5771 81.637 13.1968 80.7026C12.8613 79.8779 12.5241 79.0539 12.1869 78.2298C10.9336 75.1671 9.68011 72.1039 8.51117 69.0083C8.50416 69.0023 8.49816 68.9963 8.49215 68.9903C8.55621 69.2257 8.62028 69.4602 8.68434 69.6946C9.28106 71.8897 9.8144 74.1033 10.3477 76.3167C10.6186 77.4412 10.8896 78.5657 11.1688 79.6876C11.9996 83.023 12.8765 86.3483 13.8324 89.6506C15.7123 96.144 17.9235 102.556 20.7352 108.709ZM29.0694 118.245C30.2339 121.037 31.3984 123.829 32.5569 126.623L32.5578 126.446C32.5597 126.093 32.5615 125.741 32.5589 125.389C32.5509 124.07 32.5349 122.751 32.5099 121.432C32.4608 118.842 32.3667 116.252 32.1805 113.667C31.5249 104.567 29.649 95.4296 24.8563 87.5496C22.545 83.7494 19.7262 80.2808 16.6882 77.0426C14.891 75.1275 12.9963 73.3151 11.1018 71.5028C10.349 70.7826 9.59616 70.0625 8.8495 69.3359C10.2629 72.579 11.5932 75.8584 12.9231 79.1369C13.3196 80.1144 13.7161 81.0918 14.1147 82.0682C16.0983 86.9253 18.1042 91.773 20.11 96.6208C21.3716 99.6698 22.6333 102.719 23.8894 105.77C25.6029 109.933 27.3362 114.089 29.0694 118.245ZM246.918 138.498C245.499 137.582 244.02 136.763 242.513 136.002C241.644 135.563 240.759 135.156 239.865 134.767C239.171 135.46 238.373 136.042 237.579 136.617C236.764 137.208 235.928 137.772 235.074 138.307C233.398 139.356 231.657 140.301 229.861 141.13C223.337 144.142 216.177 145.698 208.996 145.706C202.265 145.714 195.488 144.349 189.404 141.443C190.135 145.361 190.637 149.398 190.454 153.397C190.9 153.508 191.343 153.631 191.787 153.754C192.158 153.857 192.529 153.96 192.902 154.056C194.016 154.343 195.138 154.599 196.267 154.828C198.524 155.284 200.8 155.637 203.09 155.872C211.225 156.702 219.499 156.082 227.43 154.099C235.054 152.194 242.463 149 248.966 144.552C245.455 146.07 241.861 147.42 238.201 148.519C230.516 150.827 222.595 152.339 214.588 152.899C210.617 153.177 206.628 153.227 202.651 153.047C200.648 152.956 198.647 152.806 196.653 152.594C194.639 152.38 192.6 152.16 190.622 151.719C190.432 151.677 190.459 151.39 190.66 151.412C191.655 151.519 192.648 151.649 193.64 151.78C194.862 151.94 196.085 152.101 197.313 152.218C199.537 152.429 201.768 152.571 204.001 152.641C212 152.888 220.027 152.197 227.869 150.604C235.615 149.031 243.179 146.5 250.338 143.144C250.33 142.595 250.235 142.049 249.992 141.523C249.376 140.19 248.117 139.272 246.918 138.498ZM238.163 135.268C238.501 135.004 238.839 134.739 239.185 134.487C237.128 133.627 235.021 132.889 232.868 132.302C232.795 132.282 232.735 132.241 232.683 132.19C232.136 132.799 231.576 133.395 230.987 133.963C227.422 137.401 223.065 139.959 218.356 141.477C213.553 143.026 208.433 143.539 203.416 142.992C198.69 142.477 194.076 141.007 190.036 138.491C189.589 138.485 189.133 138.337 188.739 138.12C188.948 139.069 189.136 140.02 189.315 140.969C192.627 142.441 196.112 143.559 199.668 144.244C206.603 145.579 213.803 145.384 220.662 143.709C224.116 142.865 227.472 141.64 230.65 140.04C232.231 139.244 233.767 138.356 235.243 137.379C235.959 136.907 236.659 136.413 237.346 135.899C237.621 135.693 237.892 135.48 238.163 135.268ZM172.789 175.714C177.198 173.579 181.49 170.843 184.58 166.974C184.925 166.54 185.247 166.094 185.551 165.64C185.536 165.65 185.521 165.659 185.506 165.668C185.499 165.673 185.492 165.677 185.485 165.681C184.658 166.199 183.824 166.703 182.981 167.194C181.313 168.167 179.613 169.086 177.886 169.951C171.659 173.073 165.079 175.491 158.321 177.178C151.821 178.801 145.116 179.764 138.412 179.88C138.351 179.977 138.252 180.052 138.111 180.052C137.977 180.052 137.902 179.983 137.863 179.893C137.83 179.893 137.797 179.895 137.764 179.895C137.742 179.902 137.72 179.909 137.698 179.916C137.676 179.923 137.654 179.929 137.632 179.936L137.659 180.203C138.687 180.701 139.82 181.056 140.934 181.27C143.522 181.768 146.263 181.737 148.888 181.645C151.648 181.548 154.401 181.257 157.122 180.777C162.551 179.82 167.826 178.118 172.789 175.714ZM186.087 180.41C186.035 179.591 185.978 178.773 185.919 177.958C185.791 176.171 185.633 174.387 185.446 172.605C185.352 171.714 185.251 170.824 185.142 169.935C185.103 169.616 185.06 169.295 185.017 168.975C184.941 168.801 184.866 168.627 184.794 168.452C184.221 169.111 183.625 169.751 182.983 170.35C179.15 173.926 174.346 176.45 169.505 178.369C164.231 180.461 158.657 181.805 153.009 182.333C151.632 182.461 150.251 182.541 148.869 182.574C148.867 182.577 148.864 182.578 148.862 182.58C148.915 182.622 148.966 182.667 149.019 182.709C149.674 182.793 150.328 182.88 150.983 182.968C153.02 183.241 155.057 183.514 157.11 183.667C166.867 184.393 176.728 183.266 186.087 180.41ZM183.22 166.138C183.964 165.694 184.702 165.24 185.434 164.775C185.606 164.665 185.776 164.553 185.946 164.442C186.127 164.323 186.307 164.204 186.49 164.088C187.973 161.362 188.811 158.344 189.151 155.235C185.966 158.032 182.574 160.587 179.007 162.873C172.633 166.956 165.736 170.206 158.524 172.502C154.926 173.647 151.255 174.564 147.536 175.219C145.67 175.548 143.793 175.815 141.908 176.017L141.787 176.03C140.275 176.193 138.689 176.363 137.155 176.268C137.166 176.342 137.177 176.415 137.189 176.488C137.246 176.863 137.303 177.238 137.353 177.614C137.378 177.658 137.385 177.709 137.371 177.765C137.435 178.255 137.494 178.745 137.548 179.236L137.55 179.235C137.578 179.223 137.606 179.212 137.641 179.211C141.527 179.085 145.404 178.784 149.252 178.218C156.082 177.214 162.797 175.451 169.234 172.954C172.443 171.71 175.585 170.288 178.637 168.696C180.189 167.887 181.717 167.034 183.22 166.138ZM170.103 167.073C176.851 163.779 183.151 159.593 188.79 154.631C188.937 154.502 189.097 154.539 189.208 154.641C189.254 154.127 189.289 153.611 189.309 153.094C189.421 150.156 189.169 147.206 188.725 144.285C188.684 144.322 188.636 144.353 188.572 144.368C184.341 145.36 180.152 146.526 176.018 147.868C168.748 150.229 161.645 153.111 154.79 156.493C148.067 159.808 141.604 163.618 135.377 167.789C135.401 167.876 135.424 167.963 135.447 168.051C135.58 168.544 135.712 169.037 135.833 169.534C136.336 171.604 136.75 173.702 137.084 175.813C137.734 175.71 138.391 175.65 139.047 175.589C139.189 175.576 139.33 175.563 139.471 175.549C140.532 175.448 141.591 175.328 142.649 175.199C144.719 174.949 146.779 174.621 148.824 174.218C156.19 172.764 163.354 170.367 170.103 167.073ZM87.5492 174.516C87.4892 176.046 87.4892 177.578 87.5522 179.107C87.5817 179.822 87.6386 180.536 87.6956 181.25C87.7586 182.041 87.8217 182.832 87.8475 183.626C87.8505 183.725 87.7865 183.785 87.7144 183.802C88.7754 184.189 89.8455 184.553 90.9256 184.885C90.9308 184.886 90.936 184.886 90.9413 184.886C90.9492 184.886 90.9572 184.887 90.9656 184.889C91.4237 185.023 91.8807 185.159 92.3379 185.295C92.5251 185.351 92.7122 185.406 92.8995 185.462C94.438 185.881 95.9926 186.242 97.5601 186.544C97.7132 186.574 97.8234 186.648 97.9054 186.743C98.1066 186.749 98.3119 186.864 98.4089 187.043C99.1767 187.251 99.9455 187.456 100.717 187.651C103.543 186.609 106.309 185.335 108.88 183.778C114.038 180.656 118.56 176.507 122.119 171.639C125.685 166.763 128.28 161.167 129.538 155.249C129.548 155.204 129.565 155.166 129.588 155.135C127.832 151.827 125.63 148.784 122.75 146.357C117.296 141.759 110.076 139.891 103.057 139.845C102.021 139.838 100.985 139.871 99.9515 139.937C100.005 140.015 100.024 140.114 99.9735 140.211C99.69 140.76 99.3202 141.254 98.9504 141.748C98.8228 141.918 98.6952 142.089 98.5711 142.262C98.0766 142.95 97.5981 143.649 97.1347 144.359C96.2138 145.769 95.3539 147.22 94.5611 148.707C91.7283 154.017 89.6893 159.768 88.5612 165.681C88.0057 168.596 87.6653 171.552 87.5492 174.516ZM80.0898 177.528C79.6574 176.186 79.276 174.828 78.9457 173.457C77.7395 168.452 77.224 163.28 77.3882 158.132C77.5373 153.506 78.26 148.916 79.5433 144.473C74.5113 146.223 69.6105 148.363 64.9139 150.883C64.8934 151.004 64.8727 151.126 64.852 151.247C64.7319 151.95 64.6118 152.654 64.5375 153.365C64.4174 154.52 64.3753 155.687 64.4144 156.849C64.5495 160.887 65.6266 164.884 67.4884 168.466C68.4203 170.259 69.5595 171.944 70.8778 173.475C71.5514 174.258 72.2731 174.997 73.0429 175.686C73.2996 175.916 73.5668 176.135 73.8339 176.353C74.349 176.774 74.8638 177.195 75.3021 177.697C75.3075 177.703 75.31 177.709 75.3116 177.715C75.3139 177.724 75.3144 177.733 75.3191 177.742C76.6274 178.562 77.9618 179.338 79.3221 180.063C80.0298 180.44 80.7505 180.792 81.4712 181.143C81.223 180.614 80.9817 180.087 80.7785 179.53C80.5363 178.867 80.3061 178.199 80.0898 177.528ZM80.7525 177.899C80.9547 178.523 81.1679 179.143 81.3921 179.759C81.5099 180.083 81.6123 180.41 81.7147 180.738C81.7804 180.948 81.846 181.158 81.9157 181.366C83.7605 182.247 85.6463 183.037 87.5642 183.742C87.5604 183.737 87.5564 183.733 87.5524 183.728C87.5385 183.713 87.5246 183.697 87.5192 183.672C87.1498 181.978 87.0848 180.203 87.0217 178.475C86.9616 176.804 86.9716 175.131 87.0527 173.462C87.348 167.397 88.5712 161.349 90.6603 155.646C91.7053 152.795 92.9656 150.023 94.433 147.363C95.1657 146.036 95.9465 144.734 96.7783 143.467C97.1917 142.837 97.6171 142.216 98.0556 141.602L98.1074 141.53C98.4952 140.986 98.8819 140.444 99.3639 139.982C96.6062 140.192 93.8635 140.628 91.1628 141.203C87.5532 141.971 83.9917 142.969 80.4952 144.147C79.7515 146.59 79.1659 149.081 78.7575 151.602C77.9477 156.601 77.8156 161.709 78.3681 166.743C78.6434 169.249 79.0849 171.737 79.6915 174.185C80.0018 175.434 80.3561 176.673 80.7525 177.899ZM78.3591 128.952C79.7125 131.271 81.281 133.464 83.0127 135.514C83.8886 136.551 84.8095 137.55 85.7745 138.504C86.197 138.923 86.635 139.326 87.0725 139.728L87.1778 139.825L87.7034 140.132C87.8015 139.889 88.0958 139.874 88.2699 140.026C88.5202 139.985 88.7744 139.991 89.0197 140.058C89.2469 140.119 89.4531 140.215 89.6042 140.378C90.6313 140.141 91.6643 139.923 92.7023 139.728C90.4081 137.787 88.2739 135.61 86.303 133.353C82.5212 129.023 79.3071 124.187 76.7686 119.028C75.4903 116.428 74.3902 113.745 73.4823 110.994C73.0389 109.65 72.6385 108.29 72.2831 106.918C72.165 106.465 72.0539 106.005 71.9428 105.545C71.934 105.619 71.9245 105.693 71.9151 105.767C71.9009 105.878 71.8867 105.99 71.8747 106.101C72.0439 108.741 72.2181 111.364 72.7196 113.977C73.7296 119.242 75.6575 124.325 78.3591 128.952ZM74.6615 126.038C76.8847 131.066 80.3441 135.548 84.8576 138.685C84.8395 138.666 84.8205 138.647 84.8015 138.629C83.7334 137.54 82.7185 136.399 81.7645 135.208C78.3671 130.967 75.6965 126.115 73.9027 120.986C73.0039 118.416 72.3192 115.768 71.8717 113.082C71.7776 112.517 71.6916 111.948 71.6135 111.376C71.6675 116.407 72.6125 121.404 74.6615 126.038ZM74.2451 95.2092C73.3202 98.0726 72.6085 101.007 72.155 103.982C72.2233 104.262 72.2902 104.543 72.3571 104.824C72.5541 105.651 72.7512 106.478 72.9828 107.295C73.4133 108.828 73.9057 110.343 74.4513 111.839C76.4042 117.188 79.0208 122.289 82.27 126.965C83.8966 129.305 85.6804 131.534 87.6023 133.637C89.5242 135.74 91.6012 137.645 93.7583 139.501C93.7642 139.507 93.768 139.513 93.7719 139.519C93.7753 139.524 93.7787 139.53 93.7834 139.535C96.9785 138.987 100.211 138.675 103.437 138.728C100.4 136.636 97.5231 134.317 94.8634 131.761C89.4511 126.56 84.8856 120.521 81.3491 113.899C78.1279 107.865 75.6515 101.244 74.5033 94.4668C74.4671 94.5738 74.4292 94.6801 74.3913 94.7864C74.3413 94.9268 74.2912 95.0672 74.2451 95.2092ZM126.692 165.105C124.021 170.593 120.228 175.519 115.643 179.54C111.506 183.167 106.684 186.091 101.457 187.827C103.662 188.373 105.881 188.863 108.112 189.295C108.332 189.171 108.559 189.055 108.785 188.938C108.86 188.899 108.935 188.86 109.01 188.821C109.619 188.506 110.223 188.181 110.82 187.845C111.994 187.183 113.142 186.475 114.26 185.723C118.244 183.047 121.87 179.852 125.006 176.216C128.157 172.563 130.716 168.519 132.822 164.185C132.918 163.987 133.147 163.99 133.275 164.097C133.263 164.06 133.252 164.021 133.24 163.983C133.23 163.947 133.219 163.911 133.207 163.875C132.317 161.162 131.266 158.435 129.959 155.85C129.218 159.048 128.129 162.153 126.692 165.105ZM172.055 129.297C169.772 129.997 167.526 130.818 165.326 131.746C160.889 133.617 156.64 135.93 152.66 138.638C148.698 141.334 144.988 144.412 141.623 147.825C138.254 151.243 135.227 154.997 132.601 159.014C132.574 159.055 132.54 159.076 132.509 159.106C133.175 160.759 133.776 162.439 134.318 164.137C137.176 160.864 140.298 157.839 143.557 154.963C149.487 149.728 155.929 145.071 162.731 141.037C169.589 136.971 176.825 133.532 184.324 130.824C184.365 130.81 184.402 130.81 184.44 130.807C183.129 129.353 181.374 128.489 179.375 128.275C176.91 128.013 174.399 128.579 172.055 129.297ZM166.141 116.939C165.572 123.168 162.703 129.168 158.453 133.769C161.837 131.937 165.355 130.363 168.987 129.089C169.487 128.913 170.007 128.735 170.532 128.561C170.238 127.993 169.956 127.418 169.687 126.837C168.218 123.656 167.009 120.34 166.141 116.939ZM173.531 127.672C175.296 127.232 177.111 126.957 178.866 127.056C178.516 124.029 178.521 120.928 178.648 117.896C178.899 111.913 179.88 105.963 181.547 100.211C182.388 97.3092 183.408 94.4628 184.607 91.6895C185.206 90.3038 185.848 88.9373 186.533 87.5927C186.91 86.8523 187.296 86.1039 187.705 85.3715C185.852 86.9625 184.125 88.6988 182.563 90.5764C178.372 95.615 175.391 101.618 173.846 107.989C172.285 114.43 172.157 121.186 173.531 127.672ZM184.857 131.321C184.83 131.418 184.763 131.504 184.635 131.55C180.482 133.04 176.401 134.741 172.423 136.654C165.31 140.074 158.526 144.201 152.184 148.898C145.816 153.615 140.014 158.969 134.475 164.624C134.473 164.626 134.471 164.626 134.469 164.628C134.748 165.524 135.009 166.425 135.256 167.329C138.574 164.992 141.995 162.809 145.498 160.761C152.182 156.853 159.188 153.476 166.381 150.617C173.559 147.764 180.954 145.459 188.473 143.698C188.537 143.683 188.591 143.69 188.639 143.705C188.325 141.751 187.928 139.811 187.493 137.897C186.996 135.714 186.366 133.45 185.069 131.592C185.027 131.532 184.981 131.476 184.936 131.419C184.909 131.387 184.883 131.354 184.857 131.321ZM113.712 186.74C112.704 187.382 111.674 187.989 110.625 188.561C110.497 188.631 110.367 188.703 110.237 188.775C109.815 189.008 109.384 189.247 108.943 189.457C111.62 189.958 114.312 190.375 117.014 190.706C118.009 190.545 118.997 190.344 119.968 190.087C123.455 189.163 126.771 187.561 129.671 185.417C131.103 184.358 132.441 183.168 133.647 181.856C134.258 181.191 134.837 180.497 135.379 179.774C135.646 179.418 135.902 179.054 136.157 178.691C136.255 178.551 136.353 178.412 136.452 178.273C136.329 177.31 136.196 176.35 136.036 175.393C135.41 171.652 134.512 167.957 133.352 164.345C133.351 164.352 133.35 164.358 133.348 164.365C133.347 164.376 133.345 164.387 133.339 164.399C132.213 166.896 130.816 169.289 129.284 171.557C126.572 175.572 123.307 179.214 119.624 182.361C117.758 183.956 115.783 185.424 113.712 186.74ZM133.597 182.787C131.031 185.412 127.971 187.539 124.621 189.036C122.783 189.857 120.829 190.509 118.833 190.91C118.941 190.922 119.048 190.934 119.155 190.947C119.283 190.962 119.411 190.976 119.54 190.99C121.52 191.192 123.505 191.345 125.492 191.452C127.087 191.538 128.689 191.601 130.277 191.398C131.786 191.205 133.302 190.767 134.499 189.791C135.685 188.824 136.369 187.416 136.661 185.932C136.968 184.368 136.925 182.76 136.786 181.179C136.769 180.989 136.747 180.799 136.725 180.61C136.71 180.479 136.694 180.348 136.681 180.216C136.665 180.22 136.65 180.224 136.634 180.229C136.605 180.237 136.577 180.245 136.548 180.25C136.53 180.254 136.523 180.227 136.539 180.22C136.584 180.201 136.631 180.189 136.676 180.173C136.656 179.982 136.632 179.791 136.609 179.6C136.592 179.466 136.576 179.333 136.561 179.199C136.269 179.63 135.953 180.045 135.634 180.455C135 181.271 134.318 182.048 133.597 182.787ZM221.236 139.255C225.57 137.319 229.414 134.414 232.475 130.784C235.324 127.405 237.486 123.473 238.885 119.282C235.841 121.491 232.684 123.549 229.419 125.416C223.213 128.964 216.636 131.875 209.826 134.053C206.437 135.137 202.988 136.037 199.503 136.754C197.776 137.11 196.041 137.423 194.297 137.677C194.105 137.705 193.912 137.734 193.72 137.763C192.839 137.894 191.951 138.027 191.062 138.101C191.041 138.16 190.999 138.213 190.939 138.257C191.564 138.577 192.196 138.883 192.838 139.164C197.338 141.13 202.148 142.2 207.064 142.219C211.92 142.238 216.801 141.237 221.236 139.255ZM239.155 118.414C239.16 118.412 239.165 118.41 239.17 118.408C239.834 116.236 240.287 113.996 240.509 111.733C237.158 114.383 233.686 116.872 230.097 119.191C223.645 123.36 216.85 127.012 209.8 130.063C206.238 131.603 202.616 132.999 198.937 134.233C197.12 134.843 195.291 135.41 193.449 135.936C193.356 135.962 193.262 135.989 193.169 136.016C191.743 136.424 190.308 136.835 188.855 137.144C188.861 137.149 188.866 137.154 188.871 137.158C188.882 137.168 188.892 137.177 188.903 137.186C188.973 137.241 189.046 137.293 189.122 137.342C189.128 137.346 189.148 137.359 189.164 137.369L189.182 137.38C189.224 137.405 189.267 137.428 189.311 137.449C189.385 137.485 189.46 137.517 189.537 137.546C189.561 137.555 189.584 137.563 189.608 137.571C189.633 137.576 189.658 137.58 189.684 137.594C189.693 137.599 189.702 137.604 189.71 137.608C189.715 137.61 189.719 137.613 189.723 137.615C190.775 137.388 191.848 137.245 192.92 137.102C193.586 137.014 194.252 136.925 194.911 136.816C196.844 136.498 198.77 136.141 200.684 135.721C207.585 134.206 214.338 131.979 220.791 129.097C227.25 126.211 233.408 122.639 239.104 118.439C239.121 118.427 239.138 118.421 239.155 118.414ZM240.564 111C240.719 108.967 240.7 106.921 240.472 104.896C240.374 104.027 240.253 103.143 240.081 102.269C236.577 104.95 233.015 107.553 229.387 110.062C222.758 114.65 215.933 118.957 208.931 122.954C205.421 124.958 201.866 126.883 198.271 128.73C196.474 129.653 194.66 130.544 192.839 131.421C192.689 131.493 192.539 131.566 192.389 131.638C190.781 132.413 189.169 133.189 187.512 133.853C187.525 133.887 187.54 133.921 187.555 133.955C187.572 133.993 187.589 134.031 187.603 134.069C187.903 134.891 188.145 135.733 188.366 136.583C188.381 136.605 188.395 136.627 188.41 136.649C188.446 136.701 188.486 136.75 188.525 136.8C189.423 136.535 190.327 136.291 191.231 136.048C192.145 135.801 193.059 135.555 193.966 135.286C196.037 134.671 198.096 134.013 200.138 133.307C207.38 130.801 214.404 127.678 221.12 123.986C227.901 120.259 234.34 115.907 240.373 111.062C240.436 111.012 240.502 110.997 240.564 111ZM236.511 95.5849C236.403 95.5148 236.291 95.4527 236.179 95.3915C236.148 95.4296 236.108 95.4617 236.048 95.4807C231.646 96.9996 227.36 98.8431 223.223 100.981C215.893 104.768 209.03 109.437 202.815 114.866C199.696 117.59 196.735 120.504 193.99 123.606C192.612 125.164 191.283 126.765 190.006 128.407C189.144 129.516 188.331 130.659 187.517 131.802C187.332 132.061 187.147 132.321 186.961 132.58C187.091 132.844 187.202 133.112 187.314 133.381L187.342 133.449C188.569 132.805 189.82 132.205 191.07 131.605C191.815 131.247 192.559 130.89 193.299 130.523C195.319 129.523 197.327 128.495 199.325 127.451C206.466 123.72 213.442 119.676 220.226 115.331C226.99 111 233.553 106.359 239.905 101.442C239.632 100.288 239.257 99.1627 238.715 98.1207C238.192 97.1138 237.467 96.2091 236.511 95.5849ZM220.706 96.5818C220.693 96.6309 220.685 96.681 220.672 96.7301C220.591 97.0417 220.162 97.0447 220.103 96.7721C219.106 97.0817 218.116 97.4144 217.14 97.7851C212.118 99.6947 207.403 102.389 203.23 105.779C199.243 109.019 195.779 112.884 192.951 117.174C190.132 121.453 187.955 126.174 186.543 131.103C186.5 131.253 186.413 131.341 186.312 131.391C186.459 131.626 186.586 131.872 186.714 132.119C186.738 132.164 186.761 132.21 186.785 132.256C187.872 130.647 189.064 129.101 190.262 127.578C191.714 125.729 193.234 123.934 194.814 122.194C200.398 116.048 206.678 110.586 213.575 105.961C220.345 101.419 227.714 97.7751 235.392 95.0429C234.565 94.7493 233.672 94.6321 232.799 94.604C231.452 94.561 230.096 94.7183 228.763 94.8856C227.431 95.0529 226.106 95.2743 224.792 95.5468C223.415 95.8334 222.053 96.181 220.706 96.5818ZM217.908 77.9884C217.352 77.1388 216.619 76.4856 215.761 76.0197C215.75 76.0547 215.738 76.0908 215.714 76.1238C215.236 76.7814 214.7 77.3956 214.165 78.0089C213.927 78.2805 213.69 78.552 213.459 78.827C212.733 79.6876 212.017 80.5563 211.311 81.433C209.869 83.2234 208.463 85.0438 207.101 86.8974C202.249 93.5019 197.999 100.528 194.255 107.816C192.397 111.432 190.686 115.115 189.152 118.881C188.376 120.785 187.645 122.706 186.939 124.636C186.617 125.518 186.309 126.404 186.001 127.29C185.708 128.133 185.415 128.975 185.111 129.813C185.288 130.004 185.46 130.201 185.622 130.406C185.955 129.261 186.316 128.128 186.73 127.01C188.578 122.026 191.214 117.325 194.483 113.137C197.782 108.911 201.739 105.199 206.186 102.208C210.501 99.308 215.239 97.0837 220.211 95.5809C220.264 95.0419 220.313 94.5028 220.362 93.9638C220.708 90.2127 220.498 86.4395 219.649 82.7655C219.272 81.1384 218.833 79.4021 217.908 77.9884ZM215.092 75.7041C214.873 75.6159 214.651 75.5347 214.419 75.4686C212.244 74.8454 209.892 75.0979 207.652 75.5638C207.144 76.1915 206.628 76.8114 206.112 77.4312C205.279 78.4319 204.446 79.4325 203.649 80.4651C202.322 82.1854 201.044 83.9457 199.821 85.7421C195.483 92.1153 191.835 98.9754 189.01 106.153C187.61 109.71 186.402 113.343 185.395 117.031C184.878 118.921 184.417 120.827 184.008 122.745C183.804 123.708 183.626 124.676 183.449 125.644C183.296 126.484 183.142 127.323 182.97 128.159C183.184 128.274 183.395 128.396 183.603 128.532C184.078 128.84 184.503 129.202 184.895 129.596C185.436 127.631 186.106 125.699 186.793 123.784C187.57 121.619 188.409 119.475 189.29 117.351C192.438 109.764 196.11 102.436 200.442 95.4546C202.622 91.941 204.945 88.5144 207.397 85.1851C208.616 83.5309 209.868 81.9008 211.156 80.2998C211.816 79.4802 212.485 78.6687 213.161 77.8632C213.217 77.797 213.272 77.7307 213.328 77.6645C213.894 76.9899 214.46 76.3162 215.092 75.7041ZM205.571 76.0507C202.593 76.8001 199.699 77.8862 196.947 79.2478C194.208 80.6034 191.607 82.2455 189.201 84.1331C188.855 84.7931 188.492 85.4435 188.129 86.094C187.695 86.8725 187.261 87.6511 186.856 88.4463C186.105 89.9241 185.405 91.428 184.757 92.9549C182.437 98.4273 180.778 104.173 179.853 110.045C179.391 112.98 179.112 115.941 179.018 118.91C178.931 121.644 179.069 124.356 179.213 127.08C180.367 127.179 181.493 127.45 182.559 127.953C182.795 125.925 183.231 123.901 183.67 121.912C184.134 119.813 184.662 117.729 185.252 115.662C187.383 108.199 190.334 100.958 194.016 94.1281C195.843 90.7407 197.844 87.4474 200.023 84.2744C201.132 82.6593 202.289 81.0793 203.492 79.5323C204.467 78.2769 205.458 77.0126 206.516 75.8193C206.197 75.8954 205.881 75.9725 205.571 76.0507ZM188.93 75.0227C187.86 74.6591 186.736 74.5869 185.622 74.7022C185.64 74.7543 185.639 74.8123 185.583 74.8634C185.161 75.2353 184.735 75.6013 184.31 75.967C183.172 76.9454 182.037 77.9212 180.981 78.9983C179.557 80.4521 178.229 82.0041 177.02 83.6412C172.574 89.6606 169.6 96.7701 168.665 104.208C167.653 112.264 168.883 120.574 172.188 127.988C172.192 127.998 172.194 128.008 172.195 128.018C172.196 128.026 172.197 128.034 172.2 128.042C172.309 128.009 172.415 127.973 172.525 127.941C172.524 127.937 172.522 127.934 172.521 127.931C172.519 127.928 172.517 127.925 172.516 127.921C172.333 127.086 172.172 126.245 172.038 125.401C170.956 118.595 171.537 111.544 173.577 104.971C175.562 98.5786 178.986 92.6653 183.59 87.8061C186.505 84.7292 189.854 82.0742 193.498 79.9151C193.45 79.6366 193.386 79.361 193.292 79.0975C192.59 77.1348 190.872 75.683 188.93 75.0227ZM171.492 85.146C168.918 88.9843 167.178 93.3797 166.294 97.9113C165.31 102.958 165.413 108.167 166.321 113.214C167.233 118.292 168.998 123.091 171.184 127.741C169.445 123.661 168.323 119.328 167.861 114.917C167.035 107.031 168.337 98.9373 171.625 91.7205C173.168 88.3371 175.136 85.1671 177.46 82.2665C178.604 80.8388 179.836 79.4823 181.146 78.2038C182.412 76.9685 183.747 75.7371 185.22 74.7472C184.056 74.9165 182.91 75.2853 181.86 75.7632C179.641 76.7731 177.652 78.281 175.879 79.9431C174.221 81.4981 172.757 83.2584 171.492 85.146ZM164.307 121.977C165.431 118.127 165.624 113.995 164.775 110.069C164.07 113.147 163.044 116.15 161.756 119.037C158.573 126.171 153.89 132.504 148.583 138.195C145.8 141.182 142.843 144.002 139.807 146.729C138.275 148.105 136.725 149.459 135.16 150.797C134.823 151.085 134.487 151.377 134.15 151.67C132.959 152.705 131.761 153.746 130.472 154.646C131.021 155.695 131.527 156.767 131.994 157.852C132.558 157.003 133.13 156.159 133.73 155.335C136.649 151.325 139.987 147.621 143.65 144.279C147.309 140.938 151.304 137.965 155.554 135.418C155.927 135.193 156.305 134.976 156.682 134.76L156.744 134.724C157.211 134.204 157.672 133.679 158.126 133.147C160.906 129.882 163.101 126.107 164.307 121.977ZM146.811 92.2205C144.21 91.2577 141.539 90.4992 138.845 89.8289C138.843 89.885 138.828 89.9442 138.796 90.0063C136.881 93.7394 135.104 97.5446 133.486 101.416C130.6 108.315 128.228 115.427 126.362 122.668C125.431 126.282 124.629 129.928 123.959 133.599C123.573 135.715 123.258 137.842 122.943 139.968C122.714 141.514 122.486 143.059 122.229 144.6C124.031 145.954 125.653 147.534 127.062 149.319C128.295 150.882 129.361 152.57 130.301 154.328C131.372 153.246 132.547 152.261 133.718 151.279C134.205 150.871 134.692 150.463 135.17 150.049C136.904 148.548 138.629 147.038 140.324 145.494C146.212 140.132 151.757 134.361 156.2 127.723C160.071 121.939 163.067 115.501 164.422 108.656C163.497 105.449 161.818 102.698 159.655 100.363C159.493 102.237 159.184 104.101 158.819 105.944C158.38 108.155 157.823 110.345 157.166 112.501C154.804 120.256 151.078 127.595 146.252 134.104C143.842 137.355 141.168 140.409 138.246 143.21C136.798 144.598 135.288 145.924 133.722 147.178C132.939 147.805 132.143 148.416 131.333 149.009C131.227 149.087 131.12 149.165 131.014 149.244C130.286 149.782 129.552 150.324 128.727 150.694C128.361 150.858 128.119 150.367 128.388 150.121C128.955 149.602 129.598 149.167 130.24 148.734C130.541 148.53 130.842 148.327 131.134 148.115C132.053 147.45 132.953 146.76 133.836 146.047C135.566 144.65 137.226 143.166 138.811 141.606C144.524 135.983 149.222 129.342 152.693 122.116C154.412 118.536 155.832 114.811 156.921 110.99C157.475 109.047 157.939 107.077 158.319 105.092C158.618 103.532 158.839 101.962 159.06 100.392C159.087 100.201 159.114 100.01 159.141 99.819C155.763 96.3884 151.34 93.8967 146.811 92.2205ZM138.037 89.6285C136.333 89.2168 134.623 88.835 132.917 88.4593C132.005 88.2579 131.069 88.0626 130.122 87.8953C129.727 88.8306 129.308 89.7563 128.888 90.6821C128.491 91.5573 128.095 92.4324 127.719 93.3156C126.923 95.1842 126.168 97.0707 125.457 98.9733C122.881 105.852 120.879 112.927 119.421 120.126C118.696 123.698 118.113 127.3 117.674 130.92C117.452 132.756 117.266 134.595 117.116 136.439C117.045 137.321 116.982 138.205 116.928 139.089C116.913 139.339 116.9 139.59 116.888 139.841C116.861 140.378 116.835 140.915 116.78 141.449C117.534 141.776 118.275 142.13 118.996 142.521C120.018 143.075 120.991 143.7 121.923 144.379C122.128 140.252 122.821 136.124 123.572 132.066C124.931 124.723 126.823 117.482 129.226 110.411C131.644 103.3 134.564 96.3564 137.999 89.6766C138.005 89.6646 138.013 89.6559 138.021 89.6471C138.027 89.6412 138.032 89.6354 138.037 89.6285ZM111.372 100.471C111.374 100.627 111.264 100.727 111.146 100.748C110.009 103.899 109.134 107.157 108.474 110.426C106.594 119.705 106.555 129.321 108.391 138.609C108.434 138.827 108.357 138.989 108.232 139.098C108.304 139.108 108.375 139.117 108.447 139.126C108.565 139.141 108.682 139.156 108.798 139.174C109.585 139.297 110.368 139.45 111.146 139.626C110.956 137.857 110.882 136.061 110.821 134.29C110.753 132.326 110.759 130.361 110.814 128.397C111.011 121.336 112.085 114.307 113.981 107.503C114.935 104.077 116.115 100.713 117.489 97.4324C118.847 94.1902 120.375 90.9972 122.203 87.9934C122.273 87.8802 122.467 87.9934 122.405 88.1097C120.56 91.5833 118.818 95.096 117.372 98.757C114.784 105.307 113 112.184 112.06 119.164C111.593 122.638 111.315 126.148 111.29 129.654C111.277 131.42 111.32 133.187 111.419 134.952C111.49 136.227 111.624 137.492 111.757 138.758C111.793 139.105 111.83 139.451 111.865 139.798C113.294 140.153 114.699 140.603 116.063 141.153C116.067 140.537 116.109 139.921 116.151 139.306C116.161 139.15 116.172 138.995 116.181 138.84C116.248 137.801 116.327 136.762 116.417 135.724C116.597 133.649 116.826 131.577 117.101 129.512C118.07 122.249 119.633 115.081 121.742 108.064C122.806 104.523 124.012 101.025 125.357 97.5807C126.029 95.8584 126.736 94.1492 127.478 92.456C128.161 90.895 128.853 89.318 129.659 87.8151C126.391 87.2771 123.002 87.1479 119.958 88.5175C116.297 90.1636 114.066 93.7484 112.515 97.2962C112.099 98.245 111.715 99.2098 111.353 100.184C111.354 100.226 111.358 100.268 111.362 100.309C111.366 100.363 111.371 100.416 111.372 100.471ZM110.369 98.2009C109.409 95.0879 107.614 92.2976 105.298 90.0213C103.877 88.6256 102.294 87.4223 100.63 86.3373C100.961 86.8202 101.286 87.3081 101.594 87.8061C102.263 88.8881 102.877 90.0043 103.432 91.1484C105.43 95.2703 106.696 99.7819 107.156 104.339C107.364 106.401 107.413 108.503 107.271 110.591C107.557 109.143 107.881 107.702 108.256 106.273C108.871 103.918 109.604 101.592 110.457 99.312C110.478 99.255 110.5 99.1987 110.523 99.1423C110.541 99.0975 110.559 99.0527 110.576 99.0074L110.557 98.928C110.5 98.6839 110.442 98.4395 110.369 98.2009ZM96.5911 83.9688C94.9775 83.1072 93.3429 82.2756 91.6973 81.4781C91.5422 81.4029 91.384 81.3288 91.2258 81.2526C92.392 82.5291 93.425 83.9458 94.419 85.3564C95.449 86.8192 96.417 88.3261 97.3249 89.869C100.606 95.4487 103.05 101.505 104.585 107.794C105.193 110.285 105.678 112.803 106.013 115.343C106.318 113.685 106.553 112.014 106.657 110.335C106.936 105.817 106.45 101.199 105.118 96.8683C104.463 94.7403 103.623 92.6694 102.605 90.6896C102.076 89.6606 101.498 88.6567 100.871 87.6829C100.641 87.3245 100.386 86.9759 100.13 86.6268C99.8696 86.2711 99.6088 85.9148 99.3729 85.5468C98.459 84.9947 97.5301 84.4697 96.5911 83.9688ZM90.7564 81.0402C89.4181 80.4441 88.0127 79.9651 86.5382 79.9591C85.8375 79.9561 85.1659 80.0634 84.5232 80.2507C84.5322 80.2607 84.5433 80.2647 84.5523 80.2757C87.4361 83.9648 90.0787 87.8361 92.4711 91.8618C96.7133 99.0024 100.173 106.61 102.724 114.517C103.891 118.136 104.888 121.813 105.704 125.528C105.706 125.222 105.709 124.917 105.712 124.612C105.721 123.64 105.73 122.669 105.708 121.698C105.68 120.423 105.604 119.149 105.506 117.877C105.506 117.875 105.505 117.872 105.504 117.87C105.503 117.867 105.502 117.864 105.503 117.861C105.503 117.861 105.503 117.856 105.504 117.854C105.492 117.703 105.481 117.552 105.47 117.401C105.443 117.043 105.417 116.685 105.381 116.327C104.737 109.924 103.14 103.676 100.665 97.736C99.4219 94.7503 97.9625 91.8518 96.2929 89.0825C95.464 87.7089 94.5852 86.3653 93.6562 85.0569C93.1136 84.2919 92.5417 83.5499 91.9696 82.8079C91.5624 82.2796 91.1551 81.7512 90.7584 81.2146C90.7103 81.1494 90.7244 81.0893 90.7564 81.0402ZM78.0018 86.1479C77.9938 86.2962 77.9177 86.4415 77.7856 86.5337C77.183 87.6548 76.6675 88.825 76.18 89.9943C75.6605 91.2366 75.191 92.499 74.7466 93.7694C75.5233 97.4815 76.4953 101.141 77.8136 104.703C80.4052 111.708 84.1178 118.282 88.7774 124.116C93.3469 129.838 98.8194 134.826 104.982 138.781C105.762 138.823 106.541 138.882 107.319 138.971L107.316 138.953C107.285 138.9 107.256 138.845 107.242 138.776C107.01 137.607 106.807 136.433 106.634 135.253C106.421 133.799 106.259 132.336 106.136 130.871C105.807 128.977 105.443 127.089 105.017 125.214C103.19 117.15 100.435 109.298 96.8914 101.83C93.3469 94.3616 89.0037 87.2881 83.9276 80.7647C83.8546 80.6715 83.8366 80.5743 83.8486 80.4842C81.6234 81.3678 79.7976 83.2544 78.5293 85.2512C78.3431 85.5448 78.172 85.8454 78.0018 86.1479ZM76.1003 86.6197C75.7605 86.6177 75.4205 86.6156 75.0799 86.6118C72.4713 86.5848 69.8437 86.7491 67.2512 87.1318C67.5091 87.7325 67.7177 88.3564 67.9261 88.9797C68.0614 89.3845 68.1967 89.789 68.3453 90.1866C68.7436 91.2547 69.1741 92.3117 69.6385 93.3526C70.103 94.3946 70.5975 95.4236 71.133 96.4305C71.4803 97.0847 71.8587 97.719 72.2371 98.3532C72.8397 96.0227 73.5844 93.7274 74.4463 91.4821C75.0218 89.9832 75.6375 88.4543 76.3632 86.9845L76.4382 86.6218C76.3256 86.6211 76.213 86.6204 76.1003 86.6197ZM66.8598 87.1929C63.1181 87.783 59.4575 88.8471 56.0471 90.5082C53.3094 91.8418 50.7629 93.5871 48.5537 95.6821C49.1273 99.83 50.3195 103.9 52.1002 107.688C55.5486 115.025 60.7698 121.338 66.8708 126.624C71.0389 130.235 75.5834 133.373 80.28 136.264C76.8877 132.836 74.3392 128.568 72.7236 124.034C70.2902 117.202 70.0439 109.788 71.2942 102.684C71.4854 101.593 71.7146 100.508 71.9718 99.4302C71.4393 98.5496 70.9648 97.6168 70.5044 96.702C69.9919 95.6831 69.5044 94.6531 69.0539 93.6051C68.5935 92.5331 68.1701 91.446 67.7847 90.3449C67.7493 90.2433 67.7134 90.1413 67.6775 90.039C67.3523 89.1126 67.0175 88.1592 66.8598 87.1929ZM43.2725 102.626C41.9422 105.18 41.0503 107.958 40.761 110.829C40.4968 113.438 40.779 116.059 41.3876 118.601C43.5187 121.212 45.82 123.69 48.3295 125.936C53.6087 130.659 59.7508 134.424 66.3333 137.029C69.6165 138.328 73.0129 139.339 76.4753 140.03C78.224 140.379 79.9878 140.648 81.7605 140.831C82.6584 140.924 83.5593 140.996 84.4602 141.045C84.6998 141.059 84.94 141.068 85.1803 141.077C85.6206 141.093 86.0611 141.11 86.4982 141.154C86.5394 141.143 86.5805 141.132 86.6217 141.121C86.6636 141.11 86.7055 141.1 86.7474 141.089C86.6198 141.015 86.493 140.94 86.3663 140.865C86.2882 140.819 86.2101 140.773 86.1318 140.727C86.0517 140.719 85.9707 140.697 85.8896 140.649C85.4201 140.371 84.9617 140.077 84.5092 139.772C81.3451 137.896 78.221 135.954 75.195 133.861C68.3563 129.131 61.9369 123.612 57.001 116.872C52.4996 110.726 49.1633 103.495 48.3705 95.8614C46.3325 97.8292 44.5908 100.096 43.2725 102.626ZM45.9922 130.368C47.2825 133.077 48.5978 135.777 50.0772 138.388C50.5907 139.294 51.1343 140.184 51.6918 141.063C54.3074 141.891 57.0091 142.526 59.7107 142.998C64.5225 143.838 69.4453 144.055 74.3131 143.646C76.244 143.484 78.166 143.22 80.0698 142.862C80.1679 142.758 80.3131 142.744 80.4452 142.787C80.5432 142.767 80.6413 142.748 80.7393 142.729C81.029 142.673 81.3187 142.617 81.6074 142.554C81.656 142.544 81.7046 142.532 81.753 142.521C81.8262 142.504 81.8993 142.486 81.9727 142.469C82.5812 142.277 83.1937 142.097 83.8062 141.916C82.8883 141.848 81.9727 141.761 81.0588 141.649C79.0488 141.401 77.0518 141.048 75.0789 140.594C68.097 138.983 61.4224 136.119 55.4275 132.193C50.2063 128.773 45.4186 124.514 41.6209 119.531C41.728 119.924 41.8411 120.314 41.9622 120.702C43.0042 124.04 44.4917 127.217 45.9922 130.368ZM51.9751 141.501C52.937 142.98 53.965 144.414 55.1052 145.758C56.966 147.955 59.1241 149.874 61.5085 151.487C62.2202 151.075 62.9349 150.667 63.6566 150.271C67.8818 147.958 72.2681 145.952 76.7746 144.262C73.2111 144.665 69.6095 144.74 66.035 144.472C61.2192 144.11 56.5166 143.125 51.9751 141.501ZM63.8198 155.999C63.8398 154.424 63.9629 152.755 64.3563 151.194C62.8809 151.997 61.4214 152.834 59.987 153.712C59.8867 153.773 59.7861 153.835 59.6856 153.896C59.0264 154.299 58.3644 154.704 57.7348 155.151C57.1132 155.593 56.4775 156.103 56.0951 156.777C55.2482 158.269 56.3573 159.768 57.2477 160.971C57.3023 161.045 57.356 161.117 57.4085 161.189C59.3283 163.805 61.4574 166.268 63.7527 168.561C66.048 170.853 68.5214 172.974 71.137 174.903C70.6896 174.426 70.2551 173.937 69.8447 173.428C67.2151 170.166 65.3693 166.279 64.4604 162.19C64.009 160.159 63.7928 158.079 63.8198 155.999ZM2.21295 164.098C1.6544 166.005 1.35511 167.993 1.20696 169.97C1.12188 171.116 1.08984 172.265 1.08084 173.415C1.8259 172.836 2.61977 172.316 3.40997 171.799C3.51791 171.729 3.62578 171.658 3.73345 171.588C4.72744 170.936 5.73543 170.306 6.74943 169.688C8.75341 168.467 10.7924 167.3 12.8615 166.192C20.2828 162.221 28.1045 158.996 36.1625 156.569C40.1704 155.363 44.2365 154.355 48.3425 153.542C50.3815 153.138 52.4315 152.787 54.4896 152.485C55.1032 152.395 55.7178 152.308 56.3344 152.223C55.6858 152.152 55.0351 152.085 54.3835 152.031C52.1543 151.847 49.9231 151.731 47.6858 151.711C39.752 151.642 31.8012 152.676 24.1416 154.742C16.447 156.817 9.03168 159.966 2.21295 164.098ZM1.08184 173.823C1.07983 176.158 1.20396 178.497 1.43118 180.812C1.54429 181.959 1.69244 183.103 1.8576 184.242C5.40811 182.087 9.06872 180.112 12.7624 178.215C19.7963 174.603 26.9994 171.33 34.3407 168.394C41.3776 165.578 48.5387 163.083 55.7949 160.897C54.911 159.575 54.2093 158.036 54.964 156.474C55.6502 155.054 57.056 154.183 58.3594 153.376C58.4498 153.32 58.5396 153.264 58.6287 153.209C58.8315 153.082 59.0368 152.959 59.2423 152.837C59.3601 152.766 59.4781 152.696 59.5956 152.624C59.2065 152.667 58.8173 152.71 58.4281 152.752C56.9033 152.917 55.3789 153.082 53.8589 153.299C51.5567 153.627 49.2624 154.021 46.9812 154.478C38.757 156.125 30.6951 158.638 22.9735 161.912C19.1437 163.536 15.395 165.348 11.7454 167.342C9.87352 168.366 8.02669 169.438 6.2099 170.557C5.47548 171.009 4.75253 171.484 4.02948 171.959C3.05649 172.598 2.08333 173.237 1.08184 173.823ZM13.2448 212.898C14.5962 214.465 16.1047 215.893 17.7933 217.099C18.5621 217.649 19.3659 218.138 20.1937 218.581C25.4239 217.982 30.626 217.239 35.7581 216.047C40.9232 214.847 45.9992 213.269 50.9391 211.34C55.8689 209.416 60.6657 207.144 65.2712 204.536C69.8868 201.923 74.3001 198.968 78.4973 195.728C82.4422 192.681 86.1678 189.353 89.6553 185.791C84.2499 184.043 79.0688 181.594 74.2841 178.532C68.6455 174.923 63.5395 170.477 59.2222 165.357C58.1502 164.085 57.1292 162.772 56.1592 161.421C52.1833 162.624 48.2354 163.916 44.3205 165.306C36.8952 167.941 29.591 170.915 22.4359 174.215C18.8584 175.865 15.3129 177.582 11.8094 179.384C9.16347 180.746 6.54609 182.161 3.92896 183.576C3.26 183.938 2.59106 184.3 1.92167 184.66C2.29404 187.132 2.77751 189.587 3.39512 192.009C5.04475 198.482 7.47415 205.028 11.366 210.507C11.8605 211.202 12.384 211.878 12.9305 212.533C13.0189 212.52 13.1073 212.507 13.1957 212.494C13.4937 212.452 13.7915 212.409 14.0887 212.36L14.468 212.298C19.4469 211.476 24.4117 210.657 29.3327 209.52C34.3907 208.352 39.3947 206.966 44.3245 205.341C49.2354 203.722 54.0631 201.862 58.7978 199.782C63.5325 197.702 68.1711 195.403 72.6925 192.892C77.223 190.376 81.6284 187.64 85.9096 184.723C86.4231 184.373 87.0227 185.134 86.5062 185.487C85.9717 185.851 85.4361 186.212 84.8976 186.57C80.5603 189.455 76.0679 192.111 71.4703 194.559C66.8858 197.001 62.1862 199.227 57.3934 201.231C52.5777 203.244 47.6668 205.038 42.6889 206.607C37.753 208.163 32.7471 209.497 27.6861 210.577C22.9114 211.596 18.0986 212.385 13.2448 212.898ZM68.7727 214.507C73.0209 212.325 77.0188 209.67 80.7075 206.637C81.0791 206.243 81.4528 205.851 81.8266 205.459C82.5935 204.654 83.3604 203.849 84.1088 203.026C86.3811 200.53 88.6063 197.986 90.7093 195.343C91.7784 193.999 92.8194 192.636 93.8294 191.249C94.3269 190.566 94.8164 189.877 95.2989 189.183C95.5621 188.804 95.8234 188.425 96.0816 188.043C96.1179 187.989 96.1532 187.936 96.1883 187.882C96.257 187.777 96.3251 187.674 96.398 187.575C95.1137 187.308 93.8364 187.011 92.5702 186.666C91.8985 186.483 91.2318 186.284 90.5662 186.079C90.4921 186.156 90.4181 186.233 90.3441 186.309C90.0993 186.563 89.8545 186.817 89.6062 187.069C85.8475 190.875 81.7965 194.405 77.5033 197.595C73.2251 200.773 68.7156 203.634 64.031 206.173C59.3173 208.729 54.4195 210.944 49.3885 212.798C44.3926 214.639 39.2625 216.121 34.0534 217.224C31.4218 217.782 28.7682 218.251 26.1005 218.593C24.498 218.798 22.8643 219.007 21.2327 219.106C23.1286 220.002 25.1416 220.651 27.1986 221.09C30.659 221.827 34.2226 222.055 37.754 222.05C41.3526 222.046 44.9542 221.739 48.5057 221.162C55.5556 220.018 62.4184 217.772 68.7727 214.507ZM85.5612 225.185C87.365 230.537 89.8755 235.946 93.6923 240.169C94.0827 240.602 94.4941 241.015 94.9175 241.412C94.5948 240.618 94.4054 239.772 94.2176 238.934C94.1957 238.836 94.1738 238.739 94.1517 238.641C93.9235 237.634 93.7133 236.623 93.5211 235.609C93.1457 233.633 92.8384 231.643 92.5922 229.646C91.7113 222.494 91.6803 215.239 92.5031 208.081C92.9155 204.492 93.5241 200.93 94.3559 197.415C94.8724 195.229 95.4951 193.079 96.1687 190.944C96.1188 191.024 96.0689 191.103 96.0191 191.182C95.7789 191.565 95.5383 191.947 95.2889 192.324C92.1888 196.993 88.5002 201.271 84.3691 205.057C84.1529 205.834 83.9607 206.616 83.8085 207.401C82.6594 213.342 83.6484 219.51 85.5612 225.185ZM95.1297 241.619C96.6562 243.023 98.3759 244.205 100.251 245.11C101.005 245.473 101.777 245.79 102.562 246.073C102.262 245.464 101.997 244.836 101.734 244.209L101.657 244.027C101.228 243.008 100.82 241.979 100.436 240.941C99.6622 238.856 98.9845 236.739 98.3879 234.597C96.2658 226.977 95.3009 219.046 95.4881 211.14C95.5802 207.205 95.9635 203.278 96.6382 199.401C96.9795 197.438 97.412 195.489 97.9114 193.561C98.3709 191.79 98.8674 190.022 99.5661 188.329C99.527 188.283 99.509 188.219 99.525 188.16L99.5213 188.159C99.1131 188.045 98.705 187.931 98.2978 187.813C96.8744 191.444 95.7914 195.241 94.9265 199.038C93.3439 205.985 92.5832 213.103 92.6432 220.228C92.6733 223.808 92.9195 227.389 93.375 230.94C93.5972 232.68 93.8775 234.412 94.2048 236.135C94.374 237.023 94.5561 237.907 94.7513 238.788C94.7968 238.993 94.8447 239.197 94.8927 239.402C95.0507 240.075 95.209 240.75 95.2788 241.438C95.2899 241.541 95.2128 241.607 95.1297 241.619ZM103.561 246.41C105.111 246.9 106.702 247.255 108.311 247.495C112.5 248.122 116.78 248.077 121.014 247.725C120.454 246.958 120.001 246.113 119.551 245.273C119.46 245.103 119.368 244.932 119.277 244.763C118.745 243.783 118.227 242.795 117.722 241.8C116.712 239.811 115.757 237.795 114.856 235.753C111.609 228.39 109.076 220.712 107.296 212.864C106.409 208.959 105.704 205.007 105.207 201.033C104.724 197.177 104.358 193.277 104.372 189.387C104.279 189.366 104.185 189.344 104.092 189.322C103.512 189.188 102.933 189.054 102.356 188.91C101.588 188.718 100.821 188.517 100.057 188.308C99.8222 189.248 99.5633 190.18 99.3043 191.113C98.998 192.216 98.6917 193.32 98.426 194.434C97.9235 196.539 97.5121 198.664 97.1787 200.802C95.9695 208.549 95.9235 216.467 97.0196 224.231C97.5651 228.093 98.3869 231.921 99.503 235.659C100.066 237.543 100.699 239.407 101.404 241.243C101.756 242.162 102.127 243.074 102.514 243.977C102.632 244.253 102.756 244.527 102.879 244.801C103.118 245.333 103.358 245.864 103.561 246.41ZM125.542 247.25C131.464 246.504 137.321 245.22 143.002 243.383C145.568 242.554 148.094 241.6 150.579 240.551C149.66 237.824 148.673 235.12 147.686 232.417C147.394 231.62 147.103 230.822 146.814 230.025C144.488 223.617 142.113 217.227 139.713 210.847C138.513 207.657 137.306 204.47 136.093 201.285C135.916 200.819 135.738 200.353 135.561 199.887C135.127 198.748 134.693 197.608 134.257 196.469C134.099 196.053 133.937 195.638 133.774 195.223C133.344 194.12 132.913 193.016 132.54 191.894C130.559 192.528 128.32 192.531 126.308 192.438C122.459 192.26 118.616 191.883 114.8 191.343C114.731 191.344 114.661 191.345 114.592 191.346C114.395 191.348 114.198 191.351 114.001 191.344C113.924 191.342 113.891 191.276 113.895 191.212C110.89 190.764 107.902 190.197 104.939 189.523L104.948 189.645C105.249 193.896 105.55 198.131 106.145 202.356C107.257 210.258 109.132 218.052 111.736 225.594C113.035 229.358 114.515 233.058 116.169 236.678C117.002 238.5 117.879 240.302 118.8 242.081C119.255 242.959 119.72 243.832 120.195 244.699C120.335 244.953 120.479 245.205 120.622 245.458C120.98 246.086 121.338 246.714 121.63 247.375C121.679 247.486 121.662 247.589 121.613 247.674C122.928 247.556 124.24 247.413 125.542 247.25ZM146.66 228.183C148.144 232.228 149.628 236.273 151.192 240.285C152.857 239.568 154.507 238.819 156.128 238.005C155.096 234.558 153.964 231.142 152.748 227.755C150.391 221.198 147.709 214.759 144.726 208.463C143.239 205.327 141.679 202.226 140.044 199.165C139.22 197.623 138.369 196.096 137.519 194.569C137.325 194.222 137.13 193.875 136.934 193.529C136.355 192.5 135.774 191.47 135.241 190.418C134.53 191.039 133.718 191.477 132.852 191.789C133.398 193.024 133.877 194.293 134.355 195.559C134.529 196.019 134.702 196.479 134.879 196.937C135.568 198.723 136.254 200.512 136.938 202.3C139.37 208.667 141.778 215.043 144.165 221.426C145.006 223.675 145.833 225.929 146.66 228.183ZM150.055 218.865C152.59 225.025 154.822 231.3 156.821 237.653C157.684 237.209 158.544 236.758 159.393 236.289C159.602 236.173 159.81 236.053 160.017 235.934C160.134 235.866 160.251 235.799 160.368 235.732C159.14 231.938 157.819 228.176 156.395 224.452C153.848 217.787 151.025 211.213 147.893 204.801C146.327 201.595 144.646 198.441 142.909 195.324C142.034 193.753 141.14 192.193 140.227 190.644C139.909 190.104 139.583 189.569 139.256 189.033C138.682 188.092 138.108 187.151 137.581 186.186C137.269 187.668 136.653 189.052 135.528 190.154C136.565 191.639 137.478 193.223 138.366 194.798C139.328 196.502 140.267 198.219 141.182 199.95C144.44 206.107 147.402 212.422 150.055 218.865ZM160.964 235.389C163.011 234.198 165.013 232.927 166.953 231.568C167.062 231.491 167.172 231.413 167.281 231.334C167.351 231.284 167.421 231.233 167.491 231.182C165.981 227.113 164.299 223.11 162.443 219.186C159.143 212.208 155.313 205.48 151.005 199.075C148.855 195.878 146.58 192.766 144.209 189.729C143.017 188.2 141.79 186.701 140.55 185.212C140.21 184.803 139.866 184.397 139.522 183.991C138.946 183.312 138.371 182.633 137.814 181.939C137.889 183.221 137.875 184.552 137.652 185.825C137.677 185.832 137.703 185.84 137.721 185.866C138.679 187.209 139.518 188.65 140.351 190.08C140.522 190.373 140.693 190.667 140.865 190.958C141.881 192.689 142.875 194.432 143.845 196.188C147.306 202.455 150.53 208.883 153.405 215.441C156.261 221.955 158.77 228.623 160.964 235.389ZM158.488 209.696C162.236 216.435 165.47 223.459 168.168 230.685C169.56 229.64 170.884 228.485 171.951 227.114C171.706 226.449 171.472 225.779 171.237 225.11C170.903 224.157 170.569 223.205 170.208 222.262C169.518 220.464 168.783 218.682 168.01 216.919C165.244 210.615 161.918 204.565 158.078 198.853C156.171 196.016 154.14 193.263 151.992 190.604C150.212 188.4 148.334 186.284 146.455 184.167C146.051 183.712 145.647 183.257 145.244 182.801C145.173 182.721 145.199 182.617 145.263 182.549C145.19 182.547 145.116 182.545 145.042 182.543C144.87 182.538 144.698 182.533 144.526 182.524C143.216 182.46 141.904 182.346 140.623 182.049C139.993 181.903 139.374 181.714 138.778 181.461C138.403 181.303 138.055 181.089 137.723 180.852C137.735 180.965 137.747 181.08 137.758 181.194C139.106 182.466 140.342 183.868 141.551 185.27C142.961 186.905 144.323 188.582 145.656 190.281C150.443 196.387 154.718 202.916 158.488 209.696ZM169.811 209.562L169.786 209.518C166.941 204.449 163.606 199.655 159.872 195.205C158.005 192.978 156.038 190.834 153.973 188.79C152.546 187.378 151.048 186.052 149.55 184.724C148.874 184.126 148.198 183.526 147.527 182.919C147.431 182.831 147.368 182.712 147.34 182.588C146.743 182.587 146.145 182.575 145.548 182.559C148.348 185.206 150.868 188.155 153.261 191.171C157.559 196.588 161.368 202.386 164.655 208.47C166.304 211.52 167.823 214.64 169.198 217.824C169.885 219.415 170.53 221.025 171.141 222.647L171.212 222.835C171.653 224.008 172.097 225.188 172.48 226.383C172.543 226.289 172.612 226.201 172.672 226.104C176.075 220.714 172.54 214.42 169.811 209.562ZM177.703 200.923C180.448 200.073 182.906 198.44 184.347 195.902C185.331 194.167 185.815 192.217 186.054 190.241C185.547 190.405 185.013 190.488 184.484 190.57C184.4 190.583 184.316 190.596 184.233 190.61C183.543 190.719 182.85 190.812 182.157 190.891C180.768 191.05 179.374 191.148 177.978 191.187C173.041 191.327 168.105 190.745 163.332 189.478C160.913 188.834 158.534 188.017 156.24 187.014C155.115 186.522 154.006 185.989 152.921 185.413C152.192 185.026 151.454 184.619 150.756 184.163C150.835 184.232 150.914 184.3 150.993 184.369C151.183 184.534 151.372 184.699 151.559 184.867C155.995 188.855 160.058 193.26 163.667 198.01C164.548 199.169 165.408 200.351 166.243 201.553C166.251 201.551 166.258 201.55 166.265 201.548C166.277 201.545 166.288 201.542 166.302 201.542C167.216 201.54 168.127 201.584 169.039 201.629C170.133 201.682 171.227 201.735 172.325 201.709C174.137 201.666 175.967 201.462 177.703 200.923ZM186.133 189.519C186.186 188.937 186.225 188.354 186.247 187.777C186.33 185.541 186.251 183.292 186.118 181.051C183.633 181.863 181.12 182.562 178.559 183.095C173.664 184.115 168.661 184.62 163.663 184.662C161.181 184.683 158.697 184.588 156.225 184.36C154.477 184.199 152.726 183.991 150.996 183.675C151.372 183.87 151.745 184.073 152.118 184.275C152.633 184.555 153.148 184.834 153.671 185.096C154.878 185.7 156.109 186.251 157.359 186.758C161.887 188.595 166.678 189.759 171.541 190.221C173.978 190.452 176.43 190.509 178.873 190.378C180.101 190.312 181.324 190.202 182.542 190.045C183.139 189.968 183.735 189.879 184.329 189.781C184.495 189.754 184.661 189.722 184.828 189.691C185.255 189.61 185.682 189.529 186.116 189.516C186.119 189.516 186.121 189.516 186.124 189.517C186.127 189.518 186.13 189.519 186.133 189.519ZM236.27 184.628C235.088 180.991 233.736 177.414 232.264 173.884C232.254 173.887 232.245 173.892 232.236 173.897C232.224 173.903 232.213 173.909 232.199 173.912C228.91 174.572 225.574 174.995 222.224 175.172C216.313 175.486 210.359 175.029 204.56 173.853C201.683 173.269 198.842 172.507 196.061 171.568C193.426 170.678 190.805 169.655 188.353 168.329C188.393 168.37 188.433 168.411 188.474 168.452C188.621 168.602 188.769 168.752 188.92 168.898C189.619 169.578 190.328 170.243 191.053 170.894C192.475 172.169 193.963 173.367 195.521 174.47C201.157 178.464 207.664 181.235 214.435 182.581C221.206 183.928 228.232 183.844 234.949 182.225C235.607 182.066 235.751 183.104 235.102 183.264C231.256 184.205 227.311 184.61 223.354 184.539C216.353 184.413 209.37 182.757 203.027 179.796C199.842 178.309 196.804 176.49 194.003 174.363C192.619 173.311 191.283 172.187 190.043 170.965C189.419 170.349 188.805 169.72 188.225 169.061C187.916 168.711 187.614 168.356 187.322 167.993C187.193 167.831 187.131 167.701 187.048 167.513C186.96 167.312 186.827 167.145 186.691 166.975C186.673 166.953 186.656 166.931 186.638 166.909C186.618 166.883 186.626 166.857 186.642 166.839C186.506 166.767 186.369 166.7 186.234 166.627C186.181 166.701 186.129 166.776 186.077 166.85C185.985 166.983 185.892 167.116 185.794 167.244C185.971 168.052 186.061 168.883 186.151 169.707C186.159 169.779 186.167 169.85 186.175 169.921C188.794 174.537 192.122 178.761 196.088 182.29C200.364 186.093 205.324 189.058 210.697 191.026C216.332 193.09 222.404 194.062 228.403 193.808C230.696 193.711 233.283 193.48 235.182 192.051C236.145 191.325 236.783 190.295 236.949 189.093C237.156 187.586 236.733 186.05 236.27 184.628ZM214.554 174.343C220.371 174.648 226.224 174.239 231.938 173.103C231.043 170.986 230.107 168.886 229.136 166.804C227.929 167.391 226.703 167.937 225.452 168.422C219.192 170.848 212.468 171.923 205.763 171.662C199.253 171.407 192.652 169.938 186.838 166.941C187.023 167.129 187.209 167.277 187.438 167.429C187.561 167.511 187.67 167.628 187.776 167.743C187.787 167.755 187.799 167.768 187.81 167.78C187.85 167.743 187.902 167.72 187.973 167.749C188.346 167.9 188.719 168.052 189.091 168.204C191.78 169.298 194.463 170.391 197.242 171.254C202.854 172.996 208.685 174.034 214.554 174.343ZM207.885 170.68C214.31 170.637 220.714 169.307 226.612 166.754C228.714 165.845 230.748 164.784 232.703 163.59C232.045 163.878 231.384 164.157 230.717 164.419C223.865 167.099 216.471 168.395 209.119 168.267C205.449 168.204 201.784 167.778 198.199 166.984C196.407 166.586 194.633 166.097 192.89 165.517C191.257 164.973 189.606 164.37 188.082 163.556C188.072 163.58 188.06 163.603 188.048 163.626C188.041 163.639 188.034 163.652 188.027 163.665C188.054 163.78 188.03 163.909 187.93 164C187.91 164.018 187.888 164.035 187.867 164.052C187.845 164.069 187.824 164.085 187.803 164.103C187.783 164.142 187.764 164.181 187.745 164.219C187.713 164.283 187.682 164.346 187.648 164.408C187.313 165.028 186.933 165.619 186.538 166.197C187.169 166.457 187.804 166.703 188.442 166.945C191.569 168.126 194.743 169.139 198.03 169.769C201.274 170.391 204.582 170.702 207.885 170.68ZM247.17 150.13C248.071 148.86 248.973 147.553 249.623 146.134C249.858 145.62 250.059 145.078 250.189 144.526C246.362 147.12 242.33 149.375 238.072 151.182C230.434 154.424 222.216 156.296 213.933 156.721C209.813 156.932 205.675 156.788 201.581 156.275C199.502 156.015 197.435 155.661 195.391 155.201L195.237 155.167C193.634 154.807 191.976 154.434 190.424 153.858C190.36 154.937 190.258 156.014 190.08 157.083C189.732 159.191 189.134 161.264 188.242 163.206C188.859 163.431 189.473 163.667 190.087 163.903C191.273 164.358 192.459 164.813 193.673 165.197C195.611 165.811 197.585 166.31 199.582 166.693C206.742 168.071 214.194 168.007 221.33 166.505C224.916 165.75 228.425 164.638 231.788 163.179C233.431 162.465 235.032 161.665 236.597 160.794C236.768 160.699 236.935 160.598 237.102 160.497C237.219 160.426 237.335 160.355 237.453 160.287C238.809 159.225 240.116 158.102 241.355 156.905C243.497 154.835 245.446 152.559 247.17 150.13Z" fill="#D2C5B6"/>
</svg>
