<svg width="64" height="64" viewBox="0 0 64 64" fill="none" xmlns="http://www.w3.org/2000/svg">
<g id="CalendarPlus">
<path id="Vector" d="M52 8H46V6C46 5.46957 45.7893 4.96086 45.4142 4.58579C45.0391 4.21071 44.5304 4 44 4C43.4696 4 42.9609 4.21071 42.5858 4.58579C42.2107 4.96086 42 5.46957 42 6V8H22V6C22 5.46957 21.7893 4.96086 21.4142 4.58579C21.0391 4.21071 20.5304 4 20 4C19.4696 4 18.9609 4.21071 18.5858 4.58579C18.2107 4.96086 18 5.46957 18 6V8H12C10.9391 8 9.92172 8.42143 9.17157 9.17157C8.42143 9.92172 8 10.9391 8 12V52C8 53.0609 8.42143 54.0783 9.17157 54.8284C9.92172 55.5786 10.9391 56 12 56H52C53.0609 56 54.0783 55.5786 54.8284 54.8284C55.5786 54.0783 56 53.0609 56 52V12C56 10.9391 55.5786 9.92172 54.8284 9.17157C54.0783 8.42143 53.0609 8 52 8ZM18 12V14C18 14.5304 18.2107 15.0391 18.5858 15.4142C18.9609 15.7893 19.4696 16 20 16C20.5304 16 21.0391 15.7893 21.4142 15.4142C21.7893 15.0391 22 14.5304 22 14V12H42V14C42 14.5304 42.2107 15.0391 42.5858 15.4142C42.9609 15.7893 43.4696 16 44 16C44.5304 16 45.0391 15.7893 45.4142 15.4142C45.7893 15.0391 46 14.5304 46 14V12H52V20H12V12H18ZM52 52H12V24H52V52ZM40 38C40 38.5304 39.7893 39.0391 39.4142 39.4142C39.0391 39.7893 38.5304 40 38 40H34V44C34 44.5304 33.7893 45.0391 33.4142 45.4142C33.0391 45.7893 32.5304 46 32 46C31.4696 46 30.9609 45.7893 30.5858 45.4142C30.2107 45.0391 30 44.5304 30 44V40H26C25.4696 40 24.9609 39.7893 24.5858 39.4142C24.2107 39.0391 24 38.5304 24 38C24 37.4696 24.2107 36.9609 24.5858 36.5858C24.9609 36.2107 25.4696 36 26 36H30V32C30 31.4696 30.2107 30.9609 30.5858 30.5858C30.9609 30.2107 31.4696 30 32 30C32.5304 30 33.0391 30.2107 33.4142 30.5858C33.7893 30.9609 34 31.4696 34 32V36H38C38.5304 36 39.0391 36.2107 39.4142 36.5858C39.7893 36.9609 40 37.4696 40 38Z" fill="#674941"/>
</g>
</svg>
