<svg width="64" height="64" viewBox="0 0 64 64" fill="none" xmlns="http://www.w3.org/2000/svg">
<g id="Maps">
<path id="Vector" d="M57.23 12.4225C56.9904 12.2359 56.7115 12.1062 56.4143 12.0434C56.1172 11.9806 55.8096 11.9863 55.515 12.06L40.2325 15.88L24.895 8.21003C24.4677 7.99688 23.9782 7.94368 23.515 8.06004L7.515 12.06C7.08232 12.1682 6.69821 12.4179 6.42371 12.7694C6.1492 13.1209 6.00007 13.554 6 14V50C6.00005 50.3039 6.06935 50.6038 6.20264 50.8769C6.33594 51.1501 6.52972 51.3892 6.76927 51.5762C7.00882 51.7632 7.28783 51.8932 7.58512 51.9562C7.88242 52.0193 8.19017 52.0137 8.485 51.94L23.7675 48.12L39.105 55.79C39.3834 55.9273 39.6896 55.9991 40 56C40.1635 55.9999 40.3264 55.9798 40.485 55.94L56.485 51.94C56.9177 51.8319 57.3018 51.5822 57.5763 51.2307C57.8508 50.8792 57.9999 50.446 58 50V14C58.0001 13.6958 57.9307 13.3957 57.7973 13.1223C57.6639 12.8489 57.4699 12.6096 57.23 12.4225ZM26 13.235L38 19.235V50.765L26 44.765V13.235ZM10 15.5625L22 12.5625V44.4375L10 47.4375V15.5625ZM54 48.4375L42 51.4375V19.5625L54 16.5625V48.4375Z" fill="#674941"/>
</g>
</svg>
