
<svg width="120" height="120" viewBox="0 0 120 120" fill="none" xmlns="http://www.w3.org/2000/svg">
<rect width="120" height="120" rx="32" fill="#F2F2F0"/>
<path fill-rule="evenodd" clip-rule="evenodd" d="M70.801 27.9002C83.165 35.0385 89.7774 48.3132 89.0123 61.6563C100.07 69.482 105.571 80.5882 101.428 87.7637C97.7218 94.1826 87.4332 95.4913 76.4952 91.6416C79.8739 89.4617 83.9541 84.8152 84.7838 83.8514C88.5046 84.596 91.3415 84.2014 92.3205 82.5056C93.6284 80.2403 91.2676 76.2646 86.7334 72.3963C86.0392 74.2355 85.1869 76.0429 84.1719 77.801C81.2179 82.9174 77.2131 87.0489 72.5875 90.0803C72.1454 89.8685 71.6944 89.6434 71.2375 89.4064C70.3822 88.9788 69.5286 88.5199 68.6797 88.0298C66.6207 86.841 64.7076 85.5369 62.96 84.152C62.9261 84.1258 62.8923 84.0996 62.8586 84.0733C62.8431 84.0612 62.8275 84.0491 62.812 84.037L62.8144 84.036C53.2029 76.3538 48.6696 66.2329 52.536 59.536C56.4025 52.8391 67.4341 51.7047 78.8929 56.1874C77.8772 48.2406 73.2932 40.843 65.8197 36.5281C53.1128 29.1918 36.8645 33.5455 29.5282 46.2524C22.1919 58.9593 26.5456 75.2076 39.2525 82.5439C45.3284 86.0518 52.2139 86.887 58.5477 85.4143C62.6021 89.0571 66.0365 91.1287 68.5182 92.3883C57.9819 97.5023 45.1777 97.4688 34.2711 91.1719C16.7991 81.0844 10.8127 58.7431 20.9002 41.2711C30.9876 23.7991 53.329 17.8127 70.801 27.9002ZM61.6433 64.7941C63.3195 61.8908 70.4417 62.8016 78.122 66.7135C77.5343 68.8029 76.679 70.8536 75.544 72.8196C74.4089 74.7857 73.0605 76.5517 71.5448 78.1054C64.3169 73.41 59.9671 67.6974 61.6433 64.7941ZM97.1504 24.0537C96.8363 23.1645 95.5787 23.1645 95.2646 24.0537L93.9806 27.689C93.8835 27.964 93.6711 28.1829 93.3991 28.2883L89.801 29.6832C88.9496 30.0132 88.9496 31.2179 89.801 31.548L93.3991 32.9428C93.6711 33.0482 93.8835 33.2671 93.9806 33.5421L95.2646 37.1774C95.5787 38.0667 96.8363 38.0667 97.1504 37.1774L98.4345 33.5421C98.5316 33.2671 98.744 33.0482 99.0159 32.9428L102.614 31.548C103.465 31.2179 103.465 30.0132 102.614 29.6832L99.0159 28.2883C98.744 28.1829 98.5316 27.964 98.4345 27.689L97.1504 24.0537Z" fill="#402015"/>
</svg>
