<svg width="96" height="96" viewBox="0 0 96 96" fill="none" xmlns="http://www.w3.org/2000/svg">
<g clip-path="url(#clip0_1_6)">
<path d="M70.4 0H25.6C11.4615 0 0 11.4615 0 25.6V70.4C0 84.5385 11.4615 96 25.6 96H70.4C84.5385 96 96 84.5385 96 70.4V25.6C96 11.4615 84.5385 0 70.4 0Z" fill="#F2F2F0"/>
<path fill-rule="evenodd" clip-rule="evenodd" d="M56.6408 22.3202C66.532 28.0308 71.8219 38.6506 71.2098 49.325C80.056 55.5856 84.4568 64.4706 81.1424 70.211C78.1774 75.3461 69.9466 76.393 61.1962 73.3133C63.8991 71.5694 67.1633 67.8522 67.827 67.0811C70.8037 67.6768 73.0732 67.3611 73.8564 66.0045C74.9027 64.1922 73.0141 61.0117 69.3867 57.917C68.8314 59.3884 68.1495 60.8343 67.3375 62.2408C64.9743 66.3339 61.7705 69.6391 58.07 72.0642C57.7163 71.8948 57.3555 71.7147 56.99 71.5251C56.3058 71.183 55.6229 70.8159 54.9438 70.4238C53.2966 69.4728 51.7661 68.4295 50.368 67.3216C50.3409 67.3006 50.3138 67.2797 50.2869 67.2586C50.2745 67.249 50.262 67.2393 50.2496 67.2296L50.2515 67.2288C42.5623 61.083 38.9357 52.9863 42.0288 47.6288C45.122 42.2713 53.9473 41.3638 63.1143 44.9499C62.3018 38.5925 58.6346 32.6744 52.6558 29.2225C42.4902 23.3534 29.4916 26.8364 23.6226 37.0019C17.7535 47.1674 21.2365 60.1661 31.402 66.0351C36.2627 68.8414 41.7711 69.5096 46.8382 68.3314C50.0817 71.2457 52.8292 72.903 54.8146 73.9106C46.3855 78.0018 36.1422 77.975 27.4169 72.9375C13.4393 64.8675 8.65016 46.9945 16.7202 33.0169C24.7901 19.0393 42.6632 14.2502 56.6408 22.3202ZM49.3146 51.8353C50.6556 49.5126 56.3534 50.2413 62.4976 53.3708C62.0274 55.0423 61.3432 56.6829 60.4352 58.2557C59.5271 59.8286 58.4484 61.2414 57.2358 62.4843C51.4535 58.728 47.9737 54.1579 49.3146 51.8353ZM77.7203 19.243C77.469 18.5316 76.463 18.5316 76.2117 19.243L75.1845 22.1512C75.1068 22.3712 74.9369 22.5463 74.7193 22.6306L71.8408 23.7466C71.1597 24.0106 71.1597 24.9743 71.8408 25.2384L74.7193 26.3542C74.9369 26.4386 75.1068 26.6137 75.1845 26.8337L76.2117 29.7419C76.463 30.4534 77.469 30.4534 77.7203 29.7419L78.7476 26.8337C78.8253 26.6137 78.9952 26.4386 79.2127 26.3542L82.0912 25.2384C82.772 24.9743 82.772 24.0106 82.0912 23.7466L79.2127 22.6306C78.9952 22.5463 78.8253 22.3712 78.7476 22.1512L77.7203 19.243Z" fill="#402015"/>
</g>
<defs>
<clipPath id="clip0_1_6">
<rect width="96" height="96" fill="white"/>
</clipPath>
</defs>
</svg>
