<svg width="388" height="389" viewBox="0 0 388 389" fill="none" xmlns="http://www.w3.org/2000/svg">
<path d="M260.85 326.731C257.608 323.431 253.832 320.584 249.473 318.945C244.54 317.09 239.175 316.93 233.986 317.5C229.048 318.042 224.159 319.157 219.351 320.378C214.896 321.51 210.488 322.829 206.156 324.365C197.51 327.429 189.149 331.362 181.447 336.363C173.877 341.278 166.979 347.269 161.321 354.32C160.625 355.189 159.947 356.074 159.289 356.973C158.925 357.469 159.34 358.01 159.803 358.068C159.324 358.567 158.843 359.062 158.376 359.572C158.139 359.829 158.548 360.229 158.811 360.001C159.165 359.695 159.51 359.378 159.861 359.067C159.955 359.117 160.069 359.131 160.198 359.081C167.228 356.324 173.646 352.302 180.458 349.081C183.883 347.462 187.418 346.044 191.098 345.117C194.914 344.156 198.84 343.672 202.772 343.554C210.819 343.313 218.82 344.616 226.666 346.271C234.687 347.963 242.605 350.119 250.665 351.638C258.733 353.159 267.003 354.055 275.203 353.173C276.223 353.063 277.239 352.923 278.251 352.759C278.785 352.672 279.057 352.031 278.716 351.598C272.382 343.585 268.055 334.064 260.85 326.731ZM179.452 339.351C186.805 334.189 194.879 330.104 203.251 326.873C211.826 323.564 220.788 321.038 229.843 319.443C234.969 318.542 240.273 318.067 245.411 319.147C250.041 320.119 254.166 322.504 257.695 325.608C265.186 332.196 269.569 341.347 275.249 349.374C275.293 349.438 275.34 349.499 275.385 349.563C274.197 348.904 273.005 348.254 271.79 347.639C269.632 346.545 267.475 345.452 265.316 344.358L252.475 337.853C244.578 333.85 236.646 329.649 228.006 327.483C219.693 325.399 211.075 325.881 202.881 328.27C194.619 330.678 187.019 334.909 180.107 339.98C173.472 344.85 167.404 350.468 161.575 356.268C166.621 349.744 172.701 344.091 179.452 339.351ZM253.437 350.727C245.248 349.358 237.22 347.221 229.116 345.447C221.29 343.736 213.311 342.379 205.279 342.355C201.328 342.344 197.376 342.652 193.501 343.427C189.737 344.181 186.097 345.399 182.583 346.934C175.672 349.955 169.282 354.022 162.438 357.176C162.131 357.318 161.822 357.45 161.513 357.589C163.8 355.498 166.037 353.348 168.325 351.259C171.503 348.355 174.761 345.535 178.164 342.899C184.886 337.692 192.198 333.211 200.255 330.396C208.246 327.603 216.754 326.616 225.099 328.261C233.633 329.944 241.463 333.934 249.157 337.837C253.399 339.988 257.639 342.14 261.881 344.292C266.087 346.426 270.266 348.627 274.524 350.654C275.172 350.962 275.829 351.251 276.486 351.539C268.818 352.574 261.05 352 253.437 350.727Z" fill="#E8E0D9"/>
<path d="M380.519 173.243C376.581 170.952 372.413 169.083 368.081 167.671C367.11 167.354 366.129 167.067 365.145 166.796C368.065 163.295 370.44 159.349 372.184 155.132C374.523 149.474 375.733 143.355 375.649 137.232C375.607 134.19 375.264 131.125 374.516 128.173C373.776 125.261 372.514 122.201 369.94 120.445C366.949 118.403 363.121 118.714 359.702 119.099C356.218 119.49 352.768 120.172 349.393 121.123C349.329 121.141 349.267 121.163 349.203 121.181C350.042 116.953 350.007 112.542 349.38 108.289C349.039 105.97 348.531 103.645 347.775 101.424C347.097 99.4363 346.073 97.5288 344.385 96.2223C341.262 93.8067 336.92 93.8831 333.216 94.493C329.237 95.1488 325.315 96.3382 321.59 97.8739C319.344 98.8009 317.167 99.8884 315.057 101.09C314.739 98.8658 313.322 96.8946 311.475 95.5996C308.962 93.8372 305.883 93.3304 302.889 93.8907C299.573 94.5108 296.55 96.221 293.89 98.2406C291.459 100.086 289.265 102.248 287.348 104.62C283.507 109.378 280.764 115.005 279.177 120.901C277.939 125.501 277.431 130.25 277.529 134.997C276.397 132.152 274.817 129.492 272.777 127.149C269.235 123.081 264.685 119.982 259.82 117.706C254.107 115.032 247.968 113.435 241.846 112.005C236.184 110.682 230.201 109.01 224.345 109.916C221.624 110.338 219.039 111.399 216.874 113.111C214.856 114.709 213.242 116.77 211.941 118.978C211.526 119.682 211.145 120.403 210.781 121.131C211.19 119.039 211.868 116.999 212.778 115.062C214.346 111.723 216.571 108.746 218.97 105.96C221.424 103.111 224.136 100.506 226.898 97.9604C227.026 97.8433 227.157 97.7299 227.285 97.6128C230.102 95.8695 232.97 94.2129 235.942 92.7408C237.972 91.7348 240.045 90.818 242.151 89.9827C242.172 90.1164 242.248 90.245 242.406 90.3418C246.655 92.9344 251.644 94.1441 256.611 93.7901C258.948 93.6233 261.561 93.2043 263.605 91.9959C265.464 90.897 266.946 88.5412 265.889 86.3866C264.797 84.1569 262.137 83.715 259.906 83.9544C257.345 84.2295 254.78 84.8369 252.287 85.4621C247.39 86.6922 242.612 88.368 238.024 90.478C235.771 91.5145 233.555 92.6555 231.406 93.9085C232.729 92.751 234.075 91.6189 235.431 90.4996C237.344 89.2836 239.125 87.8574 240.76 86.272C245.471 82.6976 250.376 79.3779 255.491 76.4122C256.86 75.6176 258.249 74.8586 259.646 74.1162C260.577 73.7813 261.509 73.4477 262.454 73.1497C264.122 72.6225 265.827 72.2087 267.547 71.8878C268.625 71.6866 269.711 71.544 270.8 71.4281C270.824 71.4803 270.842 71.5325 270.884 71.5835C273.109 74.2283 275.933 76.3358 279.122 77.6754C280.732 78.3515 282.577 79.0226 284.346 78.9538C285.884 78.894 287.497 78.0064 287.863 76.4122C288.253 74.7071 286.966 73.1714 285.655 72.2698C284.215 71.2791 282.53 70.743 280.82 70.4425C277.161 69.8007 273.276 69.9319 269.609 70.4336C268.201 70.6259 266.807 70.901 265.43 71.2384C269.431 69.3818 273.53 67.7404 277.723 66.3588C279.366 65.8176 281.021 65.335 282.683 64.888C282.708 64.8867 282.732 64.8867 282.759 64.8791C282.908 64.8307 283.058 64.7899 283.207 64.7428C284.598 64.3761 285.995 64.0437 287.398 63.7368C287.427 63.7738 287.447 63.8133 287.487 63.8476C290.515 66.3549 294.053 68.2638 297.817 69.4034C299.697 69.9726 301.635 70.361 303.589 70.5533C305.465 70.7379 307.458 70.8232 309.328 70.5482C310.981 70.305 312.68 69.3741 312.614 67.4793C312.546 65.54 310.848 64.3557 309.186 63.7598C305.925 62.5883 302.415 61.9821 298.934 61.7987C299.84 61.688 300.748 61.5836 301.658 61.4893C302.665 61.3849 303.669 61.2907 304.674 61.1684C305.022 61.1264 305.026 60.5687 304.667 60.5445C300.557 60.2605 296.37 60.7062 292.311 61.3353C288.202 61.9719 284.146 62.927 280.156 64.096C277.448 64.8893 274.776 65.8036 272.14 66.8121C272.531 66.5421 272.93 66.2811 273.308 65.9933C275.605 64.2437 277.65 62.0789 278.967 59.4901C279.578 58.2893 280.223 56.8198 280.13 55.4433C280.043 54.161 279.079 53.2721 277.822 53.1486C275.199 52.8901 272.889 55.0587 271.688 57.1674C270.013 60.1115 269.946 63.677 270.14 66.9929C269.685 67.2794 269.233 67.5685 268.771 67.8435C268.108 68.2383 267.447 68.6292 266.786 69.0227C263.539 70.4603 260.353 72.0381 257.244 73.7546C253.014 76.0925 248.921 78.666 244.956 81.4268C245.153 81.1568 245.351 80.8856 245.541 80.6105C245.853 80.6373 246.162 80.3253 246.03 79.956C246.023 79.9382 246.016 79.9216 246.009 79.9051C246.879 78.5846 247.674 77.2182 248.374 75.8175C249.227 74.1137 249.944 72.3462 250.518 70.5291C251.118 68.633 251.681 66.4021 250.581 64.5748C249.688 63.09 247.84 62.2292 246.237 63.1524C244.678 64.0488 243.986 66.0226 243.54 67.6601C242.961 69.7867 242.795 72.0101 243.056 74.2003C243.189 75.3056 243.437 76.3969 243.781 77.4551C244.041 78.2535 244.341 79.0799 244.782 79.807C243.861 81.1708 242.85 82.4722 241.762 83.7061C240.171 84.8751 238.601 86.0734 237.053 87.3009C233.843 89.8451 230.726 92.5053 227.693 95.257C224.833 97.8535 222.017 100.521 219.413 103.377C216.855 106.183 214.57 109.197 212.738 112.529C211.023 115.649 209.744 119.125 209.576 122.71C209.56 123.064 209.561 123.418 209.562 123.771C209.49 123.944 209.413 124.116 209.342 124.289C207.657 116.798 201.008 111.069 194.637 107.288C192.588 106.072 190.481 104.959 188.357 103.882C186.226 102.802 184.093 101.619 181.805 100.905C179.608 100.219 177.363 100.088 175.145 100.749C173.081 101.364 171.2 102.58 169.67 104.083C168.473 105.258 167.479 106.604 166.604 108.033C168.757 100.938 171.576 94.0881 175.19 87.5938C176.883 84.5491 178.751 81.6038 180.745 78.7463C181.092 78.3885 181.438 78.0319 181.785 77.6728C181.872 77.6639 181.963 77.6219 182.047 77.5366C182.607 76.9725 183.129 76.374 183.645 75.7691C183.721 75.6927 183.797 75.6163 183.873 75.5399C193.143 69.1169 204.727 67.2692 215.172 63.3154C217.127 62.5742 220.736 61.1544 219.66 58.3746C218.724 55.9564 215.094 56.1475 213.036 56.2417C206.965 56.5206 201.129 58.9145 196.137 62.2916C193.816 63.8617 191.661 65.6635 189.627 67.5888C189.801 67.3966 189.969 67.2005 190.143 67.0107C196.043 60.5738 202.604 54.7671 209.616 49.5679C210.846 48.6549 212.095 47.7673 213.349 46.8899C218.217 44.3546 223.269 42.1873 228.477 40.4771C228.447 40.7738 228.598 41.1062 228.97 41.1877C234.197 42.3236 239.638 42.4993 244.926 41.6703C247.489 41.2679 250.027 40.644 252.486 39.8137C253.578 39.4444 254.779 39.1057 255.644 38.3022C256.335 37.6617 256.758 36.6672 256.144 35.8153C255.563 35.0092 254.491 34.9494 253.586 34.9735C252.267 35.0092 250.946 35.0971 249.631 35.2053C247.03 35.418 244.439 35.7452 241.867 36.1833C236.72 37.0606 231.628 38.3722 226.712 40.1359C223.614 41.2475 220.583 42.5298 217.639 43.9879C222.701 40.6745 227.931 37.6171 233.28 34.7889C241.489 30.4492 249.972 26.722 258.5 23.0648C259.557 22.6115 260.583 22.0894 261.621 21.5953C262.16 21.3394 261.813 20.5741 261.259 20.7549C256.783 22.2142 252.461 24.0695 248.164 25.9847C243.87 27.8986 239.619 29.9144 235.434 32.055C234.395 32.586 233.361 33.1246 232.329 33.6722C237.087 29.9169 241.378 25.6231 244.612 20.4417C245.921 18.3457 247.053 16.1338 247.923 13.82C248.351 12.6842 248.71 11.5254 249.011 10.3488C249.272 9.32369 249.711 8.05795 249.38 7.00486C249.026 5.88046 247.83 5.65634 246.873 6.17334C245.859 6.72089 245.008 7.66956 244.21 8.4858C242.563 10.1679 241.118 12.0436 239.903 14.0594C238.511 16.3681 237.404 18.8397 236.645 21.4272C236.273 22.693 235.974 23.9804 235.762 25.2831C235.543 26.6265 235.328 28.026 235.514 29.3821C235.525 29.4687 235.556 29.54 235.594 29.5998C235.174 29.9959 234.747 30.3868 234.317 30.7714C232.035 32.8063 229.626 34.6921 227.167 36.5093C221.735 39.5832 216.437 42.9004 211.36 46.5283C207.601 49.2151 203.957 52.0688 200.463 55.0957C200.474 55.06 200.489 55.0256 200.492 54.9849C200.5 54.897 200.493 54.8091 200.497 54.7213C205.352 48.4562 209.371 41.4958 210.724 33.6734C210.964 32.2816 211.109 30.8732 211.146 29.4611C211.181 28.1813 211.214 26.8162 210.948 25.5581C210.757 24.6489 210.372 23.6519 209.567 23.1158C208.679 22.5224 207.604 22.8012 206.869 23.5016C205.97 24.3586 205.337 25.5658 204.712 26.6265C204.04 27.7675 203.417 28.9364 202.854 30.1347C201.745 32.4955 200.864 34.9583 200.204 37.4809C199.45 40.3664 198.982 43.3244 198.839 46.3042C198.769 47.7596 198.773 49.2189 198.851 50.6744C198.903 51.6473 198.935 52.6685 199.118 53.6427C199.081 54.0922 199.043 54.5417 199.033 54.99C199.031 55.0231 199.053 55.0409 199.061 55.0689C197.865 56.6224 196.645 58.1594 195.425 59.6951C193.981 61.0857 192.564 62.5055 191.19 63.9673C185.332 70.1955 180.073 77.0183 175.709 84.3759C171.378 91.6775 167.873 99.5522 165.819 107.806C165.787 107.934 165.759 108.062 165.73 108.19C164.375 102.746 163.151 97.2843 162.388 91.7183C161.561 85.6786 161.124 79.5765 161.129 73.4795C161.13 72.4634 161.165 71.4498 161.191 70.4349C161.437 69.8491 161.702 69.2723 161.977 68.7005C162.07 68.7897 162.239 68.8062 162.307 68.6509C163.008 67.0528 163.797 65.5056 164.623 63.9826C167.906 58.861 172.139 54.3023 176.371 49.955C183.523 42.6088 191.134 35.1455 194.549 25.2169C195.353 22.8815 195.914 20.4518 196.122 17.9891C196.319 15.6512 196.314 13.1057 195.607 10.8467C194.935 8.69974 193.202 7.15893 190.894 7.14365C188.656 7.12837 186.557 8.19037 184.744 9.41537C184.396 9.64967 184.059 9.89544 183.72 10.1399C180.77 6.70051 176.983 4.07478 172.803 2.33024C168.58 0.567873 163.863 -0.355328 159.288 0.127286C154.71 0.6099 150.424 2.70716 147.946 6.70178C147.426 7.53967 147.003 8.4234 146.626 9.32751C143.344 6.64066 138.89 5.84861 134.755 6.34524C129.87 6.93227 125.375 9.18362 121.029 11.3509C113.275 15.2182 105.041 19.6954 100.49 27.4045C99.2091 29.5744 98.2847 32.0167 98.2936 34.5648C98.2999 36.4851 98.8068 38.8345 100.213 40.2721C95.9327 41.7543 92.0833 44.3699 89.2703 48.0971C86.9617 51.1545 85.4145 54.8282 85.0223 58.6509C84.6403 62.3832 85.4209 66.2111 87.196 69.5142C88.9596 72.7958 91.6465 75.5641 95.0133 77.2017C99.0334 79.1563 103.614 79.3906 108.002 79.1092C112.769 78.8036 117.531 78.0548 122.247 77.3239C127.198 76.5573 132.131 75.6698 137.035 74.6409C137.332 74.5785 137.623 74.5085 137.918 74.4422C138.789 74.4079 139.658 74.3862 140.528 74.3327C143.63 74.1417 146.726 73.831 149.803 73.3993C151.978 73.095 154.31 72.6658 156.477 73.2491C156.663 73.2987 156.84 73.365 157.015 73.4337C157.319 73.924 157.595 74.4371 157.828 74.986C158.063 75.5386 158.8 75.2814 158.816 74.7784C159.135 75.7462 159.485 76.705 159.726 77.6995C159.866 78.2815 159.971 78.8698 160.058 79.4619C160.515 88.3145 161.893 97.1085 164.191 105.681C164.474 106.737 164.794 107.781 165.129 108.82C163.52 108.732 161.903 108.749 160.296 108.808C158.181 108.887 156.07 109.067 153.972 109.36C149.755 109.948 145.585 110.992 141.633 112.589C134.268 115.566 127.785 120.589 123.514 127.336C121.493 130.529 119.983 134.023 119.192 137.725C118.412 141.373 118.44 145.123 119.084 148.784C118.972 148.776 118.861 148.913 118.944 149.036C119.026 149.158 119.117 149.273 119.2 149.394C119.241 149.604 119.275 149.815 119.321 150.025C120.285 154.51 122.044 158.776 123.96 162.929C125.675 166.642 127.447 170.341 129.372 173.951C132.992 180.738 137.382 187.366 143.718 191.909C144.213 192.264 144.743 192.576 145.278 192.879C144.684 192.917 144.09 192.963 143.496 193.02C141.712 192.709 139.91 192.494 138.111 192.307C135.591 192.045 133.056 191.906 130.523 191.841C125.408 191.71 120.285 191.931 115.202 192.512C105.023 193.675 94.9968 196.238 85.5164 200.122C80.6177 202.129 75.8819 204.509 71.3258 207.203C71.7281 206.069 72.2031 204.961 72.7889 203.897C74.8645 200.126 78.2339 197.361 81.863 195.156C89.2321 190.677 97.6314 187.788 106.125 186.414C114.704 185.027 123.498 185.216 132.021 186.908C134.125 187.326 136.209 187.845 138.265 188.458C138.866 188.636 139.252 187.743 138.642 187.543C138.367 187.453 138.088 187.38 137.812 187.294C135.971 184.285 133.094 182.18 130.18 180.271C127.042 178.214 123.899 176.213 120.973 173.853C117.551 171.095 114.392 168.038 111.467 164.766C111.606 164.68 111.728 164.564 111.785 164.426C111.956 164.025 111.729 163.665 111.388 163.47C111.239 163.386 111.089 163.299 110.94 163.215C110.997 162.058 110.961 160.891 110.956 159.735C110.95 158.249 110.936 156.764 110.913 155.278C110.866 152.309 110.765 149.338 110.584 146.373C110.223 140.438 109.524 134.503 108.136 128.714C106.767 123.005 104.682 117.489 101.771 112.384C98.9455 107.427 95.4412 102.899 91.5981 98.6926C89.4372 96.3267 87.1667 94.0639 84.8415 91.8596C82.7735 89.8999 80.661 87.9707 78.4529 86.1663C78.3841 85.9155 78.3167 85.6633 78.2466 85.4125C78.1728 85.1489 77.8455 85.1132 77.7131 85.2724C77.7118 85.1565 77.7156 85.0419 77.7131 84.926C77.7067 84.4918 77.0496 84.5478 76.9809 84.9349C76.3913 88.2636 76.4588 91.7794 76.5479 95.1501C76.6383 98.592 76.8828 102.028 77.1986 105.456C77.7844 111.8 78.4351 118.177 79.436 124.471C80.3592 130.275 81.7421 136.096 84.3933 141.374C86.9362 146.438 90.6532 150.7 94.9713 154.332C99.2881 157.964 104.099 160.937 108.975 163.756C109.209 164.031 109.436 164.313 109.674 164.585C109.713 164.657 109.766 164.717 109.828 164.762C109.843 164.78 109.86 164.797 109.876 164.816C109.883 164.831 109.889 164.846 109.894 164.862C109.957 165.017 110.062 165.107 110.182 165.155C112.517 167.794 115.008 170.295 117.669 172.599C120.501 175.049 123.513 177.275 126.68 179.273C129.83 181.262 133.146 183.13 135.795 185.792C136.193 186.192 136.575 186.607 136.947 187.031C128.984 184.653 120.659 183.77 112.359 184.338C103.49 184.946 94.6988 187.226 86.6714 191.048C82.7302 192.925 78.77 195.116 75.5852 198.142C72.4221 201.146 70.3924 204.928 69.3049 209.131C68.2072 213.375 68.0277 217.788 68.0863 222.151C68.1537 227.087 68.6045 232.018 69.4335 236.883C70.9756 245.926 73.6981 255.037 78.0874 263.125C81.3218 269.085 85.6743 274.512 91.388 278.125C91.3307 278.135 91.2734 278.141 91.2161 278.151C91.0212 278.186 91.006 278.503 91.2199 278.514C91.5013 278.528 91.784 278.532 92.0667 278.538C93.1045 279.157 94.1818 279.724 95.3087 280.217C99.5046 282.05 104.062 282.962 108.604 283.385C113.243 283.817 117.937 283.808 122.581 283.457C131.91 282.753 141.135 280.549 149.779 276.971C155.543 274.585 161.033 271.559 166.154 267.999C166.053 268.261 165.956 268.523 165.86 268.785C165.539 269.66 165.211 270.53 164.873 271.397C164.792 271.602 164.851 271.824 164.978 271.994C162.909 275.305 160.958 278.691 159.134 282.142C154.98 289.996 151.461 298.183 148.589 306.591C145.717 314.994 143.486 323.62 141.936 332.365C141.281 336.064 140.761 339.788 140.351 343.524C140.137 340.387 139.829 337.257 139.402 334.151C138.514 327.682 137.076 321.283 134.758 315.17C132.604 309.488 129.698 304.049 125.912 299.282C122.252 294.672 117.743 290.778 112.706 287.741C102.561 281.624 90.6965 278.892 78.9075 279.082C65.5318 279.297 52.3917 283.121 40.2856 288.641C27.8357 294.318 16.3128 301.785 4.9733 309.386C3.59804 310.308 2.26225 311.238 0.969761 312.273C0.848789 312.37 0.788939 312.501 0.776205 312.636C0.651413 312.63 0.526623 312.624 0.400558 312.616C0.0911246 312.594 -0.0374875 312.893 0.0554699 313.107C-0.131718 313.424 0.178986 313.918 0.625945 313.763C0.897177 313.669 1.16586 313.571 1.4371 313.475C6.01875 314.132 10.6921 314.024 15.2954 313.667C20.3316 313.276 25.3284 312.51 30.3099 311.695C40.2704 310.065 50.3238 308.145 60.4637 308.566C65.6108 308.78 70.6738 309.67 75.5865 311.222C80.5476 312.79 85.3152 314.908 89.9745 317.207C99.2677 321.794 108.225 327.052 116.774 332.908C120.94 335.762 125.053 338.728 128.971 341.915C132.457 344.751 135.861 347.943 138.045 351.926C138.582 352.906 139.036 353.924 139.413 354.976C139.424 355.007 139.444 355.023 139.457 355.05C139.404 356.322 139.36 357.595 139.336 358.868C139.173 367.727 139.64 376.649 141.13 385.392C141.315 386.476 141.544 387.552 141.77 388.627C141.863 389.068 142.518 388.978 142.466 388.523C141.479 379.751 140.72 370.96 140.748 362.124C140.778 353.31 141.481 344.5 142.853 335.794C144.222 327.114 146.244 318.535 148.911 310.164C151.575 301.799 154.879 293.641 158.782 285.776C161.387 280.526 164.297 275.456 167.418 270.51C168.67 269.253 169.922 267.996 171.17 266.734C171.864 266.032 172.747 265.27 173.427 264.408C172.387 269.771 172.861 275.51 174.021 280.73C174.885 284.62 176.154 288.419 177.697 292.091C179.117 295.471 180.758 298.771 182.779 301.835C184.774 304.859 187.188 307.637 190.068 309.851C192.952 312.068 196.278 313.671 199.755 314.719C206.935 316.885 214.567 316.898 221.983 316.339C229.753 315.753 237.466 314.429 244.985 312.385C252.53 310.334 259.882 307.579 266.886 304.102C267.007 304.042 267.127 303.977 267.248 303.916C267.501 304.037 267.862 303.862 267.951 303.555C271.061 301.971 274.103 300.252 277.057 298.393C280.15 296.446 283.295 294.418 285.94 291.876C288.511 289.405 290.545 286.367 290.973 282.755C291.453 278.7 290.03 274.679 288.307 271.075C285.986 266.218 283.216 261.54 280.168 257.073C282.278 257.391 284.438 257.531 286.565 257.535C288.734 257.539 290.91 257.392 293.029 256.91C296.738 256.067 300.286 254.252 302.622 251.175C304.866 248.216 305.79 244.502 306.117 240.86C306.49 236.709 306.228 232.486 305.986 228.335C305.833 225.707 305.634 223.081 305.383 220.462C305.315 219.742 305.232 219.024 305.156 218.305C307.751 223.005 311.231 227.276 315.013 230.995C320.328 236.221 326.658 240.412 333.538 243.277C340.865 246.328 348.81 247.908 356.747 247.848C360.049 247.823 363.588 247.706 366.613 246.222C367.969 245.558 369.211 244.6 370.004 243.296C370.999 241.662 371.213 239.76 370.964 237.889C370.694 235.848 369.962 233.883 369.292 231.948C368.583 229.897 367.841 227.859 367.066 225.832C365.529 221.811 363.863 217.84 362.072 213.925C361.677 213.063 361.273 212.205 360.862 211.349C365.31 209.062 369.492 206.251 373.284 202.996C374.037 202.517 374.769 202.009 375.399 201.381C375.508 201.273 375.529 201.121 375.495 200.99C378.091 198.543 380.499 195.893 382.648 193.043C383.834 191.469 384.975 189.839 385.972 188.137C387.068 186.265 388.021 184.19 388 181.976C387.967 177.602 383.862 175.188 380.519 173.243ZM264.886 87.1392C264.896 87.1672 264.91 87.1939 264.919 87.2232C265.222 88.2076 264.798 89.2734 264.15 90.0209C262.688 91.7056 259.971 92.1538 257.877 92.4352C253.214 93.063 248.378 92.1652 244.233 89.9394C251.122 90.0043 258.039 88.9538 264.691 87.2283C264.769 87.2092 264.831 87.1761 264.886 87.1392ZM248.998 87.6027C251.25 86.9278 253.535 86.356 255.84 85.8836C256.983 85.6493 258.132 85.4303 259.286 85.2559C260.479 85.0763 261.767 84.9439 262.926 85.3666C263.456 85.5602 263.972 85.8671 264.359 86.2834C257.64 88.1923 250.741 89.0607 243.783 89.3765C245.505 88.7322 247.239 88.1299 248.998 87.6027ZM277.829 71.2791C279.369 71.3835 280.931 71.5605 282.408 72.0291C283.844 72.4863 285.39 73.2223 286.272 74.497C286.469 74.781 286.621 75.1044 286.691 75.438C286.378 75.1948 286.032 74.9783 285.752 74.7809C285.19 74.3862 284.608 74.0207 284.012 73.682C282.774 72.9778 281.471 72.3984 280.118 71.954C279.264 71.6726 278.384 71.4408 277.494 71.2626C277.606 71.2689 277.718 71.2715 277.829 71.2791ZM279.908 72.6977C281.17 73.1281 282.394 73.6757 283.554 74.3327C284.142 74.6664 284.713 75.0318 285.264 75.424C285.693 75.7284 286.127 76.1715 286.596 76.4555C286.584 76.4809 286.578 76.5077 286.564 76.5331C286.265 77.1125 285.647 77.5022 285.028 77.6613C283.446 78.0676 281.622 77.343 280.164 76.7623C277.263 75.6074 274.652 73.789 272.542 71.4931C275.04 71.6 277.524 71.884 279.908 72.6977ZM306.088 64.0043C307.016 64.2373 307.948 64.4945 308.846 64.8256C309.652 65.1236 310.49 65.5196 311.016 66.2276C311.38 66.7166 311.6 67.3838 311.45 67.9823C307.976 66.2543 304.203 65.0306 300.417 64.2195C297.061 63.5 293.642 63.1129 290.215 63.2058C295.497 62.4762 300.902 62.6991 306.088 64.0043ZM300.217 65.0459C303.95 65.8672 307.491 67.1737 310.952 68.7706C310.527 69.1347 309.933 69.3092 309.396 69.4047C307.701 69.7065 305.885 69.6097 304.179 69.4505C302.391 69.2837 300.613 68.9539 298.888 68.4548C295.488 67.4704 292.303 65.9016 289.473 63.7954C293.079 63.9228 296.69 64.2691 300.217 65.0459ZM279.04 55.3631C279.078 55.5452 279.098 55.7425 279.078 55.9692C278.964 57.212 278.357 58.4739 277.762 59.5538C276.531 61.7911 274.718 63.6719 272.711 65.228C272.407 65.4636 272.087 65.6762 271.771 65.8952C273.307 64.3748 274.685 62.7003 275.902 60.9125C276.592 59.8976 277.23 58.8483 277.816 57.771C278.124 57.2056 278.416 56.6314 278.693 56.0507C278.798 55.8317 278.925 55.5999 279.04 55.3631ZM272.095 58.8088C272.911 56.7612 274.62 54.6054 276.931 54.2348C277.534 54.138 278.087 54.2234 278.483 54.4933C278.295 54.832 278.18 55.2293 278.026 55.577C277.778 56.1373 277.51 56.6886 277.231 57.2337C276.646 58.3784 275.997 59.4901 275.291 60.5636C274.095 62.382 272.719 64.0667 271.245 65.666C271.196 63.3421 271.221 61.0003 272.095 58.8088ZM249.726 65.3693C250.577 67.077 249.782 69.2251 249.213 70.8984C248.672 72.4888 248.022 74.0436 247.276 75.5475C246.916 76.2733 246.517 76.9775 246.103 77.6741C247.575 73.3255 248.277 68.6598 248.477 64.0985C249.018 64.3583 249.464 64.8447 249.726 65.3693ZM244.305 74.9159C243.995 73.1561 243.976 71.3555 244.265 69.5906C244.528 67.9811 244.993 66.1257 246.033 64.8269C246.45 64.3061 247.034 63.8935 247.704 63.9011C247.616 66.4453 247.35 68.9781 246.893 71.4829C246.483 73.7253 245.892 75.9181 245.25 78.1007C245.166 77.9058 245.075 77.7136 245.002 77.5136C244.693 76.6694 244.462 75.7997 244.305 74.9159ZM238.499 37.8017C243.268 36.825 248.109 36.2419 252.972 36.0432C253.545 36.0203 255.539 35.7796 255.393 36.8429C255.37 37.0059 255.297 37.1485 255.206 37.2835C254.276 37.3522 253.332 37.5738 252.417 37.7012C251.356 37.8489 250.294 37.9826 249.23 38.1099C247.067 38.3671 244.9 38.5811 242.729 38.7517C240.593 38.921 238.455 39.0509 236.316 39.1413C235.247 39.1872 234.177 39.2165 233.106 39.2559C232.901 39.2636 232.696 39.2687 232.491 39.2738C234.475 38.716 236.475 38.2156 238.499 37.8017ZM230.362 39.9003C232.32 40.1002 234.364 39.9461 236.317 39.871C238.494 39.7869 240.669 39.6622 242.841 39.4966C245.012 39.3324 247.182 39.1299 249.347 38.8918C250.411 38.7746 251.475 38.646 252.538 38.511C252.767 38.4817 253.001 38.4575 253.236 38.4333C253.152 38.4626 253.068 38.4919 252.996 38.5174C250.638 39.368 248.21 39.9983 245.735 40.4045C240.415 41.2794 234.969 41.18 229.687 40.104C229.911 40.0327 230.136 39.9691 230.362 39.9003ZM248.154 7.04306C247.974 7.60208 247.865 8.19674 247.7 8.75194C247.472 9.52234 247.225 10.2876 246.955 11.044C246.428 12.5301 245.819 13.9868 245.129 15.4041C243.736 18.2641 242.029 20.9701 240.056 23.466C239.521 24.1421 238.966 24.803 238.392 25.4448C238.135 25.7326 237.863 26.0114 237.593 26.2916C237.756 25.8115 237.886 25.3136 238.048 24.8692C238.396 23.9205 238.764 22.9795 239.153 22.0474C239.931 20.1831 240.793 18.3558 241.742 16.5718C243.53 13.2101 245.626 10.0139 247.927 6.98065C248.007 6.98447 248.087 6.99722 248.154 7.04306ZM237.593 22.7452C238.131 20.6034 238.922 18.5163 239.906 16.5413C240.895 14.5586 242.108 12.688 243.507 10.9702C244.202 10.1183 244.942 9.30076 245.73 8.53418C245.957 8.31516 246.641 7.58296 247.267 7.20349C243.628 11.8845 240.639 17.0723 238.323 22.5262C237.978 23.3399 237.649 24.1599 237.335 24.9864C237.228 25.2665 237.107 25.5568 236.992 25.851C237.14 24.8055 237.337 23.7677 237.593 22.7452ZM236.782 27.8018C236.801 27.7955 236.82 27.8006 236.84 27.7865C237.46 27.3472 237.986 26.7538 238.508 26.205C239.082 25.6014 239.638 24.98 240.177 24.3446C241.215 23.1183 242.18 21.8309 243.072 20.4951C244.737 18.0006 246.125 15.3175 247.242 12.5326C247.112 12.9108 246.983 13.2903 246.839 13.6647C245.996 15.8587 244.924 17.9624 243.673 19.9514C241.705 23.0763 239.332 25.9223 236.713 28.5213C236.741 28.2819 236.761 28.0412 236.782 27.8018ZM200.236 51.2997C200.223 51.1507 200.219 51.003 200.208 50.854C200.31 50.1472 200.417 49.4418 200.545 48.7389C200.931 46.6416 201.402 44.5583 201.961 42.5005C203.069 38.4206 204.498 34.4196 206.234 30.5651C207.042 28.7709 207.927 27.0085 208.854 25.2716C208.775 25.8879 208.746 26.5183 208.675 27.1206C208.559 28.1087 208.421 29.093 208.262 30.0748C207.934 32.0995 207.494 34.1076 206.968 36.0903C205.952 39.9283 204.548 43.6924 202.876 47.2923C202.1 48.9617 201.228 50.5879 200.33 52.1974C200.296 51.8982 200.261 51.5989 200.236 51.2997ZM209.888 25.4155C209.902 25.4664 209.92 25.5199 209.932 25.5683C210.213 26.7131 210.191 27.9788 210.171 29.1503C210.148 30.4658 210.03 31.7799 209.831 33.0813C209.021 38.362 206.87 43.3614 204.098 47.8997C202.971 49.7461 201.737 51.5162 200.452 53.2505C200.441 53.1321 200.426 53.0137 200.412 52.8952C204.565 46.2711 207.353 38.7632 208.923 31.1241C209.156 29.9908 209.369 28.8549 209.548 27.7127C209.663 26.9792 209.827 26.1897 209.888 25.4155ZM200.792 40.2976C201.694 35.4078 203.483 30.6529 206.072 26.4062C206.369 25.9198 206.669 25.4346 206.994 24.966C207.311 24.5063 207.721 23.918 208.311 23.8098C208.586 23.7588 208.817 23.8289 209.017 23.9613C204.721 31.2209 201.747 39.2356 200.093 47.5024C200.121 45.0868 200.356 42.6737 200.792 40.2976ZM217.934 60.5381C216.94 61.4498 215.536 61.8637 214.299 62.3234C208.415 64.5111 202.298 65.9908 196.387 68.1033C195.647 68.3682 194.912 68.6508 194.181 68.9399C199.403 66.2174 204.832 63.9151 210.449 62.0534C213 61.2079 215.575 60.4311 218.177 59.7524C218.451 59.6811 218.561 59.4366 218.546 59.2125C218.571 59.6709 218.359 60.1472 217.934 60.5381ZM194.564 64.9275C199.148 61.3862 204.481 58.6586 210.245 57.7456C211.667 57.5202 213.112 57.4068 214.553 57.431C215.127 57.4412 215.739 57.4565 216.332 57.5533C211.019 58.4332 205.829 60.0389 200.947 62.3107C197.145 64.0794 193.526 66.234 190.167 68.7387C191.569 67.3991 193.027 66.1143 194.564 64.9275ZM192.881 67.9874C197.646 64.7046 202.887 62.1362 208.397 60.37C211.513 59.3717 214.713 58.6458 217.954 58.1887C217.959 58.1874 217.963 58.1849 217.968 58.1836C218.327 58.4548 218.507 58.7936 218.543 59.1463C218.501 58.9196 218.326 58.735 218.04 58.8126C208.848 61.3123 200.025 65.0472 191.718 69.7052C190.826 70.2057 189.947 70.7303 189.07 71.2562C188.579 71.5109 188.093 71.7732 187.613 72.0432C189.294 70.6004 191.054 69.2468 192.881 67.9874ZM194.595 12.623C194.776 13.7895 194.842 14.9814 194.822 16.1618C194.778 18.5621 194.387 20.9599 193.709 23.2609C190.84 33.0023 183.692 40.4771 176.781 47.5712C175.211 49.1833 173.623 50.8183 172.07 52.4966C173.607 50.4019 175.185 48.3365 176.766 46.2813C182.086 39.368 187.454 32.3771 190.957 24.3268C192.682 20.3614 194.004 16.0727 194.418 11.738C194.489 12.0322 194.549 12.3289 194.595 12.623ZM193.451 9.66878C193.557 9.79357 193.636 9.93491 193.724 10.0712C193.693 10.1221 193.672 10.1832 193.667 10.2584C193.321 14.6083 192.34 18.7722 190.706 22.8216C189.076 26.8608 186.935 30.6746 184.575 34.328C179.803 41.7123 174.025 48.3721 169.066 55.6241C168.79 56.029 168.526 56.4416 168.255 56.8504C166.682 58.7694 165.215 60.7622 163.919 62.8557C163.893 62.8226 163.872 62.7831 163.837 62.7614C163.932 62.4737 164.021 62.1859 164.123 61.8994C164.859 59.839 165.737 57.8322 166.725 55.8801C168.716 51.9466 171.13 48.2448 173.649 44.6335C178.692 37.4083 184.249 30.4785 188.122 22.516C190.219 18.2056 191.764 13.6074 192.352 8.83852C192.756 9.02189 193.13 9.28804 193.451 9.66878ZM187.901 9.21419C188.993 8.74176 190.329 8.38902 191.521 8.58894C190.561 17.3995 186.183 25.3162 181.313 32.5528C176.396 39.8621 170.796 46.7346 166.692 54.5659C165.139 57.5304 163.734 60.7049 162.815 63.9801C162.666 64.2551 162.519 64.5314 162.378 64.8116C162.311 64.8205 162.247 64.8511 162.214 64.9402C162.111 65.2254 161.995 65.5069 161.885 65.7895C162.037 63.8464 162.206 61.8994 162.404 59.9536C162.582 59.2826 162.763 58.6115 162.969 57.9468C164.035 54.529 165.432 51.2245 166.939 47.9812C169.985 41.4233 173.53 35.0754 175.984 28.2564C177.342 24.4834 178.357 20.5817 178.714 16.5795C178.721 16.5145 178.709 16.4572 178.694 16.4037C179.869 15.1533 181.117 13.9703 182.442 12.8675C184.109 11.4834 185.899 10.0801 187.901 9.21419ZM162.802 56.3779C163.197 53.1333 163.695 49.9015 164.346 46.704C164.391 46.5283 164.433 46.3525 164.455 46.1717C164.455 46.1679 164.455 46.1641 164.456 46.1615C165.255 42.3477 166.279 38.5862 167.623 34.915C169.924 28.6372 173.221 22.6089 177.638 17.5638C176.9 24.3802 174.309 30.7968 171.419 36.9689C168.422 43.3754 165.043 49.6506 162.802 56.3779ZM170.949 2.9109C175.499 4.53065 179.603 7.26081 183.012 10.6709C176.23 15.8091 171.198 23.0368 167.81 30.7905C167.803 30.807 167.796 30.8249 167.789 30.8414C169.547 24.5674 170.6 18.0846 170.93 11.6132C171.078 8.71373 171.08 5.8104 170.949 2.9109ZM157.827 1.58276C161.893 0.800896 166.154 1.35101 170.074 2.61931C170.043 2.6868 170.02 2.76192 170.024 2.85105C170.501 13.3221 169.2 23.9193 166.142 33.9472C165.539 35.926 164.86 37.8858 164.147 39.8315C164.147 39.8277 164.146 39.8251 164.146 39.8213C164.562 36.1718 164.582 32.4675 164.302 28.8205C163.839 22.7859 162.475 16.7896 160.274 11.151C159.051 8.01592 157.521 5.00564 155.767 2.1367C156.443 1.91258 157.129 1.71774 157.827 1.58276ZM147.993 9.23074C148.907 7.21242 150.21 5.38383 151.995 4.04804C152.876 3.38843 153.848 2.86507 154.865 2.45376C154.872 2.53271 154.891 2.61166 154.94 2.69188C161.2 12.8102 164.256 24.7966 163.646 36.6761C163.643 36.7499 163.635 36.8225 163.631 36.8964C163.234 35.0792 162.712 33.2876 162.065 31.5456C160.22 26.5806 157.35 21.9723 153.692 18.1381C151.643 15.9886 149.368 14.0976 146.784 12.6281C147.106 11.4681 147.496 10.3284 147.993 9.23074ZM146.647 13.1553C150.75 16.2433 154.384 19.8253 157.167 24.1638C159.951 28.5035 161.885 33.4226 162.764 38.5034C162.898 39.2776 162.994 40.0569 163.076 40.8388C162.993 40.6936 162.91 40.5523 162.837 40.4186C162.481 39.7781 162.089 39.1592 161.656 38.5683C160.748 37.3293 159.676 36.21 158.515 35.2079C156.028 33.0609 153.093 31.4717 150.075 30.2047C148.361 29.4852 146.616 28.8817 144.849 28.315C144.844 26.8162 144.886 25.3187 144.985 23.8289C145.164 21.1407 145.513 18.4628 146.033 15.8192C146.21 14.9266 146.415 14.0378 146.647 13.1553ZM160.901 39.4623C160.876 39.4457 160.856 39.4253 160.831 39.4088C158.965 38.1863 156.634 37.9482 154.456 38.0513C151.799 38.1774 149.154 38.7364 146.625 39.5437C146.416 39.61 146.214 39.6914 146.006 39.7615C145.273 36.2278 144.911 32.6127 144.858 28.9975C150.462 31.4195 156.416 33.7027 160.305 38.6498C160.513 38.9121 160.709 39.1859 160.901 39.4623ZM146.025 10.471C146.072 10.5105 146.119 10.5258 146.168 10.5487C145.856 11.4388 145.578 12.3416 145.348 13.2585C144.692 15.8625 144.26 18.5328 143.976 21.2019C143.932 21.617 143.904 22.0334 143.868 22.4498C142.805 18.1343 140.672 14.0518 137.905 10.6174C137.042 9.54653 136.092 8.55073 135.098 7.60079C138.961 7.19967 142.996 7.90387 146.025 10.471ZM133.027 7.91787C133.303 7.86057 133.582 7.80837 133.862 7.76253C133.866 7.76635 133.867 7.77015 133.871 7.77397C138.966 12.3849 142.158 18.5048 143.698 25.1213C143.487 30.15 143.873 35.176 144.737 40.1486C144.74 40.169 144.752 40.1817 144.757 40.2008C144.102 40.4529 143.458 40.7293 142.819 41.0183C142.409 38.9172 141.735 36.8556 141.011 34.8475C140.196 32.5859 139.261 30.3652 138.205 28.2055C136.102 23.904 133.552 19.8126 130.588 16.051C129.043 14.0912 127.382 12.2321 125.622 10.4659C128.012 9.38353 130.463 8.44633 133.027 7.91787ZM120.323 13.0407C121.774 12.3136 123.237 11.5738 124.721 10.8759C131.276 17.6198 136.485 25.5709 139.884 34.3521C140.767 36.6353 141.453 38.9784 142.229 41.2959C140.621 42.06 139.069 42.9411 137.581 43.9229C132.073 36.4176 127.296 28.4156 123.224 20.0418C122.645 18.8499 122.077 17.6529 121.523 16.4496C121.025 15.3672 120.573 14.253 120.044 13.1833C120.137 13.1375 120.23 13.0878 120.323 13.0407ZM119.641 13.3922C120.01 14.3739 120.472 15.3315 120.901 16.2866C121.39 17.3741 121.889 18.4564 122.405 19.5312C123.435 21.6819 124.511 23.8098 125.632 25.9147C127.836 30.0544 130.195 34.1293 132.712 38.087C134.062 40.2097 135.451 42.3159 136.877 44.3903C135.814 45.125 134.79 45.9145 133.802 46.7448C133.47 46.4099 133.084 46.1526 132.706 45.8572C132.195 45.4574 131.691 45.0512 131.192 44.6373C130.285 43.8847 129.397 43.1092 128.53 42.3121C126.714 40.6414 124.991 38.8701 123.367 37.0135C120.168 33.3563 117.336 29.377 114.964 25.1366C114.301 23.9537 113.679 22.749 113.084 21.5304C112.526 20.3856 112.042 19.1937 111.458 18.0617C114.075 16.321 116.838 14.8107 119.641 13.3922ZM109.553 19.3669C110.019 19.0244 110.503 18.7124 110.98 18.3877C111.32 19.4217 111.793 20.4238 112.245 21.4094C112.761 22.5338 113.32 23.6391 113.901 24.7291C115.055 26.8888 116.322 28.9886 117.694 31.0171C120.458 35.1009 123.657 38.879 127.219 42.2892C128.198 43.2264 129.204 44.1356 130.237 45.013C130.775 45.4714 131.321 45.9209 131.874 46.3615C132.285 46.6887 132.68 47.0504 133.127 47.3229C132.992 47.4413 132.853 47.5546 132.72 47.6743C132.204 48.1391 131.7 48.6154 131.206 49.1018C130.221 47.9647 129.097 46.9396 127.956 45.9692C126.4 44.6449 124.653 43.518 122.867 42.5298C120.962 41.4767 118.94 40.6274 116.852 40.006C116.614 39.764 116.301 39.5934 116.02 39.4049C115.652 39.1566 115.282 38.9109 114.916 38.6587C114.23 38.185 113.565 37.6808 112.925 37.146C111.588 36.0317 110.36 34.7889 109.255 33.4442C108.148 32.097 107.163 30.6491 106.33 29.1172C105.504 27.5981 104.892 25.9949 104.203 24.4133C104.17 24.3382 104.112 24.2975 104.045 24.2758C105.695 22.4421 107.588 20.8122 109.553 19.3669ZM99.744 37.7368C99.4065 36.797 99.2422 35.7834 99.2257 34.7864C99.1888 32.5898 99.9273 30.453 100.974 28.5468C101.739 27.1511 102.67 25.8548 103.712 24.6489C104.263 27.2886 105.644 29.8202 107.131 32.0409C108.683 34.3598 110.583 36.4481 112.743 38.2143C113.239 38.6205 113.76 38.9962 114.285 39.3667C113.199 39.1503 112.101 38.9924 110.994 38.907C107.587 38.646 104.155 39.0357 100.941 40.0429C100.488 39.3031 100.038 38.5581 99.744 37.7368ZM96.563 43.3346C100.062 41.2997 104.077 40.2581 108.111 40.1244C116.138 39.8583 123.814 43.49 129.644 48.8395C129.965 49.1336 130.287 49.4252 130.606 49.7194C127.537 52.8532 124.897 56.3983 122.669 60.1752C121.896 61.4842 121.092 62.8633 120.524 64.3137C112.477 60.8679 104.748 56.6785 97.4811 51.7963C95.4335 50.421 93.4139 49.005 91.3778 47.6132C92.8677 45.9234 94.6224 44.4641 96.563 43.3346ZM88.7915 51.2309C89.4346 50.0861 90.1961 49.005 91.0442 47.9978C94.4976 50.8909 98.2592 53.4059 102.082 55.7807C105.929 58.1709 109.89 60.3726 113.95 62.3782C116.006 63.3943 118.091 64.3493 120.195 65.2636C119.944 66.0926 119.777 66.9432 119.768 67.8193C119.744 70.2413 120.827 72.5945 123.106 73.64C123.272 73.7164 123.448 73.7699 123.621 73.8323C122.308 73.7049 121.001 73.5318 119.704 73.2911C116.605 72.7155 113.577 71.8101 110.653 70.6322C104.774 68.2637 99.3823 64.7314 94.9 60.2452C93.6444 58.9896 92.4627 57.659 91.3625 56.2646C90.3107 54.9314 89.2576 53.5625 88.3153 52.1478C88.4681 51.8383 88.6222 51.5302 88.7915 51.2309ZM99.4205 77.3226C95.7048 76.5 92.4296 74.5034 90.0738 71.5058C87.9256 68.7731 86.6141 65.4152 86.3174 61.9528C87.9575 64.4512 89.8141 66.7293 92.0743 68.7043C94.3601 70.7023 96.8967 72.4099 99.6001 73.7903C103.433 75.7475 107.598 76.9534 111.854 77.4283C107.734 77.9084 103.504 78.228 99.4205 77.3226ZM124.859 75.3909C123.246 75.8098 121.602 76.1155 119.946 76.3077C116.649 76.691 113.308 76.6121 110.033 76.0747C103.997 75.084 98.2808 72.471 93.5298 68.6266C90.9487 66.5383 88.5127 64.1125 86.5427 61.4346C86.4676 61.3327 86.3657 61.3212 86.2804 61.3594C86.1289 58.2995 86.8318 55.2319 88.1485 52.4712C88.8565 53.7395 89.5823 54.9708 90.4571 56.1398C91.4236 57.4297 92.4589 58.6662 93.5566 59.8454C95.7379 62.1884 98.1548 64.3111 100.759 66.1741C106.026 69.9408 111.967 72.6862 118.281 74.1417C120.038 74.5467 121.818 74.8497 123.611 75.0458C124.196 75.1095 124.802 75.1808 125.413 75.2355C125.23 75.2865 125.045 75.3425 124.859 75.3909ZM154.506 71.5504C151.98 71.4918 149.474 72.0266 146.976 72.3246C144.866 72.5767 142.749 72.7512 140.629 72.8887C140.52 72.7843 140.377 72.7181 140.205 72.741C139.606 72.8212 139.01 72.918 138.415 73.0262C135.271 73.1727 132.122 73.2007 128.976 73.095C126.677 73.0173 123.642 73.1739 122.108 71.1072C120.606 69.0812 121.132 66.3638 122.072 64.2309C122.652 62.913 123.359 61.6383 124.12 60.3968C126.886 63.9457 131.762 65.3298 136.042 65.9258C141.584 66.6962 147.492 66.4479 152.528 69.2392C153.714 69.8962 154.766 70.6972 155.656 71.6446C155.275 71.5924 154.891 71.5593 154.506 71.5504ZM157.477 72.0979C155.257 69.0838 151.373 67.2985 147.853 66.5039C142.187 65.2254 136.195 65.8494 130.663 63.905C128.287 63.0696 126.125 61.772 124.403 59.9473C124.966 59.0521 125.549 58.1696 126.143 57.3113C127.602 55.2039 129.203 53.1932 130.956 51.3226C131.05 51.222 131.147 51.1265 131.244 51.0297C132.464 52.5998 134.241 53.5587 136.112 54.2934C138.447 55.2103 140.891 55.8177 143.184 56.8466C147.817 58.9235 151.875 62.2253 154.911 66.29C156.361 68.2319 157.538 70.347 158.474 72.5767C158.158 72.387 157.823 72.2304 157.477 72.0979ZM151.39 61.0806C149.497 59.3959 147.394 57.9468 145.144 56.7791C142.889 55.6075 140.499 54.8715 138.1 54.068C135.907 53.3333 133.721 52.4126 132.005 50.8552C132.195 50.8132 132.338 50.556 132.2 50.3612C132.159 50.3026 132.11 50.2504 132.068 50.1918C135.442 46.8428 139.362 44.0363 143.717 42.1096C145.282 41.4169 146.899 40.8515 148.55 40.4071C148.554 40.4224 148.547 40.4351 148.553 40.4517C148.748 40.9419 149.095 41.3061 149.416 41.72C149.784 42.195 150.146 42.675 150.497 43.1627C151.147 44.0643 151.764 44.9888 152.346 45.9349C153.54 47.8717 154.582 49.9028 155.476 51.9937C157.259 56.1615 158.438 60.5814 158.958 65.0854C159.224 67.3928 159.294 69.7282 159.302 72.0508C157.535 67.8601 154.781 64.0985 151.39 61.0806ZM159.985 68.5426C159.923 65.3655 159.448 62.1795 158.712 59.1132C157.637 54.6372 155.928 50.314 153.618 46.3309C152.967 45.2065 152.271 44.1063 151.529 43.0392C151.152 42.4967 150.764 41.9619 150.36 41.4373C150.031 41.0107 149.716 40.5434 149.297 40.2021C149.894 40.0569 150.496 39.9257 151.102 39.8162C153.374 39.4062 155.804 39.121 158.077 39.6813C159.023 39.9143 159.957 40.3269 160.677 40.9967C161.575 41.832 161.954 42.9985 162.046 44.1942C162.146 45.5045 161.932 46.8288 161.778 48.1277C161.601 49.6137 161.426 51.0985 161.259 52.5845C160.664 57.8895 160.173 63.2084 159.985 68.5426ZM86.2893 142.369C83.4331 137.278 81.8911 131.591 80.8864 125.873C79.8218 119.814 79.2118 113.658 78.5828 107.54C78.1982 103.794 77.8786 100.039 77.7309 96.2745C77.657 94.3937 77.615 92.5091 77.6303 90.627C77.6405 89.2657 77.6978 87.9045 77.7194 86.5445C77.7831 86.6069 77.848 86.6706 77.9117 86.733C79.4245 94.9451 81.3613 103.095 83.5885 111.141C85.9201 119.57 88.6337 127.907 92.0985 135.943C95.0923 142.888 98.6705 149.59 102.943 155.836C104.051 157.454 105.209 159.042 106.414 160.596C98.5202 155.916 90.8519 150.499 86.2893 142.369ZM105.724 157.658C101.297 151.578 97.5805 144.999 94.4543 138.165C90.8774 130.345 88.0644 122.196 85.673 113.943C84.4569 109.746 83.3414 105.519 82.2845 101.28C81.2302 97.0474 80.2688 92.7867 79.124 88.5794C79.0425 88.2814 78.961 87.9834 78.8795 87.6842C78.8871 87.6918 78.8948 87.6995 78.9037 87.7071C80.7908 92.7001 82.8512 97.6268 84.8644 102.57C86.9069 107.585 88.9571 112.595 90.9818 117.616C95.0464 127.692 99.1404 137.759 103.155 147.853C104.919 152.288 106.666 156.732 108.432 161.168C107.504 160.016 106.594 158.853 105.724 157.658ZM109.493 160.933C105.826 152.096 102.111 143.277 98.4668 134.43C94.3282 124.386 90.1426 114.362 86.0321 104.306C83.8241 98.9027 81.6682 93.4743 79.3341 88.1235C82.6742 91.3706 86.1111 94.5172 89.306 97.9184C93.1707 102.034 96.7566 106.442 99.6969 111.272C105.794 121.288 108.18 132.901 109.014 144.467C109.251 147.752 109.371 151.044 109.433 154.336C109.465 156.012 109.485 157.689 109.496 159.365C109.499 159.887 109.496 160.41 109.493 160.933ZM132.95 343.456C129.346 340.122 125.316 337.22 121.323 334.375C112.789 328.296 103.818 322.827 94.5091 318.017C85.2897 313.254 75.6285 308.886 65.2148 307.69C55.0353 306.521 44.8074 308.098 34.7795 309.777C24.6599 311.472 14.474 313.307 4.16851 312.821C3.9062 312.808 3.64261 312.79 3.38029 312.777C5.37569 312.042 7.34817 311.263 9.2939 310.381C12.0763 309.118 14.8217 307.775 17.5544 306.406C23.0592 303.647 28.5195 300.793 34.1084 298.203C44.9195 293.191 56.5392 289.137 68.5918 289.097C74.4468 289.078 80.284 290.06 85.7087 292.296C91.0353 294.493 95.8423 297.742 100.314 301.34C108.856 308.208 116.896 315.982 123.764 324.534C129.567 331.761 134.523 339.807 137.589 348.577C136.233 346.721 134.644 345.023 132.95 343.456ZM139.635 351.893C139.495 351.618 139.355 351.344 139.204 351.076C136.794 342.45 132.447 334.453 127.171 327.21C120.657 318.266 112.753 310.368 104.458 303.079C100.108 299.258 95.4628 295.699 90.3489 292.957C85.1038 290.145 79.3787 288.422 73.451 287.872C61.364 286.75 49.277 290.052 38.238 294.741C32.4912 297.182 26.9151 300.001 21.3453 302.819C16.5866 305.226 11.791 307.54 6.97124 309.815C7.97722 309.137 8.98065 308.455 9.99172 307.786C12.741 305.965 15.5055 304.165 18.2955 302.408C23.999 298.817 29.8209 295.407 35.8441 292.379C47.5974 286.47 60.2358 281.992 73.3988 280.767C85.2668 279.661 97.4506 281.411 108.176 286.753C113.285 289.297 118.025 292.668 121.974 296.799C126.126 301.14 129.406 306.24 131.898 311.694C137.387 323.705 138.987 336.998 139.76 350.052C139.761 350.081 139.764 350.11 139.765 350.14C139.726 350.724 139.671 351.307 139.635 351.893ZM376.585 172.854C378.501 173.821 380.383 174.862 382.188 176.025C383.713 177.01 385.315 178.176 386.098 179.871C386.408 180.54 386.529 181.234 386.539 181.931C377.432 186.196 367.81 189.413 357.955 191.412C347.98 193.437 337.768 194.315 327.593 194.001C324.752 193.913 321.913 193.732 319.084 193.463C316.253 193.195 313.447 192.743 310.621 192.439C310.365 192.411 310.331 192.776 310.573 192.829C313.089 193.389 315.683 193.67 318.245 193.942C320.781 194.211 323.327 194.402 325.875 194.518C330.934 194.746 336.008 194.682 341.06 194.329C351.246 193.617 361.323 191.696 371.099 188.762C375.755 187.365 380.327 185.65 384.793 183.721C376.521 189.373 367.096 193.433 357.398 195.855C347.307 198.375 336.783 199.163 326.434 198.107C323.52 197.809 320.625 197.36 317.753 196.78C316.318 196.49 314.891 196.164 313.473 195.8C312.432 195.533 311.402 195.221 310.359 194.962C310.592 189.88 309.952 184.748 309.023 179.769C316.762 183.462 325.385 185.198 333.947 185.188C343.082 185.177 352.191 183.2 360.489 179.371C362.774 178.318 364.99 177.117 367.121 175.784C368.207 175.104 369.271 174.387 370.308 173.635C371.318 172.904 372.333 172.165 373.216 171.285C374.354 171.779 375.48 172.296 376.585 172.854ZM372.351 170.928C371.558 171.506 370.799 172.134 370.012 172.722C369.138 173.376 368.247 174.003 367.336 174.604C365.458 175.846 363.505 176.974 361.493 177.985C357.451 180.019 353.181 181.576 348.787 182.648C340.062 184.778 330.902 185.026 322.08 183.328C317.557 182.459 313.123 181.038 308.909 179.167C308.682 177.961 308.443 176.751 308.177 175.545C308.678 175.822 309.258 176.009 309.828 176.017C314.967 179.215 320.836 181.083 326.848 181.738C333.23 182.433 339.743 181.781 345.854 179.813C351.844 177.883 357.387 174.632 361.922 170.262C362.672 169.54 363.384 168.782 364.079 168.008C364.145 168.073 364.222 168.125 364.315 168.151C367.054 168.897 369.734 169.836 372.351 170.928ZM302.886 212.218C298.955 217.136 293.495 220.613 287.887 223.327C281.574 226.382 274.863 228.545 267.956 229.761C264.495 230.371 260.992 230.74 257.481 230.864C254.142 230.981 250.656 231.021 247.363 230.388C245.946 230.115 244.504 229.664 243.196 229.032C243.185 228.918 243.173 228.806 243.162 228.693C243.218 228.675 243.274 228.658 243.33 228.641C243.372 228.641 243.414 228.638 243.456 228.638C243.506 228.751 243.601 228.839 243.772 228.839C243.951 228.839 244.077 228.744 244.155 228.622C252.683 228.474 261.212 227.25 269.482 225.187C278.078 223.043 286.449 219.97 294.371 216.002C296.568 214.902 298.73 213.734 300.853 212.498C301.925 211.874 302.986 211.233 304.038 210.575C304.066 210.557 304.094 210.541 304.122 210.523C303.734 211.1 303.326 211.666 302.886 212.218ZM304.59 226.178C304.665 227.214 304.738 228.254 304.803 229.295C292.898 232.924 280.352 234.357 267.941 233.434C264.49 233.178 261.077 232.654 257.648 232.216C257.58 232.163 257.516 232.106 257.448 232.052C257.451 232.05 257.454 232.048 257.457 232.046C259.216 232.004 260.973 231.902 262.724 231.739C269.909 231.068 277 229.36 283.709 226.701C289.867 224.261 295.978 221.054 300.855 216.509C301.672 215.748 302.429 214.934 303.159 214.096C303.251 214.319 303.346 214.54 303.443 214.761C303.498 215.168 303.551 215.576 303.601 215.982C303.74 217.111 303.868 218.242 303.988 219.374C304.226 221.64 304.427 223.907 304.59 226.178ZM303.973 209.423C303.042 210.014 302.103 210.592 301.156 211.156C299.244 212.294 297.3 213.378 295.326 214.407C291.444 216.43 287.447 218.237 283.364 219.819C275.175 222.992 266.633 225.233 257.945 226.509C253.05 227.228 248.118 227.61 243.173 227.771C243.128 227.772 243.092 227.787 243.055 227.803C242.986 227.179 242.912 226.556 242.831 225.933C242.849 225.862 242.84 225.797 242.808 225.741C242.732 225.169 242.642 224.6 242.556 224.031C244.559 224.154 246.632 223.923 248.602 223.711C251 223.454 253.387 223.115 255.762 222.698C260.493 221.865 265.162 220.7 269.74 219.244C278.915 216.326 287.688 212.195 295.796 207.006C300.335 204.1 304.65 200.853 308.701 197.299C308.269 201.25 307.203 205.086 305.316 208.55C304.865 208.836 304.423 209.136 303.973 209.423ZM308.242 196.531C301.068 202.837 293.055 208.157 284.469 212.344C275.884 216.531 266.771 219.577 257.4 221.424C254.798 221.938 252.177 222.354 249.544 222.672C248.198 222.835 246.851 222.988 245.502 223.117C244.489 223.213 243.47 223.294 242.465 223.452C242.04 220.769 241.514 218.102 240.874 215.471C240.693 214.729 240.492 213.992 240.294 213.254C248.215 207.953 256.437 203.11 264.989 198.897C273.71 194.599 282.746 190.936 291.994 187.936C297.253 186.229 302.582 184.747 307.965 183.486C308.046 183.467 308.107 183.428 308.159 183.381C308.724 187.094 309.044 190.843 308.902 194.577C308.876 195.235 308.832 195.89 308.773 196.544C308.633 196.414 308.429 196.367 308.242 196.531ZM179.454 227.639C179.374 225.695 179.374 223.748 179.45 221.804C179.598 218.036 180.031 214.279 180.738 210.575C182.173 203.06 184.767 195.75 188.371 189.001C189.379 187.112 190.473 185.268 191.644 183.475C192.234 182.573 192.843 181.684 193.472 180.81C194.087 179.954 194.771 179.142 195.256 178.203C195.319 178.08 195.295 177.955 195.228 177.855C196.543 177.771 197.86 177.729 199.178 177.738C208.108 177.797 217.292 180.17 224.23 186.014C227.894 189.099 230.695 192.967 232.929 197.171C232.9 197.211 232.878 197.259 232.865 197.317C231.266 204.837 227.964 211.95 223.428 218.147C218.9 224.334 213.148 229.607 206.586 233.575C203.315 235.554 199.797 237.174 196.202 238.498C195.22 238.25 194.242 237.99 193.265 237.725C193.142 237.497 192.881 237.352 192.625 237.344C192.521 237.223 192.38 237.129 192.186 237.091C190.191 236.708 188.214 236.248 186.257 235.716C185.437 235.472 184.618 235.227 183.797 234.987C183.779 234.982 183.762 234.985 183.746 234.982C182.372 234.561 181.01 234.097 179.661 233.606C179.752 233.584 179.834 233.508 179.83 233.381C179.768 231.462 179.533 229.555 179.454 227.639ZM168.506 220.458C168.926 222.2 169.411 223.927 169.961 225.632C170.236 226.485 170.529 227.334 170.837 228.176C171.096 228.884 171.403 229.554 171.718 230.226C170.802 229.78 169.885 229.333 168.984 228.853C167.254 227.933 165.557 226.946 163.892 225.904C163.882 225.885 163.887 225.865 163.871 225.847C163.024 224.878 161.953 224.147 160.996 223.291C160.017 222.415 159.099 221.475 158.242 220.481C156.565 218.535 155.116 216.393 153.93 214.114C151.562 209.561 150.192 204.482 150.02 199.349C149.97 197.873 150.024 196.39 150.177 194.921C150.287 193.862 150.478 192.815 150.655 191.767C156.63 188.565 162.865 185.845 169.266 183.62C167.633 189.268 166.714 195.101 166.524 200.98C166.315 207.523 166.971 214.096 168.506 220.458ZM171.618 228.467C171.333 227.684 171.061 226.896 170.804 226.103C170.3 224.545 169.849 222.97 169.454 221.382C168.683 218.271 168.121 215.11 167.771 211.925C167.068 205.526 167.236 199.034 168.266 192.68C168.786 189.476 169.531 186.311 170.477 183.206C174.925 181.709 179.456 180.44 184.047 179.464C187.483 178.733 190.972 178.179 194.48 177.913C193.84 178.525 193.332 179.25 192.816 179.972C192.258 180.751 191.717 181.541 191.191 182.342C190.133 183.952 189.14 185.606 188.208 187.294C186.341 190.673 184.738 194.197 183.408 197.821C180.751 205.069 179.195 212.755 178.819 220.464C178.716 222.586 178.703 224.712 178.779 226.835C178.86 229.032 178.942 231.288 179.412 233.44C179.421 233.482 179.448 233.502 179.47 233.529C177.03 232.634 174.631 231.629 172.284 230.51C172.057 229.831 171.864 229.142 171.618 228.467ZM173.679 172.233C171.476 169.628 169.481 166.841 167.759 163.894C164.323 158.012 161.87 151.552 160.585 144.861C159.947 141.54 159.726 138.206 159.51 134.85C159.536 134.615 159.569 134.379 159.597 134.144C159.738 134.728 159.88 135.313 160.03 135.89C160.482 137.633 160.991 139.361 161.556 141.07C162.71 144.566 164.11 147.975 165.736 151.28C168.965 157.838 173.054 163.983 177.865 169.487C180.372 172.356 183.087 175.123 186.006 177.589C184.685 177.838 183.371 178.114 182.065 178.416C181.872 178.208 181.61 178.086 181.321 178.008C181.009 177.924 180.686 177.916 180.367 177.969C180.146 177.775 179.771 177.794 179.647 178.102C179.424 177.973 179.201 177.843 178.978 177.713C178.377 177.16 177.773 176.609 177.193 176.033C175.965 174.821 174.794 173.551 173.679 172.233ZM176.026 176.264C170.285 172.277 165.884 166.581 163.056 160.19C160.449 154.3 159.247 147.949 159.178 141.555C159.277 142.282 159.387 143.005 159.507 143.723C160.076 147.137 160.947 150.503 162.09 153.769C164.372 160.288 167.77 166.455 172.092 171.845C173.305 173.358 174.596 174.808 175.955 176.192C175.979 176.215 176.003 176.239 176.026 176.264ZM159.867 132.157C160.444 128.377 161.349 124.647 162.526 121.007C162.629 120.69 162.747 120.38 162.854 120.064C164.315 128.677 167.465 137.093 171.563 144.761C176.062 153.178 181.87 160.853 188.755 167.463C192.138 170.712 195.798 173.66 199.662 176.318C195.558 176.251 191.446 176.647 187.381 177.343C187.368 177.331 187.363 177.314 187.349 177.301C184.605 174.942 181.963 172.521 179.518 169.848C177.073 167.175 174.804 164.342 172.735 161.368C168.601 155.425 165.273 148.942 162.788 142.143C162.094 140.242 161.468 138.317 160.92 136.368C160.525 134.977 160.21 133.563 159.867 132.157ZM215.189 228.189C221.023 223.079 225.848 216.817 229.245 209.843C231.074 206.09 232.459 202.144 233.401 198.079C235.064 201.365 236.401 204.831 237.534 208.279C237.564 208.373 237.59 208.469 237.62 208.562C237.457 208.426 237.166 208.422 237.043 208.674C234.364 214.181 231.109 219.322 227.101 223.965C223.111 228.586 218.498 232.647 213.43 236.048C212.007 237.003 210.548 237.903 209.054 238.744C208.294 239.172 207.526 239.584 206.752 239.985C206.37 240.184 205.983 240.377 205.608 240.588C202.771 240.039 199.948 239.415 197.143 238.722C203.793 236.515 209.926 232.798 215.189 228.189ZM278.393 167.444C281.192 166.265 284.049 165.222 286.952 164.332C289.935 163.419 293.13 162.699 296.265 163.033C298.808 163.304 301.04 164.403 302.708 166.251C302.66 166.255 302.613 166.255 302.56 166.273C293.021 169.715 283.816 174.085 275.092 179.254C266.438 184.38 258.244 190.299 250.699 196.952C246.554 200.608 242.583 204.453 238.947 208.613C238.257 206.454 237.493 204.319 236.645 202.218C236.684 202.18 236.727 202.153 236.762 202.101C240.103 196.996 243.954 192.224 248.239 187.881C252.52 183.542 257.239 179.63 262.279 176.204C267.344 172.762 272.748 169.823 278.393 167.444ZM269.65 170.015C275.056 164.168 278.706 156.543 279.429 148.625C280.533 152.948 282.072 157.163 283.941 161.206C284.282 161.944 284.641 162.674 285.016 163.396C284.347 163.618 283.686 163.844 283.049 164.067C278.43 165.687 273.954 167.687 269.65 170.015ZM295.618 161.483C293.384 161.357 291.076 161.708 288.831 162.267C287.082 154.023 287.245 145.436 289.232 137.25C291.197 129.153 294.989 121.523 300.32 115.119C302.307 112.733 304.505 110.526 306.862 108.504C306.341 109.435 305.851 110.386 305.371 111.327C304.5 113.036 303.682 114.773 302.921 116.534C301.395 120.059 300.098 123.677 299.028 127.364C296.908 134.675 295.66 142.237 295.34 149.842C295.179 153.695 295.172 157.637 295.618 161.483ZM302.956 167.196C303.119 167.137 303.205 167.028 303.239 166.904C303.328 167.02 303.424 167.128 303.508 167.249C305.158 169.61 305.96 172.488 306.592 175.263C307.146 177.695 307.65 180.16 308.05 182.645C307.989 182.625 307.92 182.617 307.839 182.636C298.274 184.873 288.866 187.803 279.735 191.428C270.584 195.063 261.672 199.354 253.169 204.321C248.713 206.924 244.36 209.699 240.14 212.67C239.826 211.52 239.493 210.375 239.138 209.237C239.141 209.234 239.143 209.234 239.146 209.232C246.193 202.043 253.573 195.24 261.674 189.245C269.743 183.275 278.372 178.029 287.421 173.682C292.482 171.252 297.673 169.089 302.956 167.196ZM208.806 239.654C210.14 238.927 211.451 238.155 212.733 237.34C215.368 235.667 217.88 233.802 220.254 231.774C224.938 227.775 229.092 223.146 232.543 218.042C234.491 215.161 236.269 212.118 237.702 208.945C237.713 208.921 237.712 208.899 237.718 208.876C239.193 213.467 240.336 218.163 241.132 222.918C241.336 224.134 241.505 225.355 241.661 226.579C241.209 227.216 240.767 227.86 240.297 228.487C239.607 229.405 238.871 230.287 238.093 231.133C236.558 232.8 234.857 234.312 233.035 235.658C229.346 238.383 225.127 240.419 220.692 241.594C219.456 241.921 218.2 242.175 216.934 242.381C213.496 241.96 210.072 241.429 206.667 240.793C207.4 240.444 208.114 240.031 208.806 239.654ZM226.61 240.258C230.872 238.355 234.765 235.652 238.029 232.316C238.947 231.377 239.814 230.389 240.62 229.352C241.026 228.83 241.429 228.303 241.799 227.756C241.846 228.168 241.903 228.581 241.946 228.993C241.889 229.014 241.829 229.029 241.771 229.053C241.751 229.062 241.76 229.097 241.783 229.091C241.84 229.081 241.896 229.062 241.952 229.048C241.994 229.457 242.05 229.863 242.086 230.272C242.263 232.281 242.318 234.325 241.927 236.313C241.556 238.199 240.685 239.989 239.176 241.218C237.654 242.458 235.725 243.015 233.806 243.26C231.785 243.518 229.748 243.437 227.718 243.329C225.191 243.193 222.665 242.998 220.147 242.741C219.846 242.71 219.548 242.672 219.248 242.64C221.787 242.13 224.272 241.302 226.61 240.258ZM363.815 166.222C359.921 170.835 355.032 174.528 349.518 176.988C343.875 179.507 337.666 180.779 331.489 180.755C325.236 180.731 319.116 179.371 313.392 176.872C312.574 176.516 311.771 176.126 310.976 175.72C311.053 175.664 311.106 175.596 311.133 175.521C312.511 175.407 313.887 175.181 315.247 174.983C317.467 174.659 319.673 174.262 321.87 173.81C326.304 172.898 330.691 171.755 335.002 170.377C343.665 167.608 352.033 163.909 359.928 159.399C364.08 157.027 368.097 154.411 371.969 151.603C370.19 156.93 367.44 161.928 363.815 166.222ZM372.332 150.493C372.304 150.504 372.276 150.512 372.248 150.532C365.002 155.87 357.168 160.41 348.951 164.077C340.743 167.741 332.151 170.572 323.373 172.497C320.938 173.031 318.488 173.484 316.029 173.889C313.841 174.249 311.599 174.435 309.429 174.904C309.412 174.895 309.396 174.887 309.379 174.877C309.346 174.859 309.314 174.854 309.283 174.848C309.252 174.837 309.223 174.827 309.192 174.816C309.094 174.779 308.999 174.738 308.904 174.692C308.848 174.666 308.794 174.636 308.74 174.606C308.726 174.597 308.675 174.565 308.664 174.557C308.568 174.495 308.475 174.429 308.386 174.359C308.364 174.342 308.345 174.323 308.325 174.305C310.294 173.886 312.238 173.321 314.169 172.769C316.512 172.101 318.839 171.38 321.151 170.606C325.83 169.037 330.439 167.263 334.969 165.305C343.938 161.427 352.582 156.786 360.79 151.487C365.355 148.541 369.772 145.376 374.036 142.008C373.753 144.885 373.176 147.732 372.332 150.493ZM373.989 133.319C374.279 135.893 374.303 138.494 374.106 141.077C374.027 141.074 373.943 141.093 373.862 141.156C366.188 147.313 357.996 152.845 349.37 157.582C340.827 162.274 331.89 166.243 322.679 169.428C320.081 170.326 317.462 171.162 314.827 171.944C312.531 172.624 310.201 173.19 307.905 173.868C307.855 173.805 307.804 173.742 307.758 173.676C307.739 173.648 307.721 173.62 307.702 173.592C307.421 172.512 307.114 171.441 306.732 170.397C306.698 170.304 306.652 170.215 306.616 170.122C308.921 169.2 311.157 168.106 313.393 167.032C315.709 165.917 318.017 164.784 320.302 163.611C324.877 161.264 329.398 158.817 333.864 156.27C342.771 151.191 351.453 145.716 359.887 139.885C364.502 136.696 369.034 133.387 373.491 129.98C373.71 131.091 373.864 132.215 373.989 133.319ZM368.527 121.239C368.67 121.317 368.812 121.396 368.95 121.485C370.166 122.278 371.088 123.428 371.754 124.708C372.443 126.032 372.92 127.462 373.267 128.929C365.187 135.179 356.837 141.077 348.233 146.582C339.602 152.104 330.728 157.244 321.643 161.985C319.102 163.312 316.547 164.619 313.978 165.891C311.458 167.139 308.892 168.302 306.4 169.609C306.246 169.238 306.094 168.868 305.916 168.505C307.19 166.725 308.443 164.93 309.789 163.201C311.413 161.114 313.104 159.079 314.857 157.099C318.349 153.157 322.116 149.452 326.084 145.99C333.99 139.091 342.72 133.157 352.046 128.344C357.308 125.626 362.76 123.283 368.36 121.353C368.437 121.328 368.488 121.288 368.527 121.239ZM348.8 122.941C348.816 122.878 348.826 122.814 348.843 122.752C350.557 122.243 352.29 121.801 354.041 121.437C355.713 121.09 357.399 120.809 359.092 120.596C360.789 120.384 362.514 120.184 364.227 120.238C365.337 120.274 366.474 120.423 367.526 120.796C357.758 124.269 348.385 128.9 339.771 134.672C330.998 140.551 323.008 147.493 315.905 155.304C313.895 157.516 311.962 159.797 310.114 162.147C308.591 164.082 307.075 166.047 305.692 168.092C305.498 167.722 305.311 167.347 305.089 166.993C305.218 166.93 305.329 166.818 305.383 166.627C307.18 160.363 309.949 154.363 313.536 148.924C317.133 143.471 321.539 138.56 326.612 134.442C331.92 130.133 337.919 126.708 344.307 124.281C345.549 123.81 346.808 123.387 348.076 122.994C348.151 123.34 348.697 123.337 348.8 122.941ZM342.552 96.6183C343.644 97.2104 344.577 98.0407 345.284 99.1205C346.46 100.917 347.019 103.124 347.498 105.192C348.579 109.862 348.845 114.657 348.406 119.425C348.344 120.11 348.281 120.795 348.214 121.48C341.889 123.39 335.861 126.217 330.372 129.903C324.715 133.704 319.681 138.422 315.484 143.794C311.325 149.116 307.972 155.091 305.622 161.425C305.094 162.846 304.636 164.286 304.212 165.742C304.006 165.481 303.787 165.231 303.561 164.988C304.357 162.803 305.088 160.593 305.888 158.408C306.785 155.954 307.715 153.513 308.702 151.094C310.654 146.307 312.83 141.626 315.194 137.031C319.957 127.768 325.364 118.838 331.536 110.443C333.268 108.088 335.057 105.774 336.892 103.498C337.79 102.384 338.7 101.28 339.624 100.186C340.584 99.0479 341.616 97.9566 342.493 96.7507C342.523 96.7087 342.538 96.6629 342.552 96.6183ZM340.846 95.9179C341.14 96.002 341.423 96.1051 341.702 96.2172C340.818 97.0716 340.037 98.0203 339.245 98.9613C338.385 99.9851 337.534 101.017 336.695 102.058C335.056 104.093 333.463 106.165 331.912 108.267C328.793 112.499 325.838 116.854 323.064 121.319C317.555 130.192 312.882 139.506 308.878 149.149C307.757 151.849 306.69 154.574 305.702 157.325C304.827 159.759 303.975 162.214 303.287 164.711C302.788 164.211 302.247 163.751 301.644 163.359C301.379 163.187 301.11 163.032 300.839 162.885C301.309 160.598 301.673 158.29 302.159 156.004C302.679 153.567 303.266 151.145 303.923 148.742C305.204 144.055 306.741 139.437 308.522 134.917C312.116 125.794 316.756 117.075 322.275 108.975C323.831 106.692 325.456 104.455 327.144 102.268C328.786 100.143 330.548 98.1247 332.237 96.0389C335.087 95.4468 338.079 95.1259 340.846 95.9179ZM318.619 100.721C322.12 98.9906 325.801 97.6102 329.589 96.6577C329.984 96.5584 330.386 96.4604 330.791 96.3636C329.445 97.8802 328.185 99.4872 326.944 101.083C325.415 103.049 323.943 105.057 322.532 107.11C319.76 111.143 317.215 115.328 314.891 119.633C310.206 128.314 306.452 137.517 303.741 147.002C302.991 149.629 302.318 152.278 301.729 154.946C301.17 157.474 300.616 160.046 300.315 162.623C298.959 161.984 297.527 161.64 296.058 161.514C295.875 158.052 295.701 154.605 295.81 151.131C295.93 147.356 296.285 143.594 296.873 139.864C298.05 132.401 300.16 125.098 303.112 118.142C303.936 116.202 304.826 114.29 305.782 112.412C306.727 110.557 307.799 108.773 308.764 106.93C311.826 104.531 315.134 102.444 318.619 100.721ZM304.212 94.9438C305.629 94.7974 307.059 94.889 308.421 95.3512C310.891 96.1904 313.076 98.0356 313.969 100.53C314.088 100.865 314.17 101.215 314.231 101.569C309.596 104.313 305.335 107.688 301.627 111.598C295.771 117.774 291.414 125.29 288.889 133.414C286.294 141.769 285.554 150.73 286.931 159.38C287.101 160.453 287.306 161.522 287.539 162.584C287.542 162.594 287.548 162.599 287.551 162.609C287.411 162.649 287.276 162.694 287.137 162.736C287.129 162.714 287.132 162.692 287.122 162.668C282.917 153.246 281.353 142.683 282.641 132.445C283.83 122.991 287.613 113.955 293.268 106.305C294.807 104.224 296.496 102.252 298.309 100.404C300.154 98.5233 302.189 96.8857 304.162 95.1488C304.234 95.0838 304.235 95.01 304.212 94.9438ZM279.624 124.442C280.749 118.682 282.962 113.096 286.237 108.218C287.846 105.819 289.708 103.581 291.818 101.605C294.073 99.4923 296.603 97.5759 299.427 96.2923C300.762 95.6849 302.219 95.2163 303.7 95.0011C301.827 96.2592 300.128 97.8242 298.517 99.3943C296.852 101.019 295.284 102.743 293.829 104.558C290.872 108.244 288.368 112.273 286.406 116.574C282.223 125.746 280.566 136.032 281.617 146.055C282.205 151.662 283.633 157.169 285.845 162.354C283.064 156.445 280.819 150.345 279.658 143.892C278.504 137.476 278.372 130.856 279.624 124.442ZM277.692 139.894C278.772 144.884 278.526 150.135 277.096 155.029C275.562 160.278 272.769 165.076 269.233 169.226C268.656 169.902 268.069 170.569 267.475 171.23C266.969 171.52 266.462 171.811 265.962 172.111C260.555 175.348 255.473 179.128 250.818 183.373C246.158 187.621 241.911 192.329 238.198 197.425C237.435 198.473 236.707 199.545 235.99 200.625C235.396 199.246 234.752 197.883 234.053 196.55C236.157 195.083 238.07 193.321 240.018 191.658C242.008 189.958 243.981 188.236 245.929 186.488C249.791 183.021 253.553 179.437 257.094 175.641C263.844 168.408 269.802 160.359 273.852 151.291C275.489 147.623 276.795 143.806 277.692 139.894ZM244.705 114.169C248.132 115.021 251.531 115.985 254.839 117.209C260.601 119.339 266.227 122.506 270.524 126.866C270.207 129.105 269.906 131.345 269.479 133.568C268.995 136.091 268.406 138.594 267.7 141.065C266.315 145.92 264.509 150.655 262.321 155.206C257.906 164.389 251.93 172.829 244.662 179.977C242.646 181.959 240.534 183.845 238.333 185.62C237.21 186.527 236.065 187.403 234.896 188.249C233.732 189.09 232.463 189.829 231.402 190.798C231.061 191.111 231.368 191.735 231.834 191.526C233.037 190.988 234.089 190.16 235.15 189.385C236.18 188.632 237.192 187.855 238.188 187.058C240.181 185.464 242.101 183.779 243.944 182.014C247.661 178.455 251.062 174.574 254.128 170.442C260.267 162.169 265.007 152.841 268.012 142.985C268.847 140.245 269.557 137.461 270.114 134.651C270.579 132.309 270.973 129.939 271.179 127.558C273.93 130.526 276.066 134.022 277.243 138.098C275.519 146.797 271.707 154.98 266.783 162.331C261.131 170.768 254.077 178.102 246.587 184.918C244.43 186.88 242.236 188.799 240.031 190.706C237.96 192.498 235.766 194.198 233.837 196.145C232.641 193.912 231.285 191.766 229.716 189.779C227.923 187.51 225.86 185.502 223.568 183.782C224.342 179.127 224.921 174.444 225.769 169.8C226.621 165.134 227.641 160.5 228.825 155.907C231.2 146.703 234.216 137.665 237.888 128.896C239.947 123.976 242.207 119.139 244.643 114.395C244.684 114.316 244.703 114.241 244.705 114.169ZM237.164 112.429C239.334 112.906 241.51 113.391 243.678 113.915C243.662 113.936 243.642 113.95 243.629 113.976C239.259 122.466 235.544 131.29 232.469 140.329C229.412 149.315 227.005 158.519 225.276 167.852C224.321 173.009 223.44 178.255 223.179 183.5C221.993 182.638 220.755 181.844 219.455 181.139C218.537 180.642 217.595 180.192 216.636 179.777C216.738 178.781 216.763 177.776 216.824 176.777C216.893 175.654 216.973 174.531 217.064 173.409C217.254 171.066 217.49 168.728 217.773 166.395C218.332 161.794 219.073 157.216 219.995 152.675C221.85 143.526 224.397 134.535 227.674 125.792C228.579 123.373 229.539 120.976 230.552 118.601C231.536 116.291 232.631 114.024 233.609 111.712C234.814 111.924 236.004 112.173 237.164 112.429ZM209.468 128.047C209.618 128.02 209.758 127.893 209.756 127.695C209.755 127.572 209.737 127.453 209.732 127.33C210.193 126.092 210.682 124.866 211.21 123.66C213.184 119.151 216.021 114.595 220.679 112.503C224.551 110.762 228.862 110.926 233.019 111.61C231.994 113.52 231.114 115.524 230.245 117.508C229.301 119.66 228.402 121.833 227.546 124.022C225.836 128.4 224.302 132.845 222.948 137.345C220.265 146.264 218.277 155.374 217.045 164.606C216.695 167.23 216.403 169.864 216.174 172.501C216.059 173.82 215.959 175.141 215.874 176.461C215.812 177.439 215.731 178.419 215.724 179.4C213.989 178.701 212.201 178.129 210.384 177.678C210.175 175.626 209.932 173.583 209.816 171.519C209.69 169.277 209.635 167.03 209.651 164.785C209.683 160.33 210.037 155.869 210.632 151.453C211.828 142.583 214.097 133.842 217.389 125.517C219.229 120.864 221.444 116.399 223.791 111.984C223.87 111.837 223.623 111.693 223.535 111.837C221.209 115.654 219.266 119.712 217.538 123.833C215.79 128.002 214.289 132.278 213.076 136.632C210.664 145.28 209.297 154.214 209.047 163.188C208.977 165.684 208.969 168.181 209.055 170.677C209.133 172.929 209.227 175.212 209.468 177.459C208.479 177.237 207.483 177.042 206.482 176.885C206.243 176.848 206.002 176.821 205.761 176.788C205.92 176.649 206.018 176.444 205.964 176.167C203.628 164.363 203.678 152.141 206.069 140.348C206.909 136.193 208.023 132.052 209.468 128.047ZM202.029 114.414C204.976 117.307 207.259 120.853 208.48 124.81C208.583 125.146 208.662 125.491 208.743 125.835C208.694 125.965 208.64 126.092 208.592 126.222C207.507 129.12 206.575 132.076 205.792 135.07C205.316 136.885 204.903 138.717 204.539 140.558C204.72 137.904 204.657 135.233 204.392 132.611C203.808 126.819 202.197 121.085 199.655 115.846C198.95 114.392 198.168 112.974 197.317 111.598C196.925 110.966 196.513 110.345 196.091 109.732C198.207 111.111 200.222 112.64 202.029 114.414ZM184.727 103.556C186.821 104.569 188.9 105.626 190.953 106.721C192.147 107.358 193.329 108.025 194.492 108.727C195.086 109.654 195.806 110.522 196.398 111.442C197.195 112.68 197.93 113.955 198.603 115.263C199.899 117.779 200.967 120.412 201.8 123.116C203.495 128.62 204.113 134.49 203.758 140.232C203.626 142.366 203.326 144.49 202.939 146.596C202.513 143.368 201.895 140.168 201.122 137.003C199.169 129.009 196.061 121.312 191.886 114.22C190.731 112.259 189.5 110.344 188.19 108.485C186.925 106.692 185.611 104.892 184.128 103.269C184.329 103.366 184.53 103.46 184.727 103.556ZM178.164 101.625C180.04 101.633 181.828 102.242 183.53 102.999C183.49 103.062 183.472 103.138 183.533 103.221C184.746 104.861 186.038 106.44 187.219 108.104C188.401 109.767 189.519 111.475 190.574 113.221C192.698 116.74 194.554 120.424 196.136 124.219C199.283 131.769 201.316 139.71 202.135 147.848C202.2 148.494 202.24 149.142 202.291 149.789C202.29 149.791 202.29 149.795 202.29 149.798C202.287 149.805 202.295 149.81 202.294 149.818C202.419 151.434 202.515 153.054 202.551 154.673C202.588 156.297 202.556 157.919 202.546 159.542C201.508 154.82 200.24 150.146 198.755 145.547C195.509 135.497 191.108 125.829 185.712 116.753C182.668 111.637 179.307 106.716 175.638 102.028C175.626 102.014 175.612 102.009 175.601 101.996C176.419 101.758 177.273 101.621 178.164 101.625ZM167.03 109.981C167.198 109.864 167.295 109.679 167.305 109.491C167.521 109.106 167.739 108.724 167.976 108.351C169.589 105.813 171.912 103.416 174.743 102.293C174.727 102.407 174.75 102.531 174.843 102.649C181.301 110.94 186.826 119.93 191.335 129.422C195.843 138.914 199.347 148.893 201.672 159.143C202.214 161.525 202.677 163.926 203.095 166.332C203.251 168.194 203.458 170.053 203.729 171.902C203.949 173.401 204.208 174.893 204.502 176.38C204.52 176.467 204.557 176.537 204.596 176.605C204.597 176.613 204.599 176.62 204.6 176.628C203.61 176.515 202.62 176.439 201.628 176.386C193.788 171.359 186.826 165.02 181.013 157.747C175.085 150.332 170.362 141.976 167.065 133.074C165.388 128.547 164.152 123.896 163.164 119.178C163.729 117.563 164.326 115.959 164.987 114.38C165.607 112.893 166.263 111.406 167.03 109.981ZM163.588 110.081C164.165 110.087 164.74 110.089 165.316 110.093C165.284 110.247 165.252 110.4 165.22 110.554C164.297 112.422 163.514 114.366 162.782 116.27C161.685 119.124 160.738 122.041 159.971 125.003C159.49 124.197 159.009 123.391 158.567 122.56C157.886 121.28 157.257 119.972 156.666 118.648C156.075 117.325 155.527 115.981 155.02 114.624C154.54 113.34 154.17 112.001 153.629 110.741C156.927 110.255 160.269 110.046 163.588 110.081ZM139.376 115.033C143.714 112.921 148.371 111.569 153.131 110.819C153.354 112.183 153.854 113.526 154.307 114.825C154.798 116.225 155.336 117.606 155.922 118.969C156.495 120.301 157.115 121.61 157.767 122.905C158.353 124.067 158.957 125.253 159.634 126.372C159.307 127.742 159.015 129.122 158.772 130.508C157.181 139.537 157.495 148.96 160.59 157.643C162.646 163.405 165.888 168.83 170.203 173.187C164.228 169.512 158.447 165.524 153.145 160.935C145.383 154.216 138.741 146.193 134.355 136.868C132.089 132.053 130.573 126.88 129.843 121.609C132.653 118.946 135.893 116.728 139.376 115.033ZM119.93 140.86C120.298 137.211 121.432 133.68 123.125 130.434C124.802 127.219 127.017 124.337 129.61 121.836C130.619 131.538 134.863 140.728 140.589 148.541C146.868 157.107 155.034 164.121 163.734 170.132C167.584 172.792 171.558 175.261 175.583 177.645C176.159 178.032 176.742 178.407 177.339 178.759C177.442 178.821 177.545 178.849 177.647 178.859C177.908 179.012 178.168 179.167 178.43 179.318C178.325 179.346 178.219 179.373 178.113 179.401C177.254 179.315 176.384 179.312 175.521 179.264C174.375 179.201 173.229 179.11 172.086 178.991C169.831 178.758 167.588 178.417 165.363 177.974C160.958 177.095 156.638 175.81 152.461 174.159C144.087 170.848 136.274 166.063 129.558 160.06C126.365 157.206 123.438 154.056 120.727 150.737C119.953 147.507 119.594 144.176 119.93 140.86ZM131.781 175.887C129.899 172.568 128.226 169.136 126.584 165.693C124.676 161.688 122.783 157.651 121.458 153.408C121.304 152.915 121.16 152.419 121.024 151.92C125.855 158.253 131.945 163.666 138.587 168.012C146.214 173.002 154.705 176.642 163.587 178.689C166.096 179.268 168.637 179.716 171.194 180.03C172.356 180.173 173.522 180.284 174.689 180.37C173.91 180.6 173.131 180.829 172.356 181.073C172.201 181.109 172.047 181.147 171.892 181.181C171.4 181.288 170.906 181.38 170.413 181.477C170.245 181.422 170.06 181.44 169.936 181.572C167.514 182.027 165.069 182.363 162.612 182.569C156.42 183.089 150.157 182.813 144.036 181.746C140.599 181.146 137.162 180.338 133.835 179.287C133.126 178.169 132.434 177.038 131.781 175.887ZM138.177 185.254C136.727 183.545 135.419 181.723 134.195 179.843C139.973 181.907 145.955 183.159 152.081 183.619C156.629 183.96 161.21 183.865 165.744 183.351C160.011 185.5 154.431 188.049 149.056 190.989C148.138 191.492 147.229 192.01 146.323 192.535C143.29 190.485 140.545 188.045 138.177 185.254ZM149.946 192.162C149.446 194.146 149.289 196.267 149.263 198.269C149.229 200.913 149.504 203.556 150.078 206.137C151.235 211.335 153.583 216.275 156.928 220.421C157.45 221.068 158.003 221.689 158.572 222.295C155.245 219.844 152.098 217.148 149.178 214.235C146.258 211.321 143.55 208.19 141.107 204.865C139.952 203.293 138.293 201.27 139.437 199.258C139.923 198.401 140.732 197.753 141.523 197.192C142.446 196.536 143.424 195.953 144.388 195.362C146.212 194.246 148.069 193.183 149.946 192.162ZM69.6118 216.026C69.8002 213.513 70.181 210.986 70.8915 208.563C79.5658 203.312 88.9991 199.309 98.7876 196.671C108.532 194.045 118.646 192.731 128.739 192.819C131.585 192.844 134.423 192.992 137.259 193.226C138.088 193.295 138.916 193.379 139.741 193.47C138.957 193.578 138.175 193.689 137.394 193.803C134.776 194.187 132.168 194.634 129.574 195.147C124.351 196.179 119.178 197.46 114.08 198.994C103.829 202.078 93.8787 206.177 84.4378 211.225C81.8057 212.633 79.2118 214.115 76.6625 215.667C75.3726 216.453 74.0903 217.254 72.8258 218.082C71.6861 218.829 70.5286 219.568 69.4513 220.404C69.4628 218.943 69.5035 217.482 69.6118 216.026ZM69.897 229.806C69.6079 226.863 69.4501 223.891 69.4526 220.923C71.6734 219.625 73.7847 218.121 75.9762 216.771C78.2874 215.349 80.6368 213.988 83.018 212.686C87.6608 210.151 92.4296 207.849 97.3016 205.785C107.125 201.623 117.38 198.43 127.843 196.336C130.745 195.755 133.663 195.255 136.592 194.837C139.019 194.491 141.455 194.249 143.89 193.98C143.48 194.229 143.066 194.469 142.66 194.723C140.911 195.811 138.931 196.943 137.998 198.873C137.038 200.858 137.93 202.814 139.055 204.495C129.824 207.273 120.714 210.444 111.762 214.022C102.423 217.754 93.2599 221.915 84.3118 226.505C79.613 228.916 74.9562 231.426 70.4395 234.165C70.2294 232.717 70.0409 231.264 69.897 229.806ZM90.7118 275.925C88.5636 274.392 86.6446 272.578 84.9255 270.586C91.1002 269.934 97.2226 268.931 103.297 267.636C109.735 266.263 116.103 264.568 122.382 262.59C128.715 260.596 134.962 258.316 141.088 255.757C147.185 253.211 153.164 250.381 158.996 247.278C164.845 244.166 170.56 240.79 176.077 237.124C176.762 236.669 177.444 236.21 178.124 235.747C178.781 235.299 178.018 234.331 177.365 234.776C171.918 238.484 166.314 241.962 160.551 245.159C154.799 248.35 148.898 251.273 142.875 253.916C136.852 256.56 130.71 258.923 124.463 260.981C118.192 263.046 111.826 264.807 105.391 266.292C98.9723 267.774 92.4946 268.831 85.999 269.902C85.5088 269.982 85.0172 270.05 84.5257 270.121C83.8304 269.29 83.1644 268.43 82.5354 267.546C77.5845 260.584 74.4939 252.263 72.3954 244.037C71.6097 240.958 70.9947 237.838 70.521 234.697C74.7041 232.444 78.8731 230.164 83.0995 227.991C87.5564 225.7 92.0667 223.518 96.6178 221.421C105.72 217.227 115.012 213.447 124.458 210.098C129.438 208.331 134.46 206.689 139.518 205.161C140.752 206.877 142.051 208.547 143.415 210.163C148.907 216.671 155.402 222.321 162.576 226.908C168.662 230.799 175.253 233.912 182.13 236.133C177.693 240.661 172.954 244.89 167.935 248.763C162.596 252.881 156.981 256.637 151.11 259.958C145.251 263.273 139.149 266.16 132.878 268.606C126.593 271.057 120.136 273.063 113.565 274.588C107.037 276.104 100.419 277.047 93.7654 277.809C92.7123 277.246 91.6898 276.624 90.7118 275.925ZM170.747 262.629C166.054 266.483 160.968 269.858 155.564 272.631C147.481 276.78 138.75 279.635 129.782 281.089C125.264 281.822 120.682 282.212 116.104 282.217C111.612 282.224 107.079 281.934 102.677 280.997C100.06 280.44 97.499 279.614 95.0872 278.476C97.1628 278.35 99.241 278.085 101.28 277.824C104.673 277.39 108.049 276.793 111.397 276.085C118.023 274.683 124.55 272.798 130.905 270.459C137.305 268.103 143.536 265.287 149.532 262.039C155.492 258.811 161.228 255.176 166.671 251.136C172.132 247.082 177.286 242.596 182.067 237.758C182.479 237.342 182.882 236.92 183.288 236.5C184.135 236.76 184.983 237.013 185.838 237.246C187.449 237.684 189.073 238.061 190.707 238.401C190.567 238.591 190.441 238.795 190.305 238.996C189.976 239.481 189.644 239.964 189.309 240.445C188.695 241.327 188.073 242.202 187.44 243.071C186.155 244.833 184.831 246.566 183.471 248.274C180.795 251.633 177.964 254.866 175.074 258.039C173.658 259.594 172.19 261.099 170.747 262.629ZM187.265 305.246C182.41 299.879 179.216 293.004 176.921 286.202C174.488 278.989 173.23 271.15 174.692 263.599C174.885 262.602 175.13 261.607 175.405 260.621C180.66 255.808 185.353 250.371 189.296 244.437C189.68 243.859 190.046 243.269 190.416 242.684C189.559 245.397 188.767 248.129 188.109 250.907C187.051 255.375 186.277 259.902 185.752 264.464C184.706 273.561 184.745 282.783 185.866 291.872C186.179 294.41 186.57 296.939 187.047 299.451C187.292 300.74 187.559 302.025 187.85 303.305C188.118 304.49 188.365 305.698 188.824 306.827C188.285 306.321 187.762 305.797 187.265 305.246ZM195.608 311.525C193.223 310.376 191.036 308.873 189.094 307.089C189.2 307.074 189.298 306.99 189.284 306.859C189.168 305.719 188.861 304.608 188.612 303.492C188.364 302.371 188.132 301.248 187.917 300.12C187.501 297.93 187.144 295.728 186.862 293.516C186.282 289.003 185.969 284.452 185.931 279.902C185.854 270.846 186.822 261.8 188.835 252.97C189.936 248.144 191.313 243.319 193.124 238.704C193.644 238.855 194.164 239 194.685 239.145C194.665 239.22 194.688 239.301 194.737 239.36C193.849 241.511 193.217 243.758 192.633 246.01C191.997 248.46 191.447 250.936 191.013 253.431C190.155 258.359 189.667 263.351 189.55 268.351C189.312 278.4 190.539 288.48 193.239 298.164C193.998 300.886 194.86 303.577 195.844 306.227C196.333 307.546 196.851 308.854 197.398 310.15C197.766 311.023 198.13 311.901 198.549 312.75C197.55 312.39 196.567 311.988 195.608 311.525ZM205.862 314.557C203.815 314.252 201.791 313.801 199.82 313.178C199.427 312.128 198.931 311.118 198.488 310.087C197.995 308.938 197.524 307.779 197.075 306.612C196.179 304.277 195.373 301.909 194.657 299.514C193.237 294.764 192.192 289.898 191.498 284.989C190.104 275.122 190.162 265.058 191.7 255.212C192.124 252.495 192.648 249.794 193.287 247.119C193.911 244.505 194.711 241.939 195.361 239.333C196.334 239.598 197.31 239.854 198.286 240.097C199.138 240.31 199.995 240.506 200.851 240.705C200.833 245.648 201.299 250.605 201.913 255.505C202.546 260.557 203.442 265.579 204.571 270.543C206.836 280.517 210.058 290.275 214.188 299.633C215.335 302.228 216.549 304.792 217.834 307.32C218.476 308.584 219.136 309.84 219.812 311.085C220.505 312.36 221.164 313.678 222.022 314.849C216.636 315.297 211.191 315.355 205.862 314.557ZM249.994 309.331C242.767 311.666 235.315 313.298 227.782 314.245C226.127 314.453 224.457 314.635 222.784 314.785C222.846 314.677 222.868 314.546 222.806 314.405C222.285 313.228 221.6 312.132 220.981 311.003C220.376 309.902 219.784 308.793 219.206 307.676C218.034 305.416 216.919 303.125 215.859 300.81C213.754 296.208 211.872 291.505 210.219 286.722C206.906 277.136 204.521 267.231 203.106 257.187C202.342 251.767 201.96 246.332 201.573 240.877C205.342 241.734 209.143 242.454 212.966 243.024C212.961 243.105 213.003 243.189 213.101 243.192C213.44 243.203 213.778 243.193 214.117 243.19C218.971 243.877 223.86 244.356 228.757 244.582C231.317 244.701 234.164 244.697 236.684 243.891C237.339 245.853 238.131 247.773 238.869 249.705C239.65 251.745 240.427 253.786 241.205 255.826C242.748 259.874 244.282 263.925 245.809 267.979C248.863 276.088 251.885 284.209 254.843 292.353C256.459 296.804 258.119 301.244 259.633 305.732C256.471 307.065 253.259 308.277 249.994 309.331ZM260.413 305.394C257.313 297.453 254.462 289.409 251.473 281.425C248.436 273.312 245.374 265.209 242.279 257.116C241.41 254.843 240.536 252.57 239.66 250.3C238.817 248.117 238.029 245.898 237.081 243.757C238.183 243.361 239.216 242.803 240.121 242.015C241.028 243.803 242.043 245.541 243.018 247.291C244.1 249.231 245.183 251.172 246.231 253.132C248.31 257.022 250.295 260.963 252.186 264.949C255.981 272.951 259.394 281.135 262.391 289.469C263.939 293.773 265.379 298.115 266.692 302.496C264.63 303.53 262.53 304.482 260.413 305.394ZM267.573 302.049C265.03 293.974 262.191 285.999 258.966 278.169C255.591 269.981 251.823 261.955 247.679 254.129C246.515 251.93 245.32 249.747 244.097 247.581C242.966 245.579 241.804 243.566 240.485 241.679C241.917 240.278 242.701 238.52 243.097 236.636C244.15 238.56 245.35 240.412 246.464 242.302C247.625 244.27 248.762 246.253 249.875 248.25C252.085 252.211 254.224 256.22 256.215 260.295C260.2 268.444 263.791 276.799 267.032 285.271C268.842 290.004 270.523 294.786 272.086 299.607C271.672 299.842 271.262 300.084 270.845 300.315C269.766 300.911 268.672 301.485 267.573 302.049ZM280.462 294.314C277.994 296.042 275.447 297.657 272.843 299.171C270.052 290.572 266.861 282.097 263.228 273.818C259.571 265.482 255.469 257.314 251.066 249.348C249.832 247.116 248.567 244.901 247.275 242.701C245.994 240.524 244.745 238.287 243.275 236.229C243.252 236.196 243.219 236.185 243.187 236.177C243.471 234.559 243.489 232.867 243.394 231.238C244.526 232.647 245.719 234.009 246.874 235.397C248.452 237.291 250.013 239.196 251.529 241.139C254.545 244.999 257.439 248.954 260.174 253.017C265.655 261.158 270.527 269.709 274.725 278.578C277.086 283.564 279.226 288.653 281.147 293.824C280.92 293.99 280.691 294.154 280.462 294.314ZM282.008 293.193C278.576 284.009 274.462 275.081 269.694 266.516C264.897 257.899 259.46 249.601 253.369 241.841C251.674 239.681 249.941 237.549 248.147 235.471C246.61 233.69 245.038 231.908 243.322 230.291C243.308 230.146 243.293 230.001 243.278 229.857C243.701 230.157 244.144 230.43 244.62 230.631C245.379 230.952 246.166 231.193 246.967 231.378C248.597 231.755 250.266 231.9 251.933 231.982C252.245 231.997 252.558 232.004 252.87 232.014C252.789 232.099 252.756 232.232 252.846 232.333C255.743 235.609 258.679 238.848 261.43 242.251C264.163 245.63 266.746 249.129 269.172 252.736C274.057 259.995 278.288 267.684 281.807 275.696C282.791 277.937 283.726 280.201 284.603 282.487C285.386 284.527 286.067 286.604 286.82 288.654C285.464 290.396 283.779 291.864 282.008 293.193ZM284.067 266.29C287.542 272.471 292.08 280.498 287.738 287.371C287.662 287.493 287.574 287.605 287.494 287.725C286.98 286.124 286.381 284.545 285.79 282.976C285.013 280.915 284.192 278.868 283.318 276.846C281.57 272.799 279.637 268.834 277.54 264.958C273.358 257.226 268.513 249.857 263.045 242.971C260 239.138 256.795 235.391 253.233 232.027C253.992 232.047 254.752 232.061 255.512 232.062C255.548 232.22 255.628 232.372 255.751 232.484C258.493 234.967 261.315 237.342 263.95 239.946C266.577 242.544 269.079 245.269 271.454 248.098C276.205 253.754 280.447 259.848 284.067 266.29ZM302.59 248.984C300.757 252.21 297.63 254.285 294.138 255.367C291.929 256.052 289.601 256.31 287.296 256.365C284.737 256.425 282.191 256.148 279.634 256.152C279.606 256.152 279.585 256.162 279.559 256.166C278.497 254.639 277.403 253.137 276.283 251.664C271.691 245.626 266.522 240.029 260.88 234.959C260.542 234.656 260.199 234.362 259.857 234.064C260.746 234.645 261.685 235.162 262.612 235.653C263.992 236.385 265.403 237.063 266.834 237.688C269.753 238.963 272.778 240.002 275.856 240.819C281.928 242.43 288.207 243.17 294.487 242.992C296.263 242.942 298.037 242.817 299.803 242.616C300.686 242.515 301.567 242.397 302.444 242.258C303.22 242.135 304.013 242.032 304.762 241.79C304.458 244.301 303.841 246.779 302.59 248.984ZM305.007 238.658C304.979 239.392 304.929 240.132 304.861 240.872C304.854 240.872 304.847 240.868 304.84 240.868C304.073 240.891 303.323 241.08 302.567 241.205C301.812 241.33 301.053 241.442 300.294 241.54C298.744 241.74 297.188 241.88 295.627 241.964C292.518 242.13 289.399 242.058 286.299 241.764C280.113 241.177 274.017 239.697 268.258 237.363C266.667 236.719 265.101 236.019 263.567 235.251C262.419 234.677 261.301 234.036 260.163 233.444C262.363 233.846 264.592 234.11 266.815 234.315C269.96 234.605 273.12 234.726 276.278 234.699C282.636 234.646 289 234.004 295.227 232.708C298.484 232.03 301.682 231.142 304.842 230.109C305.012 232.957 305.112 235.816 305.007 238.658ZM363.547 221C365.419 225.486 367.139 230.034 368.643 234.656C369.231 236.463 369.77 238.415 369.506 240.33C369.295 241.858 368.484 243.167 367.259 244.089C364.843 245.907 361.551 246.199 358.635 246.323C351.004 246.646 343.28 245.41 336.11 242.787C329.276 240.286 322.965 236.518 317.526 231.684C312.481 227.199 308.247 221.831 304.915 215.964C304.79 214.827 304.675 213.677 304.431 212.562C304.626 212.307 304.803 212.038 304.99 211.777C305.162 211.87 305.336 211.955 305.51 212.046C305.489 212.069 305.479 212.102 305.504 212.135C305.699 212.381 305.899 212.614 306.027 212.903C306.131 213.142 306.21 213.308 306.374 213.513C306.746 213.975 307.131 214.426 307.523 214.87C308.261 215.708 309.042 216.508 309.837 217.291C311.413 218.843 313.113 220.272 314.874 221.609C318.437 224.312 322.302 226.625 326.354 228.515C334.423 232.277 343.306 234.382 352.212 234.543C357.246 234.633 362.264 234.117 367.157 232.922C367.982 232.719 367.8 231.399 366.962 231.601C358.418 233.659 349.48 233.766 340.866 232.055C332.252 230.343 323.975 226.821 316.805 221.745C314.823 220.343 312.93 218.82 311.121 217.201C310.198 216.373 309.297 215.527 308.408 214.664C308.163 214.427 307.925 214.183 307.686 213.941C310.806 215.625 314.139 216.925 317.492 218.056C321.03 219.251 324.643 220.218 328.303 220.961C335.681 222.456 343.255 223.036 350.775 222.638C355.037 222.413 359.28 221.875 363.464 221.036C363.495 221.028 363.517 221.01 363.547 221ZM363.132 220.008C355.863 221.451 348.418 221.972 341.017 221.584C333.551 221.191 326.133 219.872 318.993 217.658C314.97 216.408 311.104 214.782 307.203 213.203C307.113 213.166 307.047 213.196 306.996 213.243C306.847 213.082 306.696 212.912 306.522 212.796C306.23 212.604 305.995 212.415 305.759 212.176C313.155 215.986 321.552 217.853 329.834 218.176C338.363 218.508 346.918 217.142 354.881 214.058C356.472 213.441 358.032 212.747 359.567 212.003C360.803 214.649 361.993 217.318 363.132 220.008ZM356.356 211.939C348.853 215.183 340.707 216.873 332.533 216.928C328.331 216.956 324.124 216.561 319.997 215.771C315.815 214.97 311.777 213.682 307.799 212.181C306.988 211.874 306.179 211.561 305.377 211.231C305.88 210.496 306.363 209.745 306.789 208.957C306.858 208.829 306.92 208.698 306.987 208.57C307.039 208.524 307.096 208.484 307.148 208.438C307.276 208.322 307.306 208.158 307.272 208.013C307.295 207.967 307.32 207.921 307.342 207.874C309.28 208.908 311.38 209.675 313.458 210.366C315.675 211.104 317.931 211.725 320.212 212.23C324.772 213.24 329.434 213.781 334.103 213.862C343.457 214.023 352.862 212.377 361.578 208.971C362.427 208.638 363.268 208.283 364.105 207.918C361.618 209.434 359.03 210.783 356.356 211.939ZM385.63 185.731C384.802 187.534 383.655 189.196 382.509 190.81C380.316 193.898 377.837 196.789 375.112 199.42C373.535 200.942 371.872 202.369 370.148 203.719C369.784 203.931 369.429 204.158 369.059 204.363C367.068 205.47 365.032 206.488 362.941 207.394C358.663 209.249 354.199 210.663 349.638 211.622C340.56 213.531 331.079 213.612 321.971 211.861C319.43 211.373 316.919 210.739 314.454 209.96C312.11 209.219 309.849 208.27 307.544 207.429C308.679 204.961 309.44 202.326 309.884 199.647C310.109 198.288 310.239 196.919 310.32 195.548C312.358 196.304 314.54 196.784 316.639 197.255C319.239 197.84 321.869 198.289 324.514 198.621C329.722 199.273 334.986 199.455 340.227 199.187C350.764 198.647 361.219 196.267 370.935 192.147C376.352 189.851 381.481 186.984 386.349 183.687C386.184 184.389 385.929 185.078 385.63 185.731Z" fill="#E8E0D9"/>
</svg>
