<svg width="260" height="261" viewBox="0 0 260 261" fill="none" xmlns="http://www.w3.org/2000/svg">
<path d="M174.797 218.943C172.624 216.733 170.093 214.825 167.172 213.726C163.867 212.483 160.272 212.376 156.795 212.758C153.485 213.121 150.21 213.868 146.988 214.686C144.003 215.445 141.049 216.329 138.146 217.358C132.352 219.411 126.749 222.047 121.588 225.398C116.515 228.692 111.893 232.706 108.102 237.431C107.635 238.013 107.181 238.606 106.74 239.208C106.496 239.541 106.774 239.904 107.085 239.942C106.764 240.277 106.441 240.609 106.128 240.95C105.969 241.122 106.243 241.39 106.42 241.238C106.657 241.033 106.888 240.82 107.123 240.612C107.186 240.645 107.263 240.655 107.349 240.622C112.06 238.774 116.361 236.079 120.925 233.921C123.221 232.835 125.589 231.885 128.055 231.264C130.613 230.62 133.243 230.296 135.878 230.216C141.27 230.055 146.632 230.928 151.89 232.037C157.265 233.171 162.571 234.616 167.971 235.634C173.378 236.653 178.92 237.254 184.414 236.662C185.098 236.589 185.779 236.495 186.457 236.385C186.815 236.327 186.997 235.897 186.769 235.607C182.524 230.238 179.625 223.858 174.797 218.943ZM120.251 227.401C125.179 223.941 130.589 221.204 136.199 219.039C141.945 216.821 147.951 215.128 154.019 214.06C157.453 213.456 161.007 213.138 164.45 213.861C167.553 214.513 170.318 216.111 172.682 218.191C177.702 222.606 180.639 228.738 184.445 234.117C184.475 234.16 184.506 234.2 184.536 234.243C183.74 233.802 182.941 233.366 182.127 232.954C180.681 232.221 179.236 231.489 177.789 230.756L169.185 226.396C163.892 223.714 158.577 220.899 152.787 219.448C147.217 218.051 141.442 218.374 135.951 219.975C130.415 221.589 125.322 224.423 120.691 227.822C116.244 231.085 112.178 234.85 108.272 238.737C111.653 234.364 115.728 230.577 120.251 227.401ZM169.829 235.023C164.341 234.106 158.962 232.674 153.532 231.485C148.287 230.338 142.94 229.43 137.558 229.413C134.911 229.406 132.262 229.612 129.666 230.132C127.143 230.637 124.704 231.453 122.349 232.482C117.719 234.506 113.437 237.231 108.85 239.345C108.644 239.44 108.437 239.528 108.231 239.621C109.763 238.22 111.262 236.78 112.795 235.38C114.925 233.434 117.108 231.544 119.388 229.778C123.893 226.289 128.793 223.286 134.191 221.399C139.546 219.528 145.248 218.867 150.839 219.969C156.558 221.096 161.805 223.771 166.961 226.386C169.803 227.827 172.645 229.269 175.487 230.711C178.305 232.141 181.106 233.616 183.959 234.974C184.394 235.181 184.834 235.375 185.274 235.567C180.136 236.261 174.931 235.876 169.829 235.023Z" fill="#D2C5B6"/>
<path d="M254.987 116.091C252.348 114.556 249.555 113.303 246.652 112.357C246.001 112.144 245.344 111.952 244.685 111.771C246.641 109.425 248.233 106.78 249.402 103.954C250.969 100.163 251.78 96.0629 251.724 91.9594C251.695 89.9209 251.466 87.867 250.964 85.889C250.468 83.9375 249.623 81.8871 247.898 80.7104C245.894 79.3425 243.329 79.5507 241.038 79.8084C238.703 80.0704 236.391 80.5277 234.129 81.1652C234.087 81.1771 234.045 81.1916 234.002 81.2036C234.565 78.3706 234.541 75.4147 234.121 72.5647C233.892 71.0109 233.552 69.4527 233.045 67.9646C232.591 66.6326 231.905 65.3543 230.773 64.4788C228.681 62.8601 225.771 62.9113 223.289 63.3201C220.622 63.7595 217.994 64.5565 215.498 65.5856C213.993 66.2068 212.535 66.9355 211.121 67.741C210.908 66.2503 209.958 64.9294 208.721 64.0616C207.036 62.8806 204.973 62.541 202.967 62.9164C200.745 63.332 198.719 64.478 196.936 65.8313C195.308 67.0678 193.837 68.5167 192.553 70.1064C189.979 73.2943 188.141 77.065 187.077 81.0158C186.248 84.0988 185.908 87.2808 185.973 90.4619C185.215 88.5556 184.156 86.773 182.789 85.203C180.415 82.4767 177.366 80.4006 174.106 78.8749C170.278 77.083 166.164 76.0129 162.062 75.0546C158.267 74.1681 154.259 73.0477 150.334 73.6553C148.511 73.9377 146.779 74.6485 145.328 75.7962C143.975 76.8671 142.894 78.2477 142.022 79.7273C141.744 80.1992 141.489 80.6822 141.245 81.1703C141.519 79.7683 141.974 78.4013 142.583 77.1034C143.634 74.8661 145.125 72.8711 146.733 71.004C148.377 69.0952 150.194 67.3493 152.045 65.6436C152.13 65.5651 152.218 65.4891 152.305 65.4106C154.192 64.2425 156.114 63.1323 158.105 62.1459C159.465 61.4718 160.855 60.8574 162.266 60.2977C162.281 60.3873 162.331 60.4734 162.437 60.5383C165.284 62.2756 168.627 63.0863 171.956 62.849C173.522 62.7373 175.273 62.4565 176.642 61.6467C177.888 60.9103 178.882 59.3317 178.173 57.8879C177.441 56.3938 175.659 56.0977 174.164 56.2581C172.448 56.4425 170.729 56.8495 169.058 57.2684C165.776 58.0927 162.575 59.2157 159.5 60.6296C157.991 61.3242 156.506 62.0887 155.066 62.9284C155.952 62.1527 156.854 61.3941 157.763 60.6441C159.045 59.8292 160.239 58.8735 161.334 57.8112C164.491 55.4159 167.777 53.1914 171.205 51.204C172.122 50.6716 173.053 50.163 173.99 49.6655C174.613 49.4411 175.238 49.2175 175.871 49.0179C176.989 48.6646 178.131 48.3873 179.284 48.1722C180.006 48.0374 180.734 47.9419 181.464 47.8642C181.48 47.8992 181.492 47.9342 181.52 47.9683C183.011 49.7406 184.903 51.1528 187.041 52.0505C188.119 52.5036 189.356 52.9533 190.541 52.9072C191.572 52.8671 192.653 52.2724 192.898 51.204C193.159 50.0615 192.297 49.0324 191.418 48.4282C190.453 47.7644 189.324 47.4051 188.178 47.2038C185.727 46.7737 183.123 46.8616 180.666 47.1978C179.722 47.3266 178.788 47.5109 177.865 47.7371C180.546 46.493 183.293 45.3931 186.103 44.4672C187.204 44.1046 188.313 43.7812 189.427 43.4817C189.444 43.4808 189.46 43.4808 189.478 43.4757C189.578 43.4432 189.678 43.4159 189.778 43.3844C190.71 43.1386 191.646 42.9159 192.586 42.7103C192.606 42.735 192.619 42.7615 192.646 42.7845C194.675 44.4646 197.046 45.7438 199.568 46.5075C200.828 46.8889 202.126 47.1491 203.436 47.278C204.693 47.4017 206.028 47.4589 207.282 47.2746C208.39 47.1116 209.528 46.4878 209.483 45.2181C209.438 43.9185 208.3 43.125 207.186 42.7256C205.001 41.9406 202.649 41.5344 200.316 41.4115C200.924 41.3373 201.532 41.2673 202.142 41.2042C202.817 41.1342 203.49 41.0711 204.163 40.9892C204.396 40.961 204.399 40.5873 204.158 40.571C201.404 40.3808 198.599 40.6794 195.878 41.1009C193.125 41.5276 190.407 42.1676 187.734 42.9509C185.919 43.4825 184.128 44.0952 182.362 44.771C182.624 44.5901 182.891 44.4152 183.145 44.2223C184.684 43.0499 186.054 41.5993 186.937 39.8645C187.346 39.0598 187.778 38.0751 187.716 37.1527C187.658 36.2934 187.012 35.6978 186.17 35.6151C184.412 35.4418 182.864 36.895 182.059 38.3081C180.936 40.2809 180.892 42.6702 181.022 44.8922C180.717 45.0841 180.414 45.2778 180.104 45.4622C179.66 45.7267 179.217 45.9886 178.774 46.2523C176.598 47.2157 174.463 48.2729 172.38 49.4232C169.546 50.9898 166.803 52.7144 164.146 54.5643C164.278 54.3834 164.41 54.2017 164.538 54.0174C164.747 54.0353 164.954 53.8262 164.865 53.5788C164.861 53.5668 164.856 53.5557 164.852 53.5446C165.434 52.6598 165.967 51.7442 166.436 50.8055C167.008 49.6638 167.488 48.4794 167.873 47.2618C168.275 45.9912 168.652 44.4962 167.915 43.2717C167.317 42.2768 166.079 41.7 165.004 42.3186C163.96 42.9193 163.496 44.2419 163.197 45.3393C162.809 46.7643 162.698 48.2542 162.873 49.7218C162.961 50.4625 163.128 51.1938 163.358 51.9029C163.532 52.4379 163.734 52.9917 164.029 53.4789C163.412 54.3928 162.734 55.2649 162.006 56.0917C160.939 56.8751 159.887 57.678 158.85 58.5006C156.699 60.2055 154.61 61.9881 152.578 63.832C150.661 65.5719 148.774 67.3596 147.029 69.2735C145.315 71.1534 143.784 73.1731 142.556 75.4062C141.407 77.4968 140.55 79.8263 140.438 82.2284C140.427 82.4656 140.427 82.7028 140.428 82.9392C140.38 83.0552 140.328 83.1704 140.281 83.2865C139.152 78.2665 134.696 74.4275 130.427 71.894C129.054 71.0791 127.642 70.3333 126.218 69.6114C124.791 68.8878 123.361 68.0951 121.828 67.6164C120.356 67.1574 118.852 67.0695 117.365 67.5123C115.982 67.9245 114.722 68.7394 113.696 69.7463C112.894 70.5339 112.228 71.4358 111.642 72.3932C113.084 67.6386 114.973 63.0487 117.395 58.6969C118.53 56.6566 119.782 54.6829 121.118 52.7681C121.35 52.5284 121.582 52.2894 121.814 52.0488C121.873 52.0428 121.934 52.0147 121.99 51.9575C122.366 51.5795 122.715 51.1784 123.061 50.7731C123.112 50.7219 123.163 50.6707 123.214 50.6195C129.426 46.3155 137.188 45.0773 144.187 42.4278C145.498 41.9312 147.916 40.9798 147.195 39.117C146.568 37.4966 144.135 37.6246 142.756 37.6877C138.688 37.8746 134.777 39.4788 131.432 41.7418C129.876 42.7939 128.433 44.0013 127.07 45.2915C127.186 45.1626 127.299 45.0312 127.415 44.9041C131.369 40.5907 135.766 36.6996 140.464 33.2156C141.288 32.6038 142.126 32.009 142.966 31.4211C146.228 29.7222 149.613 28.2698 153.103 27.1239C153.083 27.3227 153.184 27.5454 153.433 27.6C156.936 28.3612 160.582 28.4789 164.125 27.9234C165.843 27.6538 167.544 27.2356 169.191 26.6793C169.924 26.4318 170.728 26.2048 171.308 25.6664C171.771 25.2372 172.054 24.5708 171.643 23.9999C171.254 23.4598 170.535 23.4197 169.929 23.4359C169.045 23.4598 168.16 23.5187 167.278 23.5912C165.536 23.7337 163.799 23.953 162.076 24.2465C158.627 24.8344 155.214 25.7133 151.921 26.8952C149.844 27.6401 147.814 28.4994 145.841 29.4764C149.233 27.2561 152.737 25.2073 156.322 23.3122C161.822 20.4041 167.507 17.9065 173.222 15.4558C173.93 15.152 174.618 14.8022 175.313 14.4711C175.674 14.2996 175.442 13.7867 175.071 13.9079C172.071 14.8858 169.175 16.1291 166.295 17.4124C163.418 18.6949 160.57 20.0457 157.765 21.4801C157.069 21.8359 156.376 22.1969 155.684 22.5638C158.872 20.0474 161.748 17.1701 163.915 13.698C164.793 12.2935 165.551 10.8113 166.134 9.26084C166.421 8.49969 166.661 7.72319 166.863 6.93474C167.038 6.24783 167.332 5.39966 167.11 4.69398C166.873 3.94051 166.072 3.79033 165.43 4.13677C164.751 4.50369 164.181 5.1394 163.646 5.68636C162.542 6.81357 161.574 8.07049 160.76 9.42126C159.827 10.9683 159.085 12.6246 158.576 14.3585C158.327 15.2066 158.127 16.0693 157.985 16.9423C157.838 17.8425 157.694 18.7803 157.819 19.689C157.826 19.7471 157.847 19.7948 157.872 19.8349C157.591 20.1003 157.305 20.3623 157.017 20.62C155.487 21.9836 153.873 23.2473 152.225 24.465C148.585 26.5248 145.035 28.7477 141.633 31.1788C139.114 32.9792 136.672 34.8915 134.331 36.9198C134.338 36.8959 134.349 36.8728 134.35 36.8455C134.355 36.7867 134.351 36.7278 134.354 36.6689C137.607 32.4706 140.3 27.8065 141.207 22.5647C141.368 21.632 141.465 20.6883 141.49 19.7419C141.513 18.8844 141.535 17.9696 141.357 17.1266C141.229 16.5173 140.971 15.8492 140.432 15.4899C139.836 15.0923 139.116 15.2792 138.624 15.7485C138.021 16.3228 137.597 17.1317 137.178 17.8425C136.728 18.6071 136.31 19.3904 135.933 20.1933C135.19 21.7754 134.599 23.4257 134.157 25.116C133.652 27.0496 133.338 29.0318 133.243 31.0286C133.196 32.0039 133.198 32.9818 133.25 33.9571C133.285 34.609 133.307 35.2934 133.43 35.9461C133.405 36.2473 133.379 36.5486 133.372 36.8489C133.372 36.8711 133.386 36.8831 133.391 36.9018C132.59 37.9429 131.772 38.9728 130.955 40.0019C129.987 40.9337 129.038 41.8851 128.117 42.8647C124.192 47.0382 120.668 51.6102 117.743 56.5406C114.841 61.4334 112.492 66.7102 111.116 72.2413C111.094 72.3266 111.076 72.4128 111.056 72.4982C110.148 68.8503 109.328 65.1905 108.817 61.4607C108.262 57.4135 107.97 53.3245 107.973 49.2389C107.974 48.5579 107.997 47.8787 108.015 47.1986C108.179 46.8061 108.357 46.4196 108.541 46.0364C108.604 46.0962 108.717 46.1073 108.762 46.0032C109.232 44.9323 109.761 43.8955 110.314 42.8749C112.514 39.443 115.351 36.3881 118.187 33.475C122.979 28.5523 128.079 23.5511 130.368 16.8979C130.906 15.3329 131.283 13.7048 131.422 12.0545C131.554 10.4879 131.551 8.78214 131.077 7.26839C130.626 5.82972 129.465 4.79722 127.919 4.78698C126.419 4.77674 125.013 5.48839 123.797 6.30927C123.565 6.46628 123.338 6.63096 123.111 6.7948C121.134 4.49003 118.597 2.73053 115.796 1.5615C112.966 0.380534 109.805 -0.238106 106.739 0.0852949C103.671 0.408696 100.799 1.81408 99.1388 4.49089C98.7906 5.05236 98.5073 5.64455 98.2547 6.25039C96.0549 4.44992 93.0709 3.91917 90.2994 4.25196C87.0261 4.64533 84.014 6.15397 81.1017 7.60629C75.9059 10.1978 70.3885 13.198 67.3388 18.3639C66.4803 19.8179 65.8608 21.4545 65.8668 23.162C65.8711 24.4488 66.2107 26.0231 67.1527 26.9865C64.2848 27.9797 61.7053 29.7324 59.8203 32.23C58.2733 34.2788 57.2365 36.7406 56.9737 39.3022C56.7177 41.8032 57.2408 44.3682 58.4303 46.5817C59.6121 48.7807 61.4126 50.6357 63.6687 51.7331C66.3626 53.0429 69.4319 53.1999 72.3724 53.0113C75.5672 52.8065 78.7577 52.3048 81.9183 51.815C85.2359 51.3013 88.5416 50.7066 91.8277 50.0171C92.0265 49.9753 92.2219 49.9283 92.419 49.884C93.0027 49.8609 93.5855 49.8464 94.1683 49.8106C96.2469 49.6826 98.3213 49.4744 100.384 49.1851C101.841 48.9812 103.404 48.6936 104.856 49.0844C104.98 49.1177 105.099 49.1621 105.216 49.2082C105.42 49.5367 105.605 49.8806 105.761 50.2483C105.918 50.6187 106.412 50.4463 106.423 50.1093C106.637 50.7578 106.871 51.4003 107.033 52.0667C107.127 52.4567 107.197 52.8509 107.255 53.2477C107.562 59.1798 108.485 65.0727 110.025 70.8172C110.215 71.5245 110.429 72.2243 110.653 72.9206C109.575 72.8617 108.492 72.8728 107.415 72.9129C105.998 72.9658 104.583 73.0861 103.177 73.2823C100.351 73.6766 97.5567 74.3763 94.9089 75.4463C89.9734 77.4413 85.6293 80.8068 82.7673 85.3284C81.4131 87.4676 80.4011 89.8091 79.8712 92.2896C79.3481 94.7343 79.3669 97.2473 79.7987 99.7006C79.7236 99.6954 79.6494 99.7868 79.7048 99.8695C79.7594 99.9514 79.8209 100.028 79.8763 100.109C79.9036 100.25 79.9267 100.392 79.9574 100.533C80.6033 103.538 81.7817 106.396 83.066 109.179C84.2154 111.667 85.4023 114.146 86.6925 116.565C89.1184 121.113 92.0598 125.555 96.3058 128.598C96.6377 128.837 96.9927 129.046 97.3511 129.249C96.9535 129.274 96.555 129.305 96.1573 129.343C94.9618 129.135 93.7544 128.991 92.5487 128.866C90.86 128.69 89.1611 128.597 87.4639 128.553C84.0362 128.465 80.6033 128.614 77.197 129.003C70.3765 129.782 63.6576 131.5 57.3048 134.102C54.0221 135.447 50.8487 137.042 47.7956 138.847C48.0652 138.087 48.3835 137.345 48.776 136.632C50.1669 134.105 52.4248 132.252 54.8567 130.774C59.7947 127.773 65.4231 125.837 71.1146 124.916C76.8633 123.987 82.7562 124.114 88.4674 125.248C89.8779 125.527 91.2739 125.876 92.652 126.286C93.0547 126.405 93.3133 125.807 92.9045 125.673C92.7202 125.613 92.5333 125.564 92.3482 125.506C91.1143 123.49 89.1867 122.079 87.2343 120.8C85.131 119.422 83.025 118.081 81.0641 116.5C78.7713 114.651 76.6543 112.602 74.6942 110.41C74.7872 110.352 74.8692 110.275 74.9076 110.183C75.0219 109.914 74.87 109.672 74.6413 109.542C74.5415 109.485 74.4408 109.427 74.341 109.371C74.3794 108.595 74.3555 107.814 74.3521 107.039C74.3478 106.043 74.3384 105.048 74.323 104.052C74.2915 102.062 74.2241 100.072 74.1029 98.0853C73.8605 94.108 73.3921 90.1308 72.462 86.2517C71.5447 82.4263 70.1478 78.7298 68.1972 75.3089C66.3037 71.987 63.9554 68.9527 61.3802 66.1343C59.9321 64.5488 58.4107 63.0325 56.8526 61.5554C55.4668 60.2422 54.0512 58.9495 52.5715 57.7403C52.5255 57.5722 52.4802 57.4033 52.4333 57.2352C52.3838 57.0585 52.1645 57.0346 52.0758 57.1413C52.0749 57.0637 52.0775 56.9869 52.0758 56.9092C52.0715 56.6182 51.6312 56.6558 51.5851 56.9152C51.19 59.1457 51.2353 61.5017 51.295 63.7604C51.3556 66.0668 51.5194 68.369 51.731 70.6661C52.1236 74.9173 52.5596 79.1906 53.2303 83.4085C53.8489 87.2978 54.7756 91.1983 56.5522 94.7352C58.2562 98.1288 60.747 100.985 63.6406 103.418C66.5332 105.852 69.757 107.844 73.0243 109.734C73.1813 109.918 73.3332 110.107 73.4928 110.289C73.5192 110.337 73.5542 110.377 73.596 110.408C73.6063 110.42 73.6174 110.431 73.6285 110.444C73.6327 110.454 73.637 110.464 73.6404 110.474C73.6822 110.578 73.753 110.639 73.8332 110.671C75.3982 112.44 77.0673 114.115 78.8507 115.659C80.7484 117.301 82.7665 118.792 84.8886 120.131C86.9997 121.464 89.2217 122.716 90.9966 124.5C91.2636 124.768 91.5196 125.046 91.7688 125.33C86.4322 123.736 80.8542 123.145 75.2924 123.526C69.3492 123.933 63.458 125.461 58.0787 128.022C55.4378 129.279 52.784 130.748 50.6499 132.775C48.5303 134.788 47.1701 137.323 46.4414 140.139C45.7059 142.983 45.5856 145.94 45.6248 148.864C45.67 152.172 45.9721 155.476 46.5276 158.736C47.5609 164.796 49.3853 170.901 52.3266 176.321C54.494 180.315 57.4106 183.951 61.2394 186.372C61.201 186.379 61.1626 186.383 61.1242 186.39C60.9936 186.413 60.9834 186.626 61.1267 186.633C61.3153 186.643 61.5047 186.645 61.6942 186.649C62.3896 187.064 63.1115 187.444 63.8667 187.774C66.6783 189.003 69.7323 189.614 72.776 189.897C75.8846 190.186 79.0298 190.18 82.1418 189.946C88.3931 189.474 94.5753 187.997 100.368 185.599C104.23 184 107.909 181.973 111.34 179.587C111.273 179.762 111.208 179.938 111.143 180.114C110.928 180.7 110.709 181.283 110.482 181.864C110.428 182.001 110.467 182.15 110.553 182.264C109.166 184.483 107.859 186.752 106.636 189.064C103.852 194.327 101.495 199.813 99.5697 205.448C97.6455 211.079 96.1505 216.859 95.112 222.718C94.6726 225.197 94.3244 227.693 94.0497 230.197C93.9063 228.094 93.6998 225.997 93.414 223.916C92.8184 219.581 91.855 215.293 90.302 211.196C88.8582 207.389 86.9109 203.744 84.3741 200.55C81.9217 197.461 78.9001 194.851 75.5245 192.816C68.7262 188.717 60.776 186.887 52.8762 187.014C43.9131 187.158 35.1079 189.72 26.9955 193.42C18.6528 197.224 10.9313 202.227 3.33262 207.321C2.41105 207.938 1.51594 208.561 0.64984 209.255C0.568776 209.32 0.528671 209.408 0.520138 209.498C0.436514 209.494 0.352892 209.491 0.268415 209.485C0.0610629 209.47 -0.0251205 209.671 0.0371705 209.814C-0.0882648 210.026 0.119939 210.358 0.419448 210.253C0.601201 210.19 0.781249 210.125 0.963002 210.061C4.03318 210.501 7.1648 210.428 10.2495 210.189C13.6243 209.927 16.9726 209.414 20.3108 208.868C26.9853 207.775 33.7221 206.489 40.5169 206.771C43.966 206.915 47.3587 207.511 50.6507 208.551C53.9752 209.602 57.17 211.021 60.2922 212.562C66.5196 215.635 72.5217 219.159 78.2508 223.083C81.0419 224.995 83.7981 226.982 86.4237 229.118C88.76 231.019 91.0409 233.158 92.5043 235.827C92.8644 236.483 93.1682 237.166 93.4208 237.871C93.4285 237.891 93.4421 237.902 93.4506 237.92C93.4148 238.773 93.3858 239.626 93.3696 240.478C93.2604 246.415 93.5735 252.394 94.5719 258.253C94.6956 258.979 94.8492 259.7 95.0002 260.42C95.0625 260.716 95.502 260.655 95.467 260.351C94.8057 254.472 94.2971 248.581 94.3159 242.66C94.3355 236.754 94.8065 230.85 95.7264 225.016C96.6437 219.2 97.9987 213.452 99.7856 207.842C101.571 202.237 103.785 196.77 106.4 191.5C108.146 187.981 110.096 184.584 112.187 181.269C113.026 180.427 113.865 179.585 114.701 178.739C115.166 178.269 115.759 177.758 116.214 177.18C115.517 180.774 115.834 184.62 116.612 188.118C117.191 190.725 118.041 193.27 119.075 195.731C120.027 197.996 121.127 200.208 122.481 202.261C123.818 204.287 125.435 206.148 127.365 207.632C129.298 209.118 131.527 210.192 133.856 210.894C138.668 212.346 143.782 212.354 148.751 211.98C153.958 211.587 159.127 210.7 164.165 209.33C169.221 207.956 174.147 206.11 178.841 203.779C178.922 203.739 179.003 203.696 179.084 203.655C179.254 203.736 179.495 203.619 179.555 203.413C181.639 202.352 183.677 201.2 185.657 199.954C187.729 198.649 189.837 197.29 191.609 195.587C193.332 193.932 194.695 191.896 194.982 189.475C195.303 186.758 194.35 184.063 193.196 181.648C191.64 178.394 189.784 175.259 187.741 172.265C189.155 172.479 190.602 172.573 192.028 172.575C193.481 172.578 194.94 172.48 196.36 172.156C198.845 171.591 201.223 170.375 202.788 168.313C204.292 166.331 204.911 163.842 205.13 161.401C205.38 158.619 205.204 155.79 205.042 153.008C204.94 151.247 204.807 149.487 204.638 147.732C204.592 147.25 204.537 146.769 204.486 146.287C206.225 149.436 208.557 152.298 211.091 154.791C214.653 158.293 218.895 161.101 223.505 163.021C228.415 165.065 233.739 166.124 239.057 166.084C241.27 166.067 243.641 165.988 245.669 164.994C246.577 164.549 247.409 163.907 247.941 163.033C248.607 161.939 248.751 160.664 248.584 159.41C248.403 158.042 247.913 156.726 247.464 155.429C246.989 154.055 246.491 152.689 245.972 151.33C244.942 148.637 243.825 145.975 242.626 143.352C242.361 142.774 242.09 142.199 241.815 141.626C244.796 140.093 247.598 138.209 250.139 136.028C250.643 135.707 251.134 135.367 251.556 134.946C251.629 134.874 251.643 134.772 251.62 134.684C253.36 133.044 254.974 131.268 256.413 129.359C257.209 128.304 257.973 127.212 258.641 126.071C259.375 124.817 260.014 123.427 260 121.943C259.978 119.012 257.227 117.394 254.987 116.091ZM177.501 58.3923C177.508 58.411 177.517 58.4289 177.523 58.4486C177.726 59.1082 177.442 59.8224 177.008 60.3233C176.028 61.4522 174.207 61.7525 172.804 61.9411C169.68 62.3618 166.439 61.7602 163.661 60.2686C168.278 60.3122 172.913 59.6082 177.37 58.452C177.422 58.4392 177.464 58.417 177.501 58.3923ZM166.854 58.7028C168.364 58.2506 169.895 57.8675 171.439 57.5509C172.205 57.3939 172.975 57.2471 173.748 57.1302C174.548 57.0099 175.411 56.9212 176.188 57.2045C176.543 57.3342 176.888 57.5398 177.148 57.8188C172.646 59.0979 168.022 59.6799 163.36 59.8915C164.514 59.4597 165.676 59.0561 166.854 58.7028ZM186.174 47.7644C187.206 47.8343 188.252 47.9529 189.242 48.267C190.205 48.5733 191.241 49.0665 191.832 49.9207C191.963 50.111 192.066 50.3277 192.113 50.5512C191.903 50.3883 191.671 50.2432 191.483 50.1109C191.107 49.8464 190.717 49.6015 190.317 49.3745C189.488 48.9027 188.614 48.5144 187.708 48.2166C187.135 48.028 186.546 47.8727 185.949 47.7533C186.024 47.7575 186.1 47.7592 186.174 47.7644ZM187.567 48.715C188.413 49.0034 189.233 49.3703 190.01 49.8106C190.404 50.0342 190.787 50.279 191.156 50.5419C191.444 50.7458 191.735 51.0428 192.049 51.233C192.041 51.2501 192.037 51.268 192.027 51.2851C191.827 51.6733 191.413 51.9344 190.998 52.0411C189.938 52.3133 188.716 51.8278 187.739 51.4387C185.795 50.6647 184.045 49.4462 182.631 47.9077C184.305 47.9794 185.97 48.1697 187.567 48.715ZM205.11 42.8895C205.732 43.0456 206.357 43.218 206.959 43.4398C207.499 43.6395 208.06 43.9049 208.413 44.3793C208.657 44.707 208.804 45.1541 208.704 45.5552C206.376 44.3972 203.847 43.5772 201.311 43.0337C199.061 42.5515 196.77 42.2921 194.474 42.3544C198.013 41.8655 201.636 42.0148 205.11 42.8895ZM201.177 43.5875C203.678 44.1378 206.051 45.0133 208.37 46.0834C208.085 46.3274 207.687 46.4443 207.327 46.5083C206.191 46.7106 204.975 46.6457 203.831 46.539C202.633 46.4272 201.442 46.2062 200.286 45.8718C198.007 45.2122 195.873 44.1609 193.976 42.7495C196.393 42.8349 198.813 43.0669 201.177 43.5875ZM186.985 37.099C187.011 37.221 187.025 37.3532 187.011 37.5051C186.935 38.3379 186.528 39.1836 186.129 39.9072C185.304 41.4064 184.089 42.6668 182.744 43.7095C182.54 43.8674 182.326 44.0098 182.115 44.1566C183.144 43.1378 184.067 42.0157 184.883 40.8176C185.345 40.1376 185.773 39.4344 186.165 38.7125C186.372 38.3337 186.567 37.9489 186.753 37.5597C186.823 37.413 186.908 37.2577 186.985 37.099ZM182.331 39.408C182.878 38.0359 184.023 36.5912 185.572 36.3429C185.977 36.2781 186.347 36.3352 186.612 36.5161C186.486 36.7431 186.409 37.0094 186.306 37.2423C186.14 37.6178 185.96 37.9872 185.774 38.3525C185.381 39.1196 184.947 39.8645 184.473 40.5838C183.672 41.8023 182.75 42.9313 181.762 44.003C181.729 42.4457 181.746 40.8765 182.331 39.408ZM167.342 43.8042C167.912 44.9485 167.38 46.388 166.998 47.5092C166.636 48.575 166.201 49.6169 165.701 50.6246C165.459 51.111 165.192 51.5829 164.915 52.0496C165.901 49.1356 166.371 46.0091 166.505 42.9526C166.868 43.1267 167.167 43.4526 167.342 43.8042ZM163.71 50.2014C163.502 49.0221 163.489 47.8156 163.682 46.6329C163.859 45.5543 164.171 44.3111 164.868 43.4407C165.147 43.0917 165.538 42.8152 165.987 42.8203C165.928 44.5252 165.75 46.2225 165.444 47.9009C165.169 49.4036 164.773 50.8729 164.343 52.3355C164.287 52.2049 164.225 52.0761 164.177 51.9421C163.969 51.3764 163.815 50.7936 163.71 50.2014ZM159.819 25.3311C163.014 24.6766 166.259 24.2858 169.517 24.1527C169.901 24.1373 171.238 23.976 171.139 24.6885C171.124 24.7978 171.075 24.8933 171.014 24.9838C170.391 25.0299 169.759 25.1783 169.145 25.2637C168.435 25.3626 167.723 25.4522 167.01 25.5376C165.561 25.7099 164.108 25.8533 162.653 25.9676C161.222 26.0811 159.79 26.1681 158.356 26.2287C157.639 26.2595 156.923 26.2791 156.205 26.3055C156.068 26.3106 155.93 26.3141 155.793 26.3175C157.122 25.9437 158.463 25.6084 159.819 25.3311ZM154.366 26.7373C155.679 26.8713 157.048 26.768 158.357 26.7177C159.815 26.6614 161.273 26.5778 162.728 26.4668C164.183 26.3567 165.637 26.2211 167.088 26.0615C167.801 25.983 168.514 25.8968 169.226 25.8064C169.38 25.7867 169.537 25.7705 169.694 25.7543C169.638 25.7739 169.581 25.7936 169.534 25.8106C167.953 26.3806 166.326 26.803 164.668 27.0752C161.103 27.6614 157.453 27.5949 153.914 26.8738C154.064 26.8261 154.215 26.7834 154.366 26.7373ZM166.288 4.71957C166.168 5.09417 166.095 5.49266 165.985 5.8647C165.832 6.38095 165.666 6.89379 165.486 7.40065C165.132 8.39645 164.724 9.37262 164.262 10.3223C163.328 12.2389 162.184 14.0521 160.862 15.7246C160.504 16.1777 160.132 16.6206 159.747 17.0506C159.575 17.2435 159.393 17.4304 159.212 17.6181C159.321 17.2964 159.408 16.9627 159.517 16.6649C159.75 16.0292 159.996 15.3986 160.257 14.774C160.779 13.5248 161.356 12.3003 161.992 11.1048C163.19 8.85212 164.595 6.71032 166.137 4.67775C166.19 4.68031 166.244 4.68886 166.288 4.71957ZM159.212 15.2416C159.572 13.8064 160.102 12.4078 160.762 11.0844C161.425 9.75576 162.237 8.50226 163.175 7.35116C163.641 6.7803 164.136 6.23247 164.665 5.71878C164.817 5.57201 165.275 5.08137 165.695 4.82708C163.256 7.96382 161.253 11.4402 159.701 15.0949C159.47 15.6401 159.25 16.1896 159.039 16.7434C158.967 16.9312 158.886 17.1257 158.809 17.3228C158.908 16.6223 159.041 15.9268 159.212 15.2416ZM158.668 18.6301C158.681 18.6258 158.694 18.6292 158.707 18.6199C159.122 18.3255 159.475 17.9278 159.825 17.56C160.21 17.1556 160.582 16.7392 160.943 16.3134C161.639 15.4916 162.286 14.629 162.883 13.7338C163.999 12.0622 164.929 10.2643 165.678 8.39815C165.59 8.65158 165.504 8.90587 165.408 9.15674C164.843 10.627 164.125 12.0366 163.286 13.3695C161.967 15.4635 160.377 17.3706 158.622 19.1122C158.641 18.9518 158.654 18.7905 158.668 18.6301ZM134.179 34.3761C134.17 34.2762 134.168 34.1772 134.16 34.0774C134.228 33.6038 134.3 33.1311 134.386 32.6601C134.645 31.2547 134.96 29.8587 135.335 28.4797C136.077 25.7458 137.035 23.0647 138.198 20.4818C138.74 19.2795 139.333 18.0985 139.954 16.9346C139.901 17.3476 139.881 17.77 139.834 18.1736C139.756 18.8357 139.664 19.4953 139.557 20.1532C139.337 21.51 139.043 22.8556 138.69 24.1842C138.009 26.7561 137.068 29.2784 135.948 31.6907C135.428 32.8094 134.843 33.8991 134.242 34.9777C134.219 34.7771 134.196 34.5766 134.179 34.3761ZM140.647 17.031C140.656 17.0651 140.668 17.101 140.676 17.1334C140.864 17.9005 140.85 18.7487 140.836 19.5337C140.821 20.4152 140.741 21.2958 140.608 22.1679C140.066 25.7065 138.624 29.0566 136.767 32.0978C136.012 33.335 135.185 34.5211 134.324 35.6833C134.316 35.604 134.306 35.5246 134.296 35.4453C137.08 31.0064 138.948 25.9753 140 20.8564C140.156 20.0969 140.299 19.3358 140.419 18.5704C140.496 18.0789 140.606 17.5498 140.647 17.031ZM134.552 27.0035C135.156 23.7269 136.355 20.5406 138.089 17.6949C138.288 17.3689 138.49 17.0438 138.707 16.7298C138.92 16.4217 139.194 16.0275 139.59 15.955C139.774 15.9209 139.929 15.9678 140.063 16.0565C137.184 20.9212 135.192 26.2919 134.083 31.8315C134.102 30.2128 134.259 28.5958 134.552 27.0035ZM146.038 40.5668C145.372 41.1777 144.431 41.4551 143.603 41.7631C139.66 43.2291 135.56 44.2206 131.599 45.6362C131.103 45.8137 130.611 46.0031 130.121 46.1968C133.621 44.3725 137.258 42.8297 141.022 41.5822C142.732 41.0156 144.458 40.4951 146.201 40.0403C146.384 39.9925 146.459 39.8287 146.448 39.6785C146.465 39.9857 146.323 40.3048 146.038 40.5668ZM130.378 43.5081C133.45 41.1351 137.024 39.3073 140.886 38.6955C141.839 38.5444 142.807 38.4685 143.772 38.4847C144.157 38.4915 144.568 38.5018 144.964 38.5666C141.404 39.1563 137.926 40.2323 134.655 41.7546C132.108 42.9398 129.683 44.3836 127.432 46.062C128.371 45.1644 129.348 44.3034 130.378 43.5081ZM129.25 45.5586C132.443 43.3588 135.955 41.6377 139.648 40.4541C141.736 39.7852 143.88 39.2988 146.052 38.9924C146.055 38.9916 146.058 38.9899 146.061 38.989C146.302 39.1708 146.422 39.3978 146.447 39.6341C146.418 39.4822 146.301 39.3585 146.11 39.4105C139.95 41.0856 134.037 43.5883 128.471 46.7097C127.873 47.045 127.284 47.3966 126.696 47.749C126.368 47.9197 126.042 48.0955 125.72 48.2764C126.846 47.3096 128.026 46.4025 129.25 45.5586ZM130.399 8.45873C130.52 9.24036 130.564 10.0391 130.55 10.8301C130.521 12.4385 130.26 14.0453 129.805 15.5872C127.882 22.115 123.093 27.1238 118.462 31.8776C117.41 32.9579 116.346 34.0535 115.305 35.1782C116.334 33.7745 117.392 32.3904 118.452 31.0132C122.017 26.3806 125.613 21.696 127.961 16.3014C129.117 13.6443 130.003 10.7703 130.28 7.86569C130.328 8.06281 130.368 8.26162 130.399 8.45873ZM129.632 6.47908C129.703 6.5627 129.756 6.65741 129.815 6.74872C129.794 6.78285 129.78 6.82381 129.777 6.87416C129.545 9.78903 128.887 12.5793 127.793 15.2928C126.7 17.9995 125.266 20.5551 123.684 23.0033C120.487 27.9516 116.614 32.4143 113.292 37.2739C113.106 37.5452 112.93 37.8217 112.748 38.0956C111.694 39.3815 110.711 40.717 109.843 42.1198C109.826 42.0976 109.811 42.0711 109.788 42.0566C109.851 41.8638 109.911 41.6709 109.979 41.479C110.472 40.0983 111.061 38.7535 111.723 37.4454C113.057 34.8096 114.675 32.329 116.363 29.909C119.742 25.0674 123.466 20.4237 126.061 15.088C127.467 12.1996 128.502 9.11833 128.896 5.92272C129.166 6.0456 129.417 6.22394 129.632 6.47908ZM125.913 6.17446C126.645 5.85788 127.54 5.62151 128.339 5.75547C127.695 11.6595 124.762 16.9644 121.499 21.8138C118.203 26.7117 114.451 31.317 111.701 36.5648C110.66 38.5513 109.719 40.6786 109.103 42.8732C109.003 43.0576 108.905 43.2427 108.81 43.4304C108.765 43.4364 108.722 43.4569 108.7 43.5166C108.631 43.7078 108.553 43.8963 108.48 44.0858C108.581 42.7836 108.695 41.479 108.827 40.1751C108.947 39.7254 109.068 39.2757 109.206 38.8303C109.92 36.54 110.856 34.3257 111.867 32.1524C113.908 27.7579 116.283 23.5042 117.928 18.9347C118.837 16.4064 119.517 13.7919 119.757 11.1099C119.761 11.0664 119.754 11.028 119.743 10.9922C120.531 10.1543 121.367 9.36153 122.255 8.62257C123.372 7.69503 124.571 6.7547 125.913 6.17446ZM109.094 37.779C109.359 35.6048 109.692 33.4391 110.128 31.2965C110.159 31.1787 110.187 31.061 110.202 30.9398C110.202 30.9373 110.202 30.9347 110.203 30.933C110.738 28.3773 111.424 25.8567 112.325 23.3966C113.867 19.1899 116.076 15.1503 119.036 11.7695C118.541 16.3373 116.805 20.6371 114.869 24.773C112.86 29.066 110.596 33.271 109.094 37.779ZM114.554 1.9506C117.602 3.036 120.353 4.86549 122.637 7.15063C118.092 10.5937 114.72 15.437 112.45 20.6328C112.445 20.6439 112.441 20.6558 112.436 20.6669C113.614 16.4627 114.32 12.1185 114.541 7.78206C114.64 5.8391 114.642 3.89357 114.554 1.9506ZM105.76 1.06061C108.485 0.536683 111.34 0.905318 113.967 1.75521C113.946 1.80043 113.931 1.85077 113.933 1.9105C114.253 8.9272 113.381 16.0284 111.332 22.7481C110.928 24.0742 110.473 25.3874 109.995 26.6912C109.995 26.6887 109.994 26.687 109.994 26.6844C110.273 24.2388 110.287 21.7566 110.099 19.3127C109.789 15.2689 108.875 11.2507 107.4 7.47232C106.58 5.3715 105.556 3.3543 104.38 1.43181C104.833 1.28163 105.293 1.15106 105.76 1.06061ZM99.1703 6.18555C99.783 4.83307 100.656 3.60772 101.852 2.71261C102.443 2.2706 103.094 1.91989 103.776 1.64427C103.78 1.69718 103.793 1.75008 103.826 1.80384C108.021 8.58417 110.069 16.6163 109.66 24.5767C109.657 24.6262 109.652 24.6749 109.65 24.7244C109.383 23.5067 109.034 22.3061 108.6 21.1388C107.364 17.8118 105.44 14.7237 102.99 12.1544C101.617 10.714 100.092 9.44687 98.3605 8.46216C98.5764 7.6848 98.8375 6.92109 99.1703 6.18555ZM98.2684 8.81542C101.018 10.8847 103.453 13.285 105.318 16.1922C107.184 19.1003 108.48 22.3966 109.069 25.8013C109.158 26.3201 109.223 26.8423 109.278 27.3662C109.222 27.2689 109.167 27.1742 109.117 27.0846C108.879 26.6554 108.616 26.2407 108.326 25.8448C107.718 25.0145 106.999 24.2644 106.221 23.5929C104.555 22.1542 102.588 21.0893 100.565 20.2403C99.4169 19.7582 98.2479 19.3537 97.0635 18.974C97.0601 17.9696 97.0883 16.9662 97.1548 15.9678C97.2751 14.1665 97.5089 12.372 97.8571 10.6005C97.9757 10.0024 98.1131 9.40676 98.2684 8.81542ZM107.82 26.4438C107.803 26.4327 107.79 26.419 107.773 26.4079C106.523 25.5888 104.961 25.4292 103.502 25.4983C101.721 25.5828 99.9485 25.9574 98.2539 26.4984C98.1139 26.5428 97.9783 26.5974 97.8392 26.6443C97.3477 24.2764 97.1053 21.8539 97.0695 19.4313C100.825 21.0543 104.815 22.5843 107.421 25.8994C107.56 26.0752 107.691 26.2586 107.82 26.4438ZM97.852 7.01666C97.8836 7.04312 97.9151 7.05335 97.9475 7.06871C97.7385 7.66516 97.5525 8.27016 97.398 8.88454C96.9586 10.6295 96.6693 12.4189 96.479 14.2074C96.4492 14.4856 96.4304 14.7646 96.4065 15.0437C95.694 12.1518 94.2647 9.41614 92.4105 7.11479C91.8319 6.39716 91.1954 5.72987 90.5298 5.09331C93.1179 4.82452 95.822 5.29641 97.852 7.01666ZM89.1415 5.30579C89.3266 5.26739 89.5135 5.23241 89.7012 5.20169C89.7038 5.20425 89.7047 5.2068 89.7072 5.20936C93.1213 8.29917 95.2605 12.4001 96.2921 16.8339C96.1513 20.2036 96.4099 23.5716 96.9884 26.9037C96.991 26.9174 96.9987 26.9259 97.0021 26.9387C96.5635 27.1076 96.1317 27.2928 95.7034 27.4865C95.4286 26.0786 94.9772 24.6971 94.4917 23.3514C93.9456 21.8359 93.3192 20.3478 92.6119 18.9006C91.2022 16.0181 89.4939 13.2765 87.5074 10.7558C86.4724 9.44259 85.3588 8.19677 84.1795 7.01324C85.7812 6.28793 87.4238 5.65991 89.1415 5.30579ZM80.6289 8.73862C81.6009 8.25138 82.5813 7.75562 83.5762 7.28801C87.9682 11.8071 91.459 17.1351 93.7365 23.0195C94.3287 24.5494 94.7878 26.1195 95.3083 27.6725C94.2306 28.1845 93.1904 28.775 92.1937 29.4329C88.5023 24.4035 85.3016 19.0414 82.5728 13.4301C82.1845 12.6314 81.8039 11.8293 81.4328 11.0229C81.0991 10.2976 80.7962 9.55096 80.4421 8.83419C80.5044 8.80347 80.5667 8.77019 80.6289 8.73862ZM80.1716 8.97413C80.419 9.63203 80.7288 10.2737 81.0163 10.9137C81.344 11.6424 81.6785 12.3677 82.0241 13.0879C82.7144 14.5291 83.4354 15.955 84.1864 17.3655C85.6634 20.1396 87.2437 22.8701 88.9307 25.5222C89.8352 26.9447 90.7662 28.356 91.7219 29.7461C91.0094 30.2384 90.3233 30.7675 89.6611 31.3238C89.4384 31.0994 89.1799 30.927 88.9264 30.7291C88.5843 30.4611 88.2464 30.1889 87.9119 29.9116C87.3043 29.4073 86.7096 28.8876 86.1285 28.3535C84.9117 27.2339 83.7571 26.047 82.6683 24.8029C80.5248 22.3522 78.6271 19.6856 77.0374 16.8441C76.5937 16.0514 76.1764 15.2442 75.7779 14.4276C75.4042 13.6605 75.0799 12.8618 74.6883 12.1032C76.4418 10.9367 78.2934 9.92471 80.1716 8.97413ZM73.4117 12.9778C73.724 12.7483 74.0483 12.5392 74.3683 12.3216C74.5961 13.0145 74.9127 13.6861 75.2156 14.3465C75.5612 15.1 75.9358 15.8406 76.3257 16.5711C77.0988 18.0183 77.9479 19.4254 78.8669 20.7847C80.7194 23.5212 82.8629 26.053 85.2496 28.3381C85.9058 28.9661 86.5799 29.5754 87.2719 30.1633C87.6328 30.4705 87.9989 30.7717 88.3692 31.067C88.6449 31.2863 88.9094 31.5286 89.2089 31.7112C89.1184 31.7906 89.0254 31.8665 88.9358 31.9467C88.5902 32.2582 88.2523 32.5773 87.9213 32.9033C87.2617 32.1413 86.5082 31.4544 85.7436 30.8041C84.7009 29.9167 83.5302 29.1615 82.3338 28.4994C81.0573 27.7937 79.7023 27.2246 78.3028 26.8081C78.1433 26.646 77.9334 26.5317 77.7456 26.4054C77.499 26.239 77.2507 26.0743 77.0058 25.9053C76.5459 25.5879 76.1005 25.25 75.6713 24.8916C74.7753 24.145 73.9527 23.3122 73.212 22.4111C72.4705 21.5083 71.8101 20.5381 71.252 19.5115C70.6982 18.4936 70.2886 17.4193 69.827 16.3595C69.8048 16.3091 69.7656 16.2818 69.7212 16.2673C70.8262 15.0385 72.0951 13.9463 73.4117 12.9778ZM66.8387 25.2875C66.6126 24.6578 66.5025 23.9786 66.4914 23.3105C66.4667 21.8385 66.9616 20.4067 67.663 19.1293C68.1759 18.1941 68.7996 17.3254 69.4976 16.5173C69.8671 18.2862 70.7921 19.9826 71.7887 21.4707C72.8289 23.0246 74.102 24.424 75.5492 25.6075C75.882 25.8797 76.231 26.1315 76.5826 26.3798C75.8547 26.2347 75.1192 26.1289 74.3776 26.0717C72.0942 25.8968 69.7946 26.1579 67.6408 26.8329C67.3371 26.3371 67.0358 25.8379 66.8387 25.2875ZM64.7072 29.0387C67.0521 27.6751 69.7425 26.9771 72.4458 26.8875C77.8241 26.7091 82.9678 29.1428 86.8751 32.7275C87.0901 32.9246 87.306 33.12 87.5193 33.3171C85.4629 35.4171 83.694 37.7927 82.2007 40.3236C81.6828 41.2008 81.1443 42.1249 80.7638 43.0968C75.3709 40.7878 70.1922 37.9804 65.3224 34.7089C63.9503 33.7873 62.597 32.8384 61.2325 31.9058C62.2309 30.7734 63.4068 29.7955 64.7072 29.0387ZM59.4995 34.33C59.9304 33.5629 60.4407 32.8384 61.009 32.1635C63.3231 34.1022 65.8438 35.7874 68.4054 37.3788C70.9832 38.9805 73.6378 40.4558 76.3582 41.7998C77.7362 42.4807 79.1331 43.1207 80.5428 43.7334C80.3747 44.2889 80.2629 44.8589 80.2569 45.4459C80.2407 47.0689 80.9668 48.6458 82.4934 49.3464C82.6052 49.3976 82.7229 49.4334 82.839 49.4752C81.9592 49.3899 81.0829 49.2739 80.2142 49.1126C78.1373 48.7269 76.1081 48.1202 74.149 47.3309C70.2093 45.7438 66.5964 43.3767 63.5928 40.3705C62.7514 39.5291 61.9596 38.6375 61.2223 37.7031C60.5175 36.8097 59.8118 35.8924 59.1804 34.9444C59.2827 34.737 59.386 34.5305 59.4995 34.33ZM66.622 51.8141C64.1321 51.2629 61.9374 49.9249 60.3588 47.9163C58.9192 46.0851 58.0403 43.8349 57.8415 41.5148C58.9406 43.189 60.1847 44.7155 61.6993 46.039C63.231 47.3778 64.9307 48.5221 66.7423 49.4471C69.3107 50.7586 72.1019 51.5667 74.9536 51.885C72.1932 52.2067 69.3585 52.4208 66.622 51.8141ZM83.6684 50.5197C82.5873 50.8004 81.4857 51.0052 80.3764 51.1341C78.1672 51.3909 75.9281 51.338 73.7334 50.9779C69.6888 50.314 65.8583 48.563 62.6746 45.9869C60.945 44.5875 59.3126 42.962 57.9926 41.1675C57.9422 41.0992 57.8739 41.0915 57.8168 41.1171C57.7152 39.0667 58.1863 37.0111 59.0686 35.1611C59.543 36.011 60.0294 36.8361 60.6156 37.6195C61.2633 38.4839 61.957 39.3124 62.6925 40.1026C64.1542 41.6726 65.7738 43.0951 67.5188 44.3435C71.0481 46.8675 75.0296 48.7073 79.2602 49.6826C80.4378 49.954 81.6307 50.157 82.8322 50.2884C83.2238 50.3311 83.63 50.3789 84.0396 50.4156C83.9167 50.4497 83.793 50.4873 83.6684 50.5197ZM103.535 47.9461C101.842 47.9069 100.163 48.2653 98.4894 48.4649C97.0755 48.6339 95.6564 48.7508 94.2357 48.8429C94.1632 48.773 94.0667 48.7286 93.9515 48.744C93.5505 48.7977 93.1511 48.8626 92.7526 48.9351C90.6459 49.0332 88.5356 49.052 86.4271 48.9812C84.8869 48.9291 82.8526 49.0341 81.8253 47.6492C80.8184 46.2916 81.1708 44.4706 81.8005 43.0413C82.1896 42.1582 82.6632 41.304 83.1735 40.4721C85.0269 42.8502 88.2941 43.7777 91.1621 44.1771C94.8757 44.6933 98.835 44.5269 102.21 46.3974C103.004 46.8377 103.709 47.3744 104.305 48.0093C104.05 47.9743 103.793 47.9521 103.535 47.9461ZM105.526 48.313C104.038 46.2933 101.436 45.0969 99.0765 44.5645C95.2801 43.7078 91.2645 44.1259 87.5577 42.8229C85.9655 42.2631 84.5166 41.3936 83.3629 40.1708C83.7401 39.571 84.1309 38.9796 84.5285 38.4045C85.5064 36.9923 86.579 35.6449 87.754 34.3914C87.8172 34.324 87.882 34.26 87.9469 34.1952C88.7643 35.2473 89.9555 35.8898 91.209 36.3822C92.774 36.9966 94.4115 37.4036 95.9483 38.0931C99.0526 39.4848 101.772 41.6974 103.806 44.4211C104.778 45.7224 105.567 47.1398 106.194 48.6339C105.982 48.5067 105.758 48.4018 105.526 48.313ZM101.447 40.9303C100.178 39.8014 98.7693 38.8303 97.2615 38.0478C95.7503 37.2628 94.1487 36.7696 92.541 36.2311C91.0716 35.7388 89.6065 35.1218 88.4571 34.0783C88.5843 34.0501 88.6798 33.8777 88.5877 33.7472C88.5604 33.7079 88.5271 33.6729 88.4989 33.6337C90.7602 31.3895 93.3867 29.5088 96.3049 28.2178C97.3536 27.7536 98.4373 27.3747 99.5441 27.0769C99.5466 27.0872 99.5415 27.0957 99.5458 27.1068C99.6763 27.4353 99.9093 27.6794 100.124 27.9567C100.371 28.275 100.613 28.5967 100.849 28.9235C101.284 29.5276 101.698 30.1471 102.088 30.7811C102.887 32.079 103.586 33.44 104.185 34.8411C105.38 37.634 106.17 40.5958 106.518 43.6139C106.696 45.1601 106.743 46.7251 106.749 48.2815C105.565 45.4733 103.719 42.9526 101.447 40.9303ZM107.207 45.9306C107.165 43.8016 106.847 41.6667 106.353 39.6119C105.633 36.6126 104.488 33.7156 102.94 31.0465C102.503 30.293 102.037 29.5558 101.54 28.8407C101.287 28.4772 101.027 28.1188 100.757 27.7672C100.536 27.4814 100.325 27.1682 100.044 26.9395C100.444 26.8423 100.848 26.7544 101.254 26.681C102.776 26.4062 104.404 26.2151 105.928 26.5905C106.562 26.7467 107.188 27.0232 107.67 27.472C108.272 28.0318 108.526 28.8134 108.587 29.6147C108.655 30.4927 108.511 31.3801 108.408 32.2505C108.29 33.2463 108.172 34.2412 108.06 35.237C107.662 38.7919 107.332 42.3562 107.207 45.9306ZM57.8227 95.4016C55.9088 91.9901 54.8754 88.1793 54.2022 84.348C53.4888 80.288 53.0801 76.1623 52.6586 72.063C52.4009 69.5526 52.1867 67.0362 52.0877 64.5138C52.0382 63.2535 52.0101 61.9906 52.0203 60.7294C52.0271 59.8172 52.0655 58.9051 52.08 57.9938C52.1227 58.0356 52.1662 58.0782 52.2089 58.12C53.2226 63.623 54.5205 69.0841 56.0129 74.4761C57.5753 80.1241 59.3937 85.7107 61.7155 91.0959C63.7216 95.7498 66.1194 100.241 68.9822 104.426C69.7246 105.511 70.5011 106.575 71.3083 107.616C66.0187 104.48 60.8801 100.85 57.8227 95.4016ZM70.8458 105.647C67.8798 101.573 65.389 97.1646 63.2941 92.5849C60.8972 87.3448 59.0123 81.8836 57.4098 76.3534C56.5949 73.5409 55.8474 70.7088 55.1391 67.8681C54.4326 65.0318 53.7883 62.1766 53.0212 59.3573C52.9666 59.1576 52.912 58.958 52.8574 58.7574C52.8625 58.7626 52.8676 58.7677 52.8736 58.7728C54.1382 62.1186 55.5188 65.42 56.8679 68.7325C58.2366 72.0928 59.6104 75.4506 60.9672 78.8152C63.6909 85.5665 66.4343 92.3127 69.1247 99.0768C70.3065 102.049 71.4773 105.027 72.6608 107.999C72.0387 107.228 71.4286 106.448 70.8458 105.647ZM73.3716 107.842C70.9141 101.92 68.425 96.01 65.9829 90.0822C63.2096 83.3513 60.4048 76.6341 57.6504 69.8956C56.1708 66.275 54.7261 62.6374 53.162 59.0518C55.4002 61.2278 57.7033 63.3363 59.8442 65.6154C62.434 68.3733 64.8369 71.3274 66.8072 74.564C70.8928 81.2752 72.4919 89.0573 73.0508 96.8079C73.2095 99.0094 73.2897 101.215 73.3315 103.421C73.3528 104.544 73.3665 105.668 73.3733 106.791C73.3759 107.141 73.3733 107.491 73.3716 107.842ZM89.0903 230.151C86.6754 227.917 83.9747 225.972 81.2988 224.066C75.58 219.992 69.5684 216.327 63.3308 213.104C57.1529 209.912 50.6789 206.985 43.7006 206.184C36.8793 205.401 30.0256 206.457 23.3058 207.583C16.5247 208.718 9.6991 209.948 2.79333 209.622C2.61755 209.613 2.44092 209.602 2.26514 209.593C3.60226 209.101 4.92403 208.578 6.22787 207.987C8.09234 207.141 9.93205 206.241 11.7632 205.324C15.4521 203.475 19.111 201.563 22.8562 199.827C30.1007 196.468 37.8871 193.751 45.9636 193.725C49.887 193.712 53.7986 194.37 57.4336 195.868C61.003 197.34 64.2242 199.518 67.221 201.929C72.945 206.531 78.3327 211.741 82.9346 217.472C86.8231 222.314 90.1441 227.706 92.1989 233.583C91.2901 232.339 90.2252 231.201 89.0903 230.151ZM93.5701 235.805C93.4762 235.62 93.3824 235.437 93.2808 235.257C91.6664 229.477 88.7532 224.118 85.218 219.264C80.8525 213.271 75.5561 207.979 69.9977 203.094C67.0828 200.533 63.9699 198.149 60.5431 196.311C57.0283 194.427 53.1919 193.273 49.2198 192.904C41.1202 192.152 33.0207 194.365 25.6234 197.507C21.7725 199.143 18.0359 201.032 14.3035 202.92C11.1147 204.533 7.9012 206.083 4.67145 207.608C5.34556 207.153 6.01796 206.697 6.69548 206.248C8.53776 205.028 10.3903 203.822 12.2599 202.645C16.0818 200.238 19.9831 197.953 24.0192 195.924C31.8952 191.965 40.3642 188.964 49.1848 188.143C57.1375 187.402 65.3019 188.574 72.4893 192.154C75.9127 193.859 79.0887 196.118 81.7348 198.886C84.5174 201.795 86.7155 205.212 88.3855 208.867C92.0632 216.916 93.1358 225.824 93.6537 234.571C93.6546 234.59 93.6563 234.61 93.6572 234.63C93.6307 235.021 93.594 235.412 93.5701 235.805ZM252.351 115.83C253.635 116.478 254.896 117.175 256.105 117.955C257.128 118.615 258.201 119.396 258.726 120.532C258.933 120.98 259.014 121.445 259.021 121.913C252.918 124.771 246.471 126.926 239.867 128.266C233.182 129.622 226.34 130.211 219.521 130C217.617 129.942 215.715 129.82 213.819 129.64C211.922 129.46 210.042 129.157 208.148 128.954C207.977 128.936 207.953 129.18 208.116 129.215C209.802 129.591 211.54 129.779 213.257 129.961C214.957 130.141 216.662 130.269 218.37 130.347C221.76 130.5 225.16 130.457 228.545 130.221C235.371 129.744 242.124 128.456 248.675 126.49C251.794 125.554 254.859 124.404 257.851 123.112C252.308 126.9 245.992 129.62 239.493 131.243C232.732 132.932 225.679 133.46 218.744 132.752C216.792 132.553 214.852 132.251 212.927 131.863C211.966 131.669 211.009 131.45 210.059 131.206C209.361 131.027 208.671 130.818 207.972 130.645C208.128 127.239 207.7 123.8 207.077 120.464C212.264 122.939 218.041 124.102 223.779 124.095C229.9 124.088 236.004 122.763 241.565 120.197C243.096 119.491 244.581 118.687 246.009 117.793C246.737 117.337 247.449 116.857 248.145 116.354C248.822 115.864 249.502 115.368 250.093 114.778C250.856 115.109 251.61 115.456 252.351 115.83ZM249.514 114.539C248.982 114.927 248.473 115.348 247.946 115.742C247.361 116.18 246.763 116.6 246.153 117.003C244.895 117.835 243.586 118.591 242.237 119.268C239.529 120.631 236.668 121.675 233.723 122.393C227.876 123.82 221.739 123.986 215.827 122.849C212.796 122.266 209.825 121.314 207.001 120.06C206.848 119.252 206.689 118.442 206.511 117.634C206.846 117.819 207.235 117.944 207.616 117.949C211.06 120.093 214.993 121.345 219.022 121.783C223.298 122.249 227.663 121.812 231.758 120.493C235.772 119.2 239.486 117.022 242.525 114.093C243.028 113.609 243.505 113.102 243.97 112.583C244.015 112.626 244.066 112.661 244.128 112.678C245.964 113.178 247.76 113.807 249.514 114.539ZM202.965 142.208C200.331 145.503 196.672 147.834 192.914 149.652C188.683 151.699 184.186 153.149 179.558 153.964C177.239 154.372 174.891 154.62 172.539 154.703C170.302 154.781 167.965 154.808 165.759 154.384C164.809 154.201 163.843 153.899 162.967 153.475C162.959 153.399 162.951 153.324 162.944 153.248C162.981 153.236 163.019 153.225 163.056 153.213C163.084 153.213 163.112 153.211 163.141 153.211C163.174 153.287 163.238 153.346 163.352 153.346C163.473 153.346 163.557 153.282 163.609 153.2C169.324 153.101 175.039 152.281 180.58 150.899C186.341 149.462 191.951 147.403 197.259 144.744C198.731 144.007 200.18 143.224 201.602 142.395C202.321 141.977 203.032 141.548 203.736 141.107C203.755 141.095 203.774 141.084 203.793 141.072C203.533 141.459 203.259 141.838 202.965 142.208ZM204.107 151.563C204.157 152.257 204.206 152.953 204.249 153.651C196.272 156.083 187.865 157.043 179.548 156.425C177.235 156.253 174.949 155.902 172.651 155.609C172.605 155.573 172.562 155.535 172.517 155.499C172.518 155.497 172.521 155.496 172.523 155.495C173.701 155.466 174.879 155.398 176.052 155.289C180.867 154.839 185.618 153.695 190.114 151.913C194.241 150.278 198.336 148.129 201.604 145.083C202.151 144.573 202.659 144.028 203.148 143.466C203.209 143.616 203.273 143.764 203.338 143.912C203.375 144.185 203.411 144.458 203.444 144.73C203.537 145.487 203.623 146.245 203.703 147.003C203.863 148.521 203.998 150.041 204.107 151.563ZM203.693 140.335C203.069 140.731 202.44 141.118 201.805 141.496C200.525 142.259 199.222 142.985 197.899 143.675C195.297 145.031 192.619 146.241 189.883 147.301C184.396 149.428 178.672 150.929 172.85 151.784C169.569 152.267 166.265 152.522 162.951 152.63C162.92 152.631 162.897 152.641 162.872 152.651C162.826 152.233 162.776 151.816 162.722 151.399C162.734 151.351 162.728 151.307 162.706 151.27C162.655 150.887 162.595 150.505 162.537 150.124C163.88 150.207 165.269 150.051 166.589 149.91C168.196 149.737 169.796 149.51 171.387 149.23C174.557 148.672 177.686 147.892 180.754 146.916C186.902 144.961 192.781 142.192 198.214 138.715C201.255 136.768 204.147 134.592 206.861 132.21C206.572 134.858 205.858 137.428 204.593 139.75C204.291 139.941 203.995 140.143 203.693 140.335ZM206.554 131.696C201.747 135.921 196.377 139.487 190.624 142.292C184.871 145.098 178.764 147.139 172.484 148.377C170.741 148.721 168.985 149 167.22 149.213C166.318 149.323 165.416 149.425 164.512 149.511C163.833 149.576 163.15 149.63 162.477 149.736C162.192 147.938 161.839 146.151 161.41 144.388C161.289 143.891 161.154 143.396 161.022 142.902C166.329 139.35 171.839 136.105 177.57 133.281C183.414 130.401 189.469 127.947 195.666 125.936C199.19 124.793 202.761 123.8 206.368 122.955C206.423 122.942 206.464 122.915 206.499 122.884C206.877 125.372 207.092 127.884 206.996 130.387C206.979 130.827 206.949 131.267 206.91 131.704C206.816 131.617 206.679 131.586 206.554 131.696ZM120.253 152.541C120.199 151.239 120.199 149.934 120.25 148.631C120.349 146.107 120.639 143.589 121.113 141.107C122.075 136.071 123.813 131.173 126.228 126.65C126.903 125.384 127.636 124.149 128.422 122.947C128.817 122.343 129.224 121.747 129.646 121.161C130.058 120.588 130.516 120.043 130.841 119.414C130.884 119.332 130.868 119.248 130.823 119.181C131.704 119.125 132.586 119.097 133.47 119.103C139.454 119.142 145.608 120.733 150.257 124.649C152.712 126.716 154.59 129.308 156.086 132.125C156.067 132.152 156.052 132.184 156.044 132.222C154.972 137.262 152.759 142.029 149.72 146.181C146.686 150.327 142.831 153.86 138.434 156.519C136.242 157.845 133.884 158.931 131.475 159.818C130.818 159.652 130.162 159.478 129.508 159.3C129.425 159.148 129.25 159.05 129.079 159.045C129.009 158.964 128.915 158.901 128.784 158.875C127.448 158.618 126.123 158.31 124.811 157.954C124.262 157.791 123.713 157.626 123.163 157.466C123.151 157.462 123.14 157.464 123.128 157.462C122.208 157.18 121.296 156.869 120.391 156.54C120.453 156.525 120.507 156.474 120.505 156.39C120.463 155.104 120.306 153.825 120.253 152.541ZM112.916 147.729C113.198 148.897 113.523 150.054 113.891 151.196C114.076 151.768 114.272 152.337 114.479 152.901C114.652 153.376 114.857 153.825 115.069 154.275C114.455 153.977 113.84 153.677 113.237 153.355C112.077 152.738 110.94 152.077 109.825 151.379C109.818 151.366 109.821 151.353 109.81 151.341C109.243 150.691 108.525 150.202 107.884 149.628C107.228 149.041 106.613 148.411 106.039 147.745C104.915 146.441 103.944 145.006 103.149 143.478C101.562 140.428 100.644 137.024 100.529 133.584C100.496 132.595 100.531 131.601 100.634 130.617C100.708 129.907 100.836 129.206 100.955 128.504C104.958 126.358 109.136 124.535 113.426 123.044C112.332 126.829 111.716 130.738 111.588 134.677C111.448 139.062 111.888 143.466 112.916 147.729ZM115.002 153.097C114.811 152.572 114.629 152.044 114.456 151.512C114.118 150.469 113.816 149.413 113.552 148.349C113.035 146.264 112.658 144.146 112.424 142.012C111.953 137.724 112.065 133.374 112.756 129.116C113.104 126.969 113.603 124.847 114.237 122.767C117.218 121.764 120.254 120.914 123.331 120.259C125.633 119.769 127.971 119.398 130.322 119.22C129.893 119.63 129.552 120.116 129.207 120.6C128.833 121.122 128.47 121.651 128.118 122.188C127.409 123.267 126.743 124.375 126.118 125.506C124.868 127.771 123.793 130.132 122.902 132.56C121.122 137.417 120.079 142.568 119.827 147.734C119.758 149.155 119.749 150.58 119.801 152.003C119.854 153.475 119.91 154.987 120.225 156.429C120.231 156.457 120.249 156.471 120.263 156.489C118.628 155.889 117.021 155.216 115.448 154.465C115.296 154.011 115.166 153.549 115.002 153.097ZM116.383 115.414C114.907 113.668 113.57 111.8 112.416 109.826C110.113 105.884 108.47 101.556 107.609 97.0715C107.181 94.8461 107.033 92.6122 106.888 90.3637C106.906 90.2059 106.928 90.048 106.946 89.8902C107.041 90.2818 107.136 90.6735 107.237 91.06C107.54 92.2282 107.881 93.3861 108.259 94.5313C109.033 96.8744 109.971 99.1587 111.06 101.373C113.224 105.768 115.964 109.886 119.188 113.574C120.868 115.496 122.687 117.35 124.643 119.003C123.758 119.169 122.878 119.355 122.002 119.557C121.873 119.418 121.697 119.336 121.504 119.284C121.295 119.228 121.078 119.222 120.865 119.257C120.716 119.128 120.465 119.14 120.382 119.347C120.232 119.26 120.083 119.173 119.934 119.086C119.531 118.716 119.126 118.346 118.737 117.96C117.915 117.148 117.13 116.297 116.383 115.414ZM117.956 118.115C114.108 115.443 111.159 111.626 109.264 107.344C107.517 103.397 106.712 99.1408 106.666 94.8564C106.732 95.3436 106.806 95.8283 106.886 96.3095C107.267 98.5972 107.851 100.853 108.617 103.041C110.146 107.409 112.423 111.542 115.319 115.154C116.132 116.168 116.998 117.139 117.908 118.067C117.924 118.082 117.94 118.099 117.956 118.115ZM107.127 88.559C107.514 86.0256 108.121 83.5262 108.909 81.0875C108.978 80.875 109.058 80.6668 109.129 80.4552C110.108 86.2269 112.219 91.8664 114.965 97.005C117.98 102.645 121.872 107.788 126.485 112.218C128.753 114.394 131.205 116.37 133.794 118.152C131.044 118.106 128.288 118.372 125.565 118.838C125.556 118.83 125.553 118.819 125.543 118.81C123.704 117.229 121.934 115.607 120.296 113.816C118.657 112.025 117.137 110.126 115.75 108.133C112.98 104.151 110.75 99.8064 109.085 95.2506C108.62 93.9766 108.2 92.6864 107.833 91.3809C107.569 90.4482 107.357 89.5011 107.127 88.559ZM144.199 152.91C148.108 149.486 151.341 145.29 153.618 140.616C154.843 138.102 155.772 135.457 156.403 132.734C157.517 134.935 158.413 137.258 159.172 139.569C159.192 139.632 159.209 139.696 159.23 139.758C159.121 139.667 158.925 139.664 158.843 139.833C157.048 143.524 154.867 146.968 152.181 150.079C149.507 153.176 146.416 155.897 143.02 158.176C142.067 158.816 141.089 159.42 140.088 159.983C139.578 160.27 139.064 160.546 138.545 160.815C138.289 160.948 138.03 161.078 137.779 161.218C135.878 160.851 133.986 160.433 132.106 159.968C136.562 158.49 140.672 155.999 144.199 152.91ZM186.552 112.205C188.427 111.415 190.342 110.716 192.288 110.119C194.286 109.508 196.427 109.025 198.528 109.249C200.232 109.431 201.728 110.167 202.846 111.405C202.813 111.408 202.782 111.408 202.747 111.42C196.355 113.726 190.186 116.655 184.34 120.118C178.541 123.554 173.05 127.52 167.994 131.978C165.217 134.428 162.555 137.004 160.119 139.792C159.657 138.346 159.145 136.915 158.576 135.507C158.603 135.481 158.632 135.463 158.655 135.428C160.894 132.007 163.474 128.81 166.346 125.899C169.214 122.992 172.377 120.371 175.754 118.075C179.148 115.768 182.769 113.799 186.552 112.205ZM180.693 113.928C184.316 110.009 186.762 104.9 187.246 99.5939C187.986 102.491 189.017 105.315 190.27 108.025C190.498 108.519 190.739 109.008 190.99 109.492C190.542 109.641 190.099 109.793 189.672 109.942C186.577 111.027 183.577 112.368 180.693 113.928ZM198.094 108.211C196.598 108.126 195.051 108.361 193.546 108.735C192.375 103.211 192.484 97.4572 193.815 91.9714C195.132 86.5461 197.673 81.4331 201.246 77.1418C202.577 75.5427 204.05 74.064 205.629 72.7089C205.28 73.3327 204.952 73.9701 204.63 74.6007C204.046 75.7458 203.498 76.9097 202.988 78.0899C201.966 80.4518 201.096 82.876 200.38 85.3472C198.959 90.246 198.123 95.3138 197.908 100.41C197.8 102.992 197.796 105.633 198.094 108.211ZM203.012 112.038C203.121 111.999 203.178 111.926 203.201 111.843C203.261 111.921 203.325 111.993 203.382 112.074C204.487 113.656 205.025 115.585 205.448 117.444C205.819 119.074 206.157 120.726 206.425 122.391C206.384 122.378 206.338 122.372 206.284 122.385C199.874 123.884 193.57 125.847 187.451 128.277C181.319 130.712 175.347 133.588 169.65 136.916C166.663 138.661 163.746 140.52 160.919 142.511C160.708 141.74 160.485 140.973 160.247 140.21C160.249 140.208 160.251 140.208 160.252 140.207C164.974 135.39 169.92 130.831 175.349 126.813C180.755 122.813 186.538 119.297 192.602 116.385C195.993 114.756 199.472 113.307 203.012 112.038ZM139.921 160.593C140.816 160.106 141.694 159.589 142.553 159.043C144.319 157.921 146.002 156.671 147.593 155.313C150.732 152.633 153.515 149.531 155.828 146.111C157.133 144.18 158.325 142.141 159.285 140.015C159.292 139.999 159.291 139.984 159.296 139.969C160.284 143.045 161.05 146.192 161.583 149.378C161.72 150.193 161.833 151.011 161.937 151.831C161.635 152.258 161.338 152.69 161.024 153.11C160.561 153.725 160.068 154.316 159.547 154.883C158.518 156 157.378 157.013 156.157 157.915C153.685 159.741 150.858 161.106 147.886 161.893C147.058 162.112 146.216 162.283 145.368 162.42C143.064 162.138 140.77 161.783 138.488 161.356C138.979 161.122 139.458 160.846 139.921 160.593ZM151.852 160.997C154.708 159.723 157.317 157.911 159.504 155.675C160.119 155.047 160.7 154.384 161.24 153.69C161.513 153.34 161.782 152.987 162.031 152.62C162.062 152.896 162.1 153.173 162.129 153.449C162.09 153.463 162.05 153.473 162.012 153.489C161.998 153.495 162.004 153.518 162.019 153.515C162.058 153.508 162.095 153.495 162.133 153.486C162.161 153.76 162.199 154.032 162.222 154.306C162.341 155.652 162.378 157.022 162.116 158.354C161.868 159.618 161.284 160.817 160.273 161.641C159.253 162.472 157.96 162.845 156.674 163.01C155.32 163.182 153.955 163.128 152.595 163.056C150.901 162.964 149.209 162.834 147.521 162.661C147.32 162.641 147.12 162.615 146.919 162.594C148.62 162.252 150.286 161.697 151.852 160.997ZM243.794 111.386C241.184 114.477 237.908 116.952 234.213 118.6C230.432 120.288 226.271 121.141 222.132 121.124C217.941 121.108 213.84 120.197 210.005 118.523C209.457 118.284 208.919 118.023 208.386 117.75C208.437 117.713 208.473 117.668 208.491 117.617C209.414 117.541 210.337 117.389 211.248 117.256C212.735 117.04 214.214 116.773 215.686 116.471C218.657 115.86 221.597 115.093 224.486 114.17C230.291 112.315 235.898 109.836 241.189 106.814C243.971 105.224 246.663 103.471 249.258 101.59C248.065 105.159 246.222 108.508 243.794 111.386ZM249.501 100.846C249.482 100.853 249.463 100.858 249.444 100.872C244.589 104.449 239.34 107.491 233.833 109.949C228.333 112.404 222.576 114.301 216.693 115.591C215.061 115.948 213.42 116.252 211.772 116.523C210.306 116.765 208.803 116.889 207.349 117.203C207.338 117.198 207.327 117.192 207.316 117.186C207.294 117.174 207.273 117.17 207.251 117.166C207.231 117.159 207.211 117.152 207.191 117.145C207.125 117.12 207.061 117.093 206.998 117.062C206.96 117.044 206.924 117.024 206.888 117.004C206.878 116.998 206.844 116.977 206.837 116.971C206.773 116.93 206.71 116.885 206.65 116.838C206.636 116.827 206.623 116.814 206.61 116.802C207.929 116.522 209.232 116.143 210.525 115.773C212.095 115.325 213.655 114.842 215.204 114.324C218.34 113.272 221.428 112.084 224.464 110.771C230.474 108.173 236.266 105.063 241.766 101.512C244.825 99.5376 247.786 97.4171 250.642 95.1601C250.453 97.0878 250.066 98.9957 249.501 100.846ZM250.611 89.3372C250.805 91.0626 250.822 92.805 250.689 94.5364C250.636 94.5338 250.58 94.5466 250.526 94.5893C245.384 98.715 239.894 102.422 234.114 105.596C228.389 108.74 222.401 111.4 216.228 113.534C214.487 114.136 212.732 114.696 210.966 115.22C209.428 115.676 207.866 116.055 206.328 116.51C206.295 116.467 206.261 116.425 206.23 116.381C206.217 116.362 206.205 116.343 206.192 116.325C206.004 115.601 205.798 114.883 205.542 114.184C205.519 114.121 205.488 114.062 205.464 113.999C207.009 113.382 208.507 112.649 210.006 111.928C211.558 111.182 213.104 110.422 214.636 109.636C217.701 108.064 220.731 106.424 223.723 104.717C229.692 101.313 235.51 97.645 241.161 93.7377C244.254 91.6002 247.291 89.3833 250.277 87.0999C250.424 87.8448 250.527 88.5974 250.611 89.3372ZM246.951 81.2428C247.047 81.2949 247.142 81.3478 247.234 81.4075C248.049 81.9391 248.667 82.7096 249.113 83.5672C249.575 84.4546 249.895 85.4129 250.127 86.3959C244.713 90.5839 239.118 94.5364 233.352 98.2252C227.568 101.925 221.622 105.37 215.534 108.547C213.831 109.436 212.119 110.311 210.397 111.164C208.709 112 206.989 112.78 205.319 113.655C205.216 113.407 205.115 113.159 204.995 112.916C205.849 111.723 206.689 110.52 207.591 109.362C208.679 107.963 209.812 106.599 210.987 105.273C213.327 102.631 215.851 100.149 218.51 97.8284C223.808 93.2052 229.658 89.2289 235.907 86.0034C239.433 84.1824 243.086 82.6123 246.839 81.3187C246.89 81.3025 246.925 81.2752 246.951 81.2428ZM233.732 82.3828C233.743 82.341 233.75 82.2983 233.761 82.2565C234.909 81.9152 236.071 81.6191 237.244 81.3751C238.364 81.143 239.494 80.9544 240.629 80.8119C241.766 80.6694 242.922 80.5354 244.069 80.5721C244.814 80.596 245.576 80.6958 246.28 80.9459C239.735 83.2728 233.454 86.3763 227.682 90.2443C221.803 94.184 216.449 98.8353 211.689 104.069C210.342 105.552 209.047 107.081 207.808 108.655C206.788 109.952 205.772 111.269 204.845 112.639C204.715 112.391 204.59 112.14 204.441 111.903C204.527 111.86 204.602 111.785 204.638 111.657C205.842 107.46 207.697 103.439 210.101 99.7944C212.512 96.1406 215.464 92.8494 218.864 90.0898C222.42 87.2022 226.44 84.9077 230.721 83.2813C231.553 82.9656 232.397 82.6823 233.247 82.4186C233.297 82.6507 233.663 82.6482 233.732 82.3828ZM229.545 64.7442C230.277 65.141 230.902 65.6974 231.376 66.421C232.164 67.625 232.539 69.1037 232.86 70.4895C233.584 73.6185 233.762 76.8321 233.468 80.0268C233.426 80.4859 233.384 80.945 233.339 81.4041C229.101 82.684 225.061 84.5783 221.384 87.0487C217.592 89.5958 214.219 92.7573 211.407 96.3565C208.62 99.9233 206.373 103.927 204.798 108.171C204.445 109.124 204.138 110.089 203.853 111.064C203.715 110.889 203.568 110.722 203.417 110.559C203.951 109.095 204.44 107.614 204.976 106.15C205.578 104.506 206.201 102.87 206.862 101.248C208.17 98.0409 209.629 94.9042 211.212 91.8246C214.404 85.6177 218.028 79.6335 222.164 74.0085C223.324 72.4299 224.523 70.8795 225.753 69.3546C226.354 68.608 226.964 67.8681 227.583 67.1352C228.226 66.3723 228.918 65.641 229.505 64.8329C229.526 64.8048 229.536 64.7741 229.545 64.7442ZM228.402 64.2749C228.599 64.3312 228.789 64.4003 228.975 64.4754C228.383 65.048 227.86 65.6837 227.329 66.3143C226.753 67.0004 226.183 67.6915 225.62 68.3895C224.522 69.7531 223.455 71.1414 222.415 72.5502C220.325 75.3857 218.345 78.304 216.486 81.2966C212.794 87.2424 209.663 93.4834 206.98 99.9455C206.229 101.754 205.514 103.581 204.852 105.424C204.266 107.055 203.695 108.7 203.234 110.374C202.899 110.038 202.537 109.73 202.132 109.467C201.955 109.352 201.775 109.248 201.593 109.15C201.908 107.617 202.152 106.07 202.478 104.539C202.826 102.906 203.219 101.283 203.66 99.6724C204.518 96.5314 205.548 93.4373 206.742 90.4081C209.15 84.2951 212.259 78.4525 215.957 73.0247C217 71.4947 218.089 69.9954 219.22 68.5303C220.32 67.1061 221.501 65.7537 222.633 64.356C224.543 63.9592 226.548 63.7441 228.402 64.2749ZM213.508 67.4936C215.853 66.3339 218.32 65.4089 220.859 64.7707C221.123 64.7041 221.393 64.6384 221.664 64.5736C220.762 65.5898 219.918 66.6667 219.087 67.7359C218.062 69.0534 217.075 70.399 216.13 71.7746C214.272 74.477 212.566 77.2818 211.009 80.1668C207.87 85.9837 205.354 92.1506 203.538 98.5068C203.035 100.267 202.585 102.042 202.189 103.83C201.815 105.523 201.444 107.247 201.242 108.974C200.333 108.546 199.374 108.315 198.39 108.231C198.267 105.911 198.15 103.601 198.223 101.273C198.303 98.744 198.542 96.2225 198.936 93.7232C199.724 88.722 201.138 83.8283 203.116 79.1676C203.668 77.8671 204.265 76.5863 204.905 75.3277C205.539 74.0844 206.257 72.889 206.904 71.6543C208.955 70.0466 211.172 68.6481 213.508 67.4936ZM203.853 63.6221C204.803 63.524 205.761 63.5854 206.674 63.8952C208.329 64.4575 209.793 65.6939 210.391 67.3656C210.472 67.59 210.526 67.8246 210.567 68.0619C207.461 69.9007 204.606 72.162 202.121 74.7824C198.197 78.921 195.278 83.9572 193.586 89.4012C191.847 94.9997 191.351 101.004 192.273 106.801C192.388 107.52 192.525 108.236 192.681 108.948C192.683 108.955 192.687 108.958 192.689 108.965C192.595 108.991 192.504 109.022 192.411 109.05C192.406 109.035 192.408 109.02 192.401 109.004C189.584 102.691 188.536 95.6124 189.398 88.7518C190.195 82.4169 192.731 76.3619 196.52 71.2353C197.551 69.841 198.683 68.5192 199.897 67.2811C201.134 66.0208 202.497 64.9234 203.82 63.7595C203.868 63.716 203.869 63.6665 203.853 63.6221ZM187.377 83.3888C188.13 79.5294 189.613 75.7859 191.808 72.5169C192.887 70.9093 194.134 69.4101 195.548 68.0857C197.059 66.6701 198.755 65.3859 200.647 64.5258C201.542 64.1187 202.518 63.8047 203.51 63.6605C202.255 64.5036 201.117 65.5523 200.037 66.6044C198.921 67.6932 197.871 68.8486 196.896 70.0646C194.914 72.5349 193.237 75.2347 191.922 78.1163C189.119 84.2626 188.008 91.1556 188.712 97.8719C189.107 101.629 190.063 105.32 191.545 108.794C189.682 104.834 188.177 100.747 187.4 96.4222C186.626 92.1233 186.538 87.6869 187.377 83.3888ZM186.083 93.7437C186.806 97.0869 186.641 100.606 185.683 103.885C184.655 107.402 182.784 110.618 180.414 113.399C180.027 113.852 179.634 114.299 179.236 114.742C178.897 114.936 178.557 115.131 178.222 115.332C174.599 117.501 171.193 120.034 168.074 122.879C164.951 125.725 162.106 128.88 159.617 132.295C159.106 132.997 158.618 133.716 158.138 134.439C157.739 133.515 157.308 132.602 156.84 131.709C158.25 130.726 159.531 129.545 160.837 128.43C162.17 127.291 163.492 126.138 164.798 124.966C167.386 122.643 169.906 120.241 172.279 117.698C176.803 112.851 180.795 107.457 183.509 101.381C184.606 98.9224 185.481 96.365 186.083 93.7437ZM163.978 76.5053C166.274 77.0761 168.551 77.7221 170.768 78.5421C174.63 79.9697 178.399 82.0918 181.279 85.0135C181.067 86.5137 180.865 88.0146 180.579 89.5045C180.254 91.1949 179.859 92.8725 179.387 94.5279C178.458 97.7815 177.248 100.954 175.782 104.004C172.824 110.158 168.819 115.813 163.949 120.603C162.598 121.932 161.182 123.195 159.708 124.385C158.955 124.992 158.188 125.579 157.405 126.146C156.625 126.71 155.774 127.205 155.063 127.854C154.835 128.064 155.04 128.482 155.353 128.342C156.159 127.982 156.864 127.427 157.575 126.907C158.265 126.403 158.943 125.882 159.611 125.348C160.946 124.28 162.233 123.151 163.467 121.968C165.958 119.583 168.237 116.982 170.292 114.214C174.406 108.67 177.582 102.419 179.596 95.8146C180.155 93.9783 180.631 92.113 181.005 90.2298C181.316 88.6605 181.58 87.0726 181.718 85.4769C183.561 87.4659 184.993 89.8082 185.781 92.5396C184.626 98.3694 182.072 103.853 178.772 108.779C174.984 114.432 170.258 119.347 165.239 123.914C163.793 125.229 162.323 126.515 160.845 127.793C159.458 128.994 157.988 130.133 156.695 131.437C155.894 129.941 154.985 128.503 153.934 127.172C152.732 125.651 151.35 124.306 149.814 123.153C150.333 120.034 150.72 116.895 151.288 113.783C151.859 110.657 152.543 107.552 153.336 104.474C154.928 98.3063 156.949 92.2495 159.409 86.3737C160.789 83.0766 162.304 79.8357 163.936 76.6563C163.963 76.6034 163.976 76.5531 163.978 76.5053ZM158.924 75.3388C160.379 75.6588 161.837 75.9839 163.289 76.3346C163.279 76.3491 163.265 76.3585 163.257 76.3756C160.328 82.0645 157.839 87.9779 155.778 94.0346C153.73 100.056 152.117 106.224 150.958 112.478C150.318 115.934 149.728 119.449 149.553 122.964C148.758 122.386 147.929 121.854 147.058 121.382C146.442 121.048 145.811 120.747 145.168 120.469C145.237 119.802 145.254 119.129 145.295 118.459C145.341 117.706 145.395 116.953 145.455 116.202C145.582 114.632 145.741 113.065 145.93 111.502C146.305 108.419 146.802 105.351 147.419 102.308C148.663 96.1773 150.369 90.1521 152.565 84.2933C153.172 82.6729 153.815 81.0662 154.493 79.4748C155.153 77.9269 155.887 76.408 156.542 74.8584C157.349 75.0009 158.147 75.1673 158.924 75.3388ZM140.365 85.8046C140.466 85.7866 140.56 85.7013 140.558 85.5691C140.557 85.4863 140.545 85.4069 140.542 85.3241C140.851 84.4947 141.178 83.673 141.532 82.8649C142.855 79.8434 144.756 76.7903 147.878 75.3883C150.473 74.2218 153.361 74.3319 156.147 74.7901C155.46 76.0701 154.87 77.4132 154.288 78.7426C153.655 80.1847 153.053 81.6404 152.479 83.1073C151.334 86.0409 150.305 89.0198 149.398 92.0353C147.6 98.0119 146.268 104.116 145.442 110.303C145.208 112.061 145.012 113.826 144.859 115.593C144.782 116.477 144.714 117.362 144.658 118.247C144.616 118.902 144.562 119.559 144.557 120.216C143.394 119.748 142.196 119.365 140.979 119.063C140.839 117.687 140.676 116.319 140.598 114.935C140.514 113.433 140.477 111.928 140.488 110.423C140.509 107.437 140.747 104.448 141.145 101.489C141.946 95.545 143.467 89.6879 145.673 84.1091C146.906 80.9911 148.39 77.9994 149.963 75.041C150.016 74.942 149.85 74.8456 149.792 74.942C148.233 77.5002 146.93 80.2197 145.773 82.981C144.602 85.7747 143.596 88.6401 142.783 91.5575C141.166 97.3523 140.251 103.339 140.083 109.353C140.036 111.026 140.031 112.699 140.089 114.371C140.141 115.88 140.204 117.41 140.365 118.916C139.702 118.767 139.035 118.636 138.364 118.531C138.204 118.506 138.042 118.489 137.881 118.466C137.988 118.373 138.054 118.236 138.017 118.05C136.452 110.14 136.485 101.95 138.088 94.0474C138.65 91.2631 139.397 88.4882 140.365 85.8046ZM135.38 76.6691C137.355 78.6078 138.885 80.9842 139.703 83.6355C139.772 83.8607 139.825 84.092 139.88 84.3224C139.846 84.4094 139.811 84.4947 139.778 84.5818C139.051 86.5239 138.426 88.5044 137.902 90.5105C137.583 91.7273 137.306 92.9544 137.062 94.1882C137.183 92.41 137.141 90.6197 136.964 88.8628C136.572 84.982 135.493 81.1395 133.79 77.6291C133.317 76.6546 132.793 75.704 132.223 74.7824C131.96 74.3584 131.684 73.9428 131.401 73.5315C132.819 74.4556 134.169 75.4804 135.38 76.6691ZM123.786 69.393C125.189 70.0722 126.583 70.7805 127.958 71.5143C128.759 71.941 129.55 72.3881 130.329 72.8582C130.728 73.4795 131.21 74.0614 131.607 74.6775C132.141 75.5069 132.633 76.3619 133.085 77.2383C133.953 78.9244 134.669 80.6882 135.227 82.5006C136.362 86.1885 136.777 90.1223 136.539 93.9698C136.45 95.3999 136.25 96.8232 135.99 98.2346C135.704 96.0715 135.291 93.9271 134.773 91.8058C133.464 86.4496 131.381 81.2915 128.584 76.5394C127.81 75.2253 126.985 73.942 126.106 72.6961C125.259 71.4947 124.379 70.2881 123.384 69.201C123.519 69.2659 123.654 69.329 123.786 69.393ZM119.388 68.0994C120.645 68.1045 121.843 68.5124 122.984 69.0201C122.957 69.0619 122.945 69.1131 122.986 69.1686C123.799 70.2676 124.664 71.3257 125.456 72.441C126.248 73.5554 126.997 74.6997 127.704 75.8696C129.127 78.2281 130.371 80.6967 131.431 83.2395C133.54 88.2988 134.902 93.6199 135.451 99.0734C135.495 99.506 135.522 99.9403 135.556 100.374C135.555 100.376 135.555 100.378 135.555 100.38C135.553 100.385 135.559 100.388 135.558 100.393C135.641 101.476 135.706 102.562 135.73 103.647C135.755 104.735 135.733 105.822 135.727 106.909C135.031 103.745 134.181 100.614 133.186 97.5315C131.011 90.7972 128.062 84.3181 124.446 78.2366C122.407 74.8081 120.154 71.5109 117.696 68.369C117.688 68.3597 117.678 68.3562 117.671 68.3477C118.219 68.1881 118.791 68.0968 119.388 68.0994ZM111.927 73.6988C112.04 73.6203 112.105 73.4965 112.111 73.3702C112.257 73.1125 112.402 72.8566 112.561 72.6065C113.642 70.9059 115.199 69.2991 117.096 68.5465C117.085 68.6233 117.101 68.7061 117.163 68.7855C121.49 74.3413 125.193 80.3656 128.214 86.7261C131.235 93.0866 133.583 99.7739 135.141 106.642C135.504 108.239 135.815 109.847 136.094 111.46C136.199 112.707 136.338 113.953 136.519 115.192C136.667 116.197 136.84 117.197 137.037 118.192C137.049 118.251 137.074 118.298 137.1 118.344C137.101 118.349 137.102 118.354 137.103 118.359C136.44 118.283 135.776 118.233 135.111 118.197C129.858 114.828 125.193 110.58 121.297 105.707C117.325 100.738 114.16 95.1388 111.951 89.1734C110.827 86.1399 109.999 83.0228 109.337 79.8613C109.715 78.7793 110.116 77.7042 110.558 76.6461C110.974 75.6503 111.413 74.6536 111.927 73.6988ZM109.621 73.7653C110.007 73.7696 110.393 73.7713 110.779 73.7739C110.757 73.8771 110.736 73.9795 110.715 74.0828C110.096 75.3345 109.571 76.6367 109.081 77.9132C108.346 79.8255 107.711 81.7804 107.197 83.7652C106.875 83.225 106.552 82.6849 106.256 82.1277C105.8 81.2701 105.378 80.3938 104.982 79.5063C104.586 78.6198 104.219 77.7195 103.88 76.8099C103.558 75.9498 103.31 75.0521 102.947 74.2082C105.157 73.8822 107.397 73.7423 109.621 73.7653ZM93.396 77.0838C96.3032 75.669 99.4238 74.7628 102.613 74.2602C102.763 75.1741 103.098 76.0743 103.402 76.9447C103.73 77.8825 104.091 78.8083 104.484 79.7214C104.868 80.6139 105.283 81.4911 105.72 82.3589C106.113 83.138 106.517 83.9324 106.971 84.6825C106.752 85.6006 106.557 86.5247 106.394 87.454C105.328 93.5039 105.538 99.8183 107.612 105.637C108.989 109.498 111.162 113.133 114.054 116.053C110.05 113.591 106.176 110.918 102.623 107.843C97.4219 103.341 92.9711 97.9641 90.0315 91.7154C88.5134 88.489 87.4972 85.0229 87.0082 81.4903C88.8915 79.706 91.0623 78.2196 93.396 77.0838ZM80.3653 94.3905C80.6119 91.9458 81.3722 89.5796 82.5062 87.4045C83.63 85.2499 85.1147 83.3189 86.8521 81.643C87.5279 88.1443 90.3719 94.3026 94.2092 99.5376C98.4169 105.278 103.889 109.978 109.719 114.006C112.298 115.789 114.962 117.443 117.659 119.041C118.045 119.3 118.435 119.551 118.836 119.787C118.905 119.828 118.974 119.847 119.042 119.854C119.217 119.956 119.391 120.06 119.567 120.162C119.496 120.181 119.425 120.199 119.354 120.217C118.778 120.159 118.196 120.158 117.617 120.125C116.849 120.083 116.081 120.022 115.316 119.943C113.804 119.786 112.301 119.558 110.81 119.261C107.859 118.672 104.963 117.811 102.165 116.704C96.5533 114.486 91.3174 111.279 86.8171 107.257C84.6779 105.344 82.7161 103.233 80.8994 101.01C80.3806 98.8447 80.14 96.6125 80.3653 94.3905ZM88.3069 117.862C87.0458 115.639 85.9245 113.339 84.8246 111.032C83.5455 108.348 82.2775 105.642 81.3892 102.799C81.286 102.469 81.1896 102.137 81.0983 101.802C84.3357 106.046 88.417 109.673 92.8678 112.585C97.9783 115.93 103.668 118.368 109.62 119.74C111.302 120.128 113.004 120.428 114.717 120.639C115.497 120.734 116.277 120.809 117.06 120.867C116.538 121.02 116.015 121.174 115.497 121.338C115.392 121.362 115.289 121.387 115.185 121.41C114.856 121.482 114.525 121.543 114.194 121.608C114.082 121.572 113.958 121.583 113.874 121.672C112.251 121.977 110.613 122.202 108.967 122.34C104.817 122.689 100.621 122.503 96.5191 121.788C94.2161 121.386 91.913 120.845 89.6833 120.141C89.208 119.391 88.7447 118.634 88.3069 117.862ZM92.5931 124.139C91.6212 122.994 90.7448 121.773 89.9248 120.513C93.7962 121.897 97.805 122.735 101.91 123.043C104.957 123.272 108.028 123.208 111.065 122.864C107.224 124.304 103.485 126.012 99.8828 127.982C99.2676 128.319 98.6583 128.667 98.0517 129.018C96.0191 127.644 94.1794 126.01 92.5931 124.139ZM100.479 128.768C100.144 130.098 100.039 131.519 100.022 132.861C99.9989 134.632 100.183 136.404 100.568 138.133C101.343 141.616 102.916 144.926 105.158 147.705C105.508 148.138 105.878 148.555 106.26 148.961C104.03 147.318 101.921 145.512 99.9648 143.559C98.0081 141.607 96.1932 139.509 94.5565 137.281C93.7826 136.227 92.6707 134.872 93.437 133.524C93.763 132.949 94.3048 132.515 94.8347 132.139C95.4533 131.699 96.1087 131.309 96.7546 130.913C97.9774 130.165 99.2215 129.453 100.479 128.768ZM46.6471 144.76C46.7733 143.076 47.0285 141.383 47.5046 139.759C53.3173 136.24 59.6386 133.558 66.1979 131.79C72.7274 130.03 79.5051 129.15 86.2684 129.209C88.1755 129.226 90.0775 129.325 91.9778 129.482C92.5333 129.528 93.088 129.584 93.6409 129.645C93.1153 129.717 92.5914 129.791 92.0683 129.868C90.3139 130.125 88.5664 130.425 86.8282 130.768C83.3279 131.46 79.8618 132.319 76.4452 133.346C69.5761 135.413 62.9084 138.16 56.5821 141.542C54.8183 142.486 53.0801 143.479 51.3718 144.519C50.5074 145.046 49.6481 145.583 48.8008 146.137C48.0371 146.638 47.2614 147.133 46.5395 147.694C46.5472 146.714 46.5745 145.735 46.6471 144.76ZM46.8382 153.994C46.6445 152.022 46.5387 150.03 46.5404 148.041C48.0286 147.171 49.4433 146.164 50.9119 145.259C52.4606 144.306 54.0349 143.394 55.6306 142.522C58.7418 140.823 61.9374 139.28 65.2021 137.897C71.7845 135.108 78.657 132.968 85.6677 131.565C87.6124 131.176 89.5681 130.841 91.5307 130.561C93.1571 130.329 94.7895 130.167 96.421 129.987C96.1462 130.153 95.8689 130.314 95.5967 130.484C94.4251 131.214 93.0982 131.972 92.4728 133.265C91.8294 134.595 92.4275 135.906 93.181 137.033C86.9954 138.894 80.8909 141.019 74.8922 143.417C68.6341 145.918 62.4937 148.706 56.4976 151.782C53.3489 153.397 50.2284 155.079 47.2017 156.914C47.0609 155.944 46.9346 154.971 46.8382 153.994ZM60.7863 184.898C59.3467 183.871 58.0608 182.655 56.9089 181.321C61.0465 180.884 65.1492 180.211 69.2194 179.343C73.5337 178.424 77.8011 177.288 82.0087 175.963C86.2522 174.626 90.4385 173.098 94.5437 171.384C98.6293 169.677 102.636 167.781 106.544 165.702C110.463 163.616 114.293 161.354 117.99 158.898C118.449 158.593 118.905 158.285 119.361 157.975C119.801 157.675 119.29 157.026 118.853 157.324C115.203 159.809 111.448 162.139 107.586 164.282C103.731 166.42 99.777 168.379 95.7409 170.15C91.7048 171.921 87.5893 173.505 83.403 174.884C79.2005 176.268 74.9349 177.448 70.6231 178.443C66.3216 179.436 61.9809 180.145 57.6282 180.862C57.2997 180.916 56.9703 180.961 56.6409 181.009C56.175 180.452 55.7287 179.876 55.3072 179.284C51.9896 174.618 49.9186 169.042 48.5124 163.53C47.9859 161.467 47.5737 159.376 47.2563 157.271C50.0594 155.762 52.8531 154.233 55.6852 152.778C58.6718 151.243 61.6942 149.78 64.7439 148.375C70.8433 145.565 77.0698 143.031 83.3996 140.787C86.7369 139.604 90.1023 138.503 93.4916 137.479C94.3185 138.629 95.1888 139.748 96.1027 140.831C99.783 145.192 104.136 148.978 108.942 152.051C113.021 154.659 117.438 156.745 122.046 158.234C119.073 161.268 115.897 164.102 112.534 166.697C108.956 169.456 105.194 171.973 101.259 174.199C97.3332 176.42 93.2441 178.354 89.0416 179.994C84.8306 181.636 80.5035 182.98 76.1005 184.002C71.7256 185.018 67.291 185.65 62.8325 186.16C62.1268 185.783 61.4416 185.367 60.7863 184.898ZM114.418 175.988C111.274 178.571 107.865 180.832 104.244 182.691C98.8273 185.471 92.9771 187.384 86.9673 188.359C83.9397 188.85 80.8696 189.111 77.8019 189.115C74.7915 189.119 71.7538 188.925 68.8039 188.297C67.0504 187.923 65.3344 187.37 63.7182 186.608C65.1091 186.523 66.5017 186.346 67.8678 186.171C70.1419 185.88 72.404 185.48 74.6473 185.005C79.0879 184.066 83.461 182.803 87.7199 181.235C92.0086 179.657 96.1838 177.77 100.202 175.593C104.195 173.43 108.04 170.994 111.687 168.287C115.346 165.57 118.8 162.564 122.004 159.322C122.279 159.043 122.55 158.761 122.822 158.479C123.39 158.653 123.958 158.823 124.53 158.979C125.61 159.273 126.699 159.526 127.793 159.753C127.7 159.881 127.615 160.017 127.524 160.152C127.304 160.477 127.081 160.8 126.857 161.123C126.445 161.714 126.028 162.3 125.604 162.882C124.743 164.063 123.855 165.225 122.944 166.369C121.151 168.62 119.254 170.787 117.317 172.913C116.369 173.955 115.385 174.963 114.418 175.988ZM125.487 204.547C122.233 200.95 120.093 196.343 118.556 191.785C116.925 186.951 116.082 181.699 117.062 176.638C117.191 175.97 117.355 175.304 117.539 174.643C121.061 171.418 124.205 167.774 126.848 163.798C127.105 163.411 127.351 163.016 127.598 162.623C127.024 164.441 126.493 166.272 126.053 168.134C125.344 171.128 124.825 174.161 124.473 177.218C123.772 183.314 123.798 189.493 124.549 195.584C124.759 197.285 125.021 198.98 125.341 200.663C125.505 201.527 125.684 202.388 125.879 203.245C126.059 204.04 126.224 204.849 126.531 205.606C126.17 205.267 125.82 204.915 125.487 204.547ZM131.078 208.754C129.48 207.984 128.014 206.977 126.712 205.781C126.783 205.771 126.849 205.715 126.839 205.627C126.762 204.863 126.556 204.119 126.39 203.371C126.223 202.62 126.068 201.867 125.924 201.111C125.645 199.643 125.406 198.168 125.217 196.686C124.828 193.662 124.618 190.612 124.593 187.563C124.542 181.495 125.19 175.433 126.539 169.516C127.276 166.282 128.2 163.049 129.413 159.956C129.761 160.057 130.11 160.154 130.459 160.252C130.446 160.302 130.461 160.357 130.494 160.396C129.899 161.837 129.475 163.343 129.084 164.852C128.658 166.494 128.289 168.153 127.998 169.825C127.423 173.127 127.096 176.472 127.018 179.823C126.858 186.556 127.681 193.311 129.49 199.801C129.998 201.625 130.576 203.428 131.236 205.204C131.563 206.088 131.911 206.964 132.277 207.833C132.523 208.417 132.767 209.006 133.048 209.575C132.379 209.334 131.72 209.064 131.078 208.754ZM137.949 210.786C136.577 210.581 135.221 210.279 133.9 209.862C133.637 209.158 133.304 208.481 133.007 207.79C132.677 207.02 132.361 206.244 132.061 205.461C131.46 203.897 130.92 202.31 130.44 200.705C129.489 197.522 128.788 194.262 128.323 190.972C127.389 184.36 127.428 177.616 128.459 171.019C128.743 169.198 129.094 167.388 129.522 165.595C129.94 163.843 130.476 162.124 130.912 160.378C131.564 160.555 132.218 160.727 132.872 160.89C133.443 161.032 134.017 161.164 134.591 161.297C134.579 164.609 134.891 167.931 135.303 171.215C135.727 174.6 136.327 177.965 137.083 181.292C138.601 187.975 140.76 194.514 143.528 200.785C144.296 202.524 145.11 204.242 145.971 205.936C146.401 206.783 146.843 207.624 147.297 208.459C147.761 209.313 148.203 210.196 148.778 210.981C145.168 211.282 141.52 211.32 137.949 210.786ZM167.521 207.284C162.679 208.848 157.685 209.942 152.637 210.577C151.528 210.716 150.409 210.838 149.288 210.939C149.33 210.866 149.344 210.778 149.303 210.684C148.954 209.895 148.495 209.16 148.08 208.404C147.675 207.666 147.278 206.923 146.89 206.175C146.105 204.66 145.358 203.125 144.648 201.574C143.237 198.49 141.976 195.339 140.869 192.134C138.648 185.71 137.05 179.072 136.102 172.342C135.59 168.71 135.334 165.068 135.075 161.412C137.6 161.986 140.148 162.469 142.709 162.851C142.706 162.905 142.734 162.962 142.8 162.963C143.027 162.971 143.254 162.964 143.481 162.963C146.733 163.423 150.009 163.743 153.291 163.895C155.006 163.975 156.914 163.972 158.603 163.432C159.041 164.747 159.572 166.034 160.067 167.328C160.59 168.695 161.111 170.063 161.632 171.43C162.666 174.143 163.694 176.857 164.718 179.574C166.764 185.008 168.789 190.449 170.771 195.907C171.854 198.889 172.966 201.865 173.981 204.872C171.862 205.765 169.709 206.577 167.521 207.284ZM174.503 204.646C172.426 199.324 170.516 193.934 168.513 188.584C166.478 183.147 164.426 177.717 162.352 172.294C161.769 170.771 161.184 169.248 160.597 167.727C160.032 166.264 159.504 164.777 158.869 163.342C159.607 163.077 160.299 162.703 160.906 162.175C161.513 163.373 162.193 164.538 162.847 165.71C163.572 167.011 164.298 168.311 165 169.624C166.393 172.231 167.724 174.872 168.991 177.543C171.534 182.905 173.821 188.389 175.829 193.974C176.866 196.858 177.831 199.768 178.711 202.703C177.329 203.396 175.922 204.035 174.503 204.646ZM179.301 202.404C177.597 196.993 175.695 191.649 173.534 186.402C171.273 180.915 168.748 175.537 165.97 170.293C165.19 168.819 164.39 167.356 163.57 165.905C162.812 164.563 162.034 163.214 161.15 161.95C162.109 161.011 162.635 159.833 162.9 158.571C163.606 159.86 164.41 161.101 165.156 162.367C165.934 163.686 166.696 165.015 167.442 166.353C168.923 169.007 170.356 171.694 171.691 174.424C174.361 179.885 176.767 185.484 178.939 191.161C180.152 194.333 181.278 197.537 182.325 200.767C182.048 200.925 181.773 201.087 181.494 201.242C180.771 201.641 180.038 202.026 179.301 202.404ZM187.938 197.221C186.285 198.379 184.578 199.461 182.833 200.475C180.963 194.713 178.824 189.034 176.39 183.486C173.939 177.901 171.191 172.427 168.24 167.089C167.413 165.593 166.566 164.109 165.7 162.635C164.841 161.176 164.004 159.677 163.019 158.298C163.004 158.275 162.982 158.269 162.961 158.263C163.151 157.179 163.163 156.045 163.099 154.954C163.857 155.897 164.657 156.81 165.431 157.74C166.488 159.009 167.534 160.286 168.551 161.588C170.571 164.174 172.511 166.825 174.344 169.548C178.016 175.003 181.281 180.733 184.094 186.676C185.676 190.017 187.11 193.427 188.398 196.892C188.246 197.003 188.092 197.113 187.938 197.221ZM188.974 196.469C186.675 190.315 183.918 184.333 180.723 178.593C177.509 172.819 173.865 167.258 169.784 162.058C168.648 160.611 167.487 159.183 166.284 157.79C165.254 156.596 164.2 155.402 163.051 154.319C163.042 154.221 163.031 154.124 163.021 154.028C163.304 154.229 163.601 154.412 163.921 154.547C164.429 154.762 164.956 154.923 165.493 155.047C166.585 155.3 167.704 155.397 168.821 155.452C169.03 155.462 169.24 155.466 169.449 155.473C169.394 155.53 169.372 155.619 169.433 155.687C171.374 157.882 173.342 160.053 175.185 162.333C177.016 164.598 178.748 166.942 180.373 169.359C183.646 174.224 186.482 179.376 188.84 184.745C189.499 186.247 190.125 187.764 190.713 189.296C191.238 190.663 191.695 192.054 192.199 193.428C191.29 194.595 190.161 195.579 188.974 196.469ZM190.354 178.442C192.683 182.583 195.724 187.963 192.814 192.568C192.763 192.65 192.704 192.725 192.65 192.805C192.306 191.733 191.905 190.674 191.509 189.623C190.988 188.242 190.438 186.87 189.852 185.515C188.681 182.804 187.385 180.146 185.98 177.549C183.178 172.368 179.931 167.43 176.267 162.816C174.227 160.247 172.079 157.736 169.692 155.482C170.201 155.495 170.71 155.505 171.22 155.506C171.244 155.611 171.297 155.713 171.379 155.788C173.217 157.452 175.108 159.043 176.874 160.788C178.634 162.529 180.311 164.355 181.902 166.251C185.086 170.042 187.928 174.125 190.354 178.442ZM202.766 166.845C201.538 169.007 199.443 170.397 197.103 171.122C195.622 171.581 194.063 171.754 192.518 171.791C190.803 171.831 189.097 171.646 187.384 171.648C187.365 171.648 187.351 171.655 187.333 171.658C186.622 170.635 185.889 169.628 185.138 168.641C182.061 164.595 178.597 160.844 174.816 157.447C174.59 157.244 174.36 157.047 174.131 156.847C174.727 157.236 175.356 157.583 175.977 157.912C176.902 158.403 177.847 158.857 178.806 159.276C180.762 160.13 182.79 160.826 184.852 161.374C188.921 162.453 193.128 162.949 197.337 162.83C198.527 162.796 199.716 162.713 200.899 162.578C201.491 162.51 202.081 162.431 202.669 162.338C203.189 162.255 203.72 162.186 204.222 162.024C204.018 163.707 203.605 165.367 202.766 166.845ZM204.386 159.926C204.367 160.417 204.334 160.913 204.289 161.409C204.283 161.409 204.279 161.406 204.274 161.406C203.76 161.422 203.258 161.549 202.751 161.632C202.245 161.716 201.736 161.791 201.228 161.857C200.189 161.991 199.147 162.085 198.1 162.141C196.017 162.252 193.927 162.204 191.85 162.007C187.705 161.614 183.62 160.622 179.76 159.058C178.695 158.626 177.645 158.157 176.617 157.642C175.848 157.257 175.099 156.828 174.336 156.431C175.81 156.701 177.304 156.878 178.794 157.015C180.901 157.21 183.018 157.291 185.134 157.273C189.395 157.237 193.66 156.807 197.832 155.938C200.015 155.484 202.158 154.889 204.276 154.197C204.389 156.106 204.457 158.021 204.386 159.926ZM243.614 148.093C244.868 151.099 246.021 154.146 247.029 157.244C247.423 158.455 247.784 159.763 247.607 161.046C247.466 162.07 246.922 162.947 246.101 163.565C244.482 164.783 242.277 164.979 240.323 165.062C235.209 165.279 230.033 164.45 225.229 162.692C220.649 161.016 216.42 158.491 212.775 155.252C209.395 152.247 206.557 148.649 204.324 144.718C204.241 143.956 204.164 143.186 204 142.438C204.131 142.268 204.249 142.087 204.375 141.913C204.49 141.975 204.607 142.032 204.723 142.093C204.709 142.108 204.702 142.13 204.719 142.152C204.85 142.317 204.984 142.473 205.069 142.667C205.139 142.827 205.192 142.938 205.302 143.076C205.551 143.385 205.809 143.687 206.072 143.985C206.567 144.547 207.09 145.083 207.622 145.607C208.679 146.648 209.818 147.605 210.998 148.501C213.386 150.312 215.975 151.862 218.691 153.128C224.098 155.65 230.051 157.06 236.019 157.168C239.392 157.228 242.755 156.883 246.033 156.082C246.586 155.946 246.464 155.061 245.902 155.197C240.177 156.576 234.187 156.647 228.416 155.501C222.643 154.354 217.097 151.993 212.292 148.592C210.964 147.653 209.695 146.632 208.483 145.547C207.865 144.992 207.261 144.426 206.665 143.847C206.501 143.688 206.342 143.524 206.181 143.362C208.272 144.491 210.506 145.362 212.752 146.12C215.123 146.921 217.545 147.569 219.997 148.067C224.941 149.068 230.016 149.457 235.055 149.19C237.911 149.039 240.754 148.679 243.558 148.117C243.579 148.112 243.594 148.1 243.614 148.093ZM243.336 147.428C238.465 148.395 233.476 148.744 228.516 148.484C223.513 148.221 218.543 147.337 213.758 145.853C211.062 145.016 208.471 143.926 205.858 142.868C205.797 142.843 205.753 142.863 205.719 142.895C205.619 142.787 205.518 142.673 205.401 142.595C205.206 142.466 205.048 142.34 204.89 142.18C209.846 144.733 215.473 145.984 221.023 146.2C226.738 146.423 232.471 145.507 237.807 143.441C238.873 143.028 239.918 142.563 240.947 142.064C241.775 143.837 242.573 145.625 243.336 147.428ZM238.795 142.021C233.768 144.195 228.309 145.327 222.832 145.364C220.016 145.383 217.196 145.118 214.431 144.588C211.629 144.052 208.923 143.189 206.257 142.183C205.714 141.977 205.172 141.767 204.634 141.546C204.971 141.054 205.295 140.551 205.58 140.022C205.627 139.937 205.668 139.849 205.713 139.763C205.748 139.732 205.786 139.706 205.821 139.675C205.906 139.598 205.927 139.487 205.904 139.39C205.919 139.359 205.936 139.329 205.951 139.297C207.25 139.99 208.657 140.504 210.049 140.967C211.535 141.461 213.047 141.878 214.575 142.216C217.631 142.893 220.755 143.256 223.884 143.309C230.151 143.418 236.454 142.314 242.295 140.032C242.864 139.809 243.427 139.571 243.988 139.326C242.321 140.342 240.587 141.246 238.795 142.021ZM258.412 124.459C257.857 125.667 257.088 126.781 256.32 127.862C254.851 129.931 253.19 131.869 251.363 133.632C250.307 134.652 249.193 135.608 248.037 136.513C247.793 136.654 247.555 136.807 247.308 136.945C245.973 137.686 244.609 138.368 243.208 138.975C240.341 140.219 237.35 141.166 234.293 141.808C228.21 143.088 221.857 143.142 215.754 141.969C214.051 141.642 212.368 141.217 210.716 140.695C209.146 140.198 207.631 139.563 206.086 138.999C206.847 137.345 207.357 135.579 207.654 133.784C207.805 132.874 207.892 131.956 207.947 131.037C209.312 131.544 210.774 131.866 212.181 132.181C213.923 132.573 215.685 132.874 217.458 133.096C220.948 133.533 224.475 133.655 227.987 133.476C235.048 133.114 242.054 131.519 248.565 128.758C252.195 127.22 255.632 125.299 258.894 123.09C258.783 123.56 258.612 124.021 258.412 124.459Z" fill="#D2C5B6"/>
</svg>
