<svg width="80" height="80" viewBox="0 0 80 80" fill="none" xmlns="http://www.w3.org/2000/svg">
<g id="Confetti">
<path id="Vector" d="M34.8404 16.4469C34.2532 15.8612 33.528 15.4329 32.7316 15.2015C31.9353 14.97 31.0935 14.9429 30.2839 15.1226C29.4743 15.3022 28.723 15.6829 28.0993 16.2295C27.4756 16.7761 26.9997 17.471 26.7154 18.25L10.3122 63.3688C10.0428 64.1128 9.95574 64.9106 10.0584 65.6952C10.1611 66.4799 10.4505 67.2284 10.9024 67.878C11.3543 68.5277 11.9554 69.0594 12.6553 69.4286C13.3552 69.7979 14.1334 69.9938 14.9247 70C15.5074 69.996 16.0848 69.8903 16.631 69.6875L61.7466 53.2812C62.5259 52.9973 63.2211 52.5216 63.768 51.8981C64.3149 51.2745 64.696 50.5233 64.8759 49.7137C65.0559 48.904 65.0291 48.0621 64.7978 47.2656C64.5666 46.4691 64.1384 45.7436 63.5529 45.1562L34.8404 16.4469ZM32.2372 58.7L21.2997 47.7625L25.4122 36.4469L43.5529 54.5875L32.2372 58.7ZM15.0497 64.95L19.4247 52.9469L27.0654 60.5875L15.0497 64.95ZM48.7497 52.7L27.2997 31.25L31.3622 20.0406L59.9341 48.6125L48.7497 52.7ZM49.9997 22.5C50.0467 20.8099 50.4559 19.1496 51.1997 17.6312C52.856 14.3219 55.981 12.5 59.9997 12.5C62.0935 12.5 63.4372 11.7844 64.2654 10.2469C64.7014 9.38671 64.9516 8.44443 64.9997 7.48125C65.0022 6.81821 65.268 6.18331 65.7386 5.71623C66.2092 5.24915 66.8461 4.98814 67.5091 4.99063C68.1722 4.99311 68.8071 5.25889 69.2741 5.72949C69.7412 6.20009 70.0022 6.83696 69.9997 7.5C69.9997 11.5188 67.3372 17.5 59.9997 17.5C57.906 17.5 56.5622 18.2156 55.7341 19.7531C55.2981 20.6133 55.0479 21.5556 54.9997 22.5187C54.9985 22.8471 54.9326 23.1719 54.8059 23.4747C54.6791 23.7776 54.4939 24.0525 54.2609 24.2838C54.0279 24.515 53.7516 24.6982 53.4478 24.8227C53.144 24.9472 52.8187 25.0106 52.4904 25.0094C52.1621 25.0081 51.8372 24.9423 51.5344 24.8155C51.2315 24.6887 50.9566 24.5035 50.7253 24.2705C50.4941 24.0375 50.311 23.7612 50.1865 23.4574C50.062 23.1536 49.9985 22.8283 49.9997 22.5ZM42.4997 12.5V5C42.4997 4.33696 42.7631 3.70107 43.232 3.23223C43.7008 2.76339 44.3367 2.5 44.9997 2.5C45.6628 2.5 46.2987 2.76339 46.7675 3.23223C47.2364 3.70107 47.4997 4.33696 47.4997 5V12.5C47.4997 13.163 47.2364 13.7989 46.7675 14.2678C46.2987 14.7366 45.6628 15 44.9997 15C44.3367 15 43.7008 14.7366 43.232 14.2678C42.7631 13.7989 42.4997 13.163 42.4997 12.5ZM74.2685 38.2312C74.5006 38.4635 74.6846 38.7392 74.8101 39.0426C74.9356 39.346 75.0002 39.6712 75 39.9995C74.9999 40.3279 74.9351 40.653 74.8093 40.9563C74.6835 41.2596 74.4992 41.5351 74.2669 41.7672C74.0347 41.9993 73.7589 42.1833 73.4555 42.3088C73.1521 42.4343 72.827 42.4989 72.4986 42.4987C72.1703 42.4986 71.8452 42.4338 71.5419 42.308C71.2386 42.1822 70.9631 41.9979 70.731 41.7656L65.731 36.7656C65.2619 36.2965 64.9983 35.6603 64.9983 34.9969C64.9983 34.3335 65.2619 33.6972 65.731 33.2281C66.2001 32.759 66.8363 32.4955 67.4997 32.4955C68.1632 32.4955 68.7994 32.759 69.2685 33.2281L74.2685 38.2312ZM75.7904 24.8719L68.2904 27.3719C67.6613 27.5816 66.9747 27.5328 66.3816 27.2362C65.7885 26.9397 65.3376 26.4197 65.1279 25.7906C64.9182 25.1616 64.967 24.475 65.2635 23.8819C65.5601 23.2888 66.0801 22.8378 66.7091 22.6281L74.2091 20.1281C74.8382 19.9184 75.5248 19.9672 76.1179 20.2638C76.7109 20.5603 77.1619 21.0803 77.3716 21.7094C77.5813 22.3384 77.5325 23.025 77.236 23.6181C76.9394 24.2112 76.4194 24.6622 75.7904 24.8719Z" fill="#674941"/>
</g>
</svg>
