<svg width="112" height="112" viewBox="0 0 112 112" fill="none" xmlns="http://www.w3.org/2000/svg">
<g id="Done">
<path id="Vector" d="M75.9763 43.0237C76.3017 43.3488 76.5598 43.7348 76.736 44.1597C76.9121 44.5846 77.0028 45.04 77.0028 45.5C77.0028 45.96 76.9121 46.4154 76.736 46.8403C76.5598 47.2652 76.3017 47.6512 75.9763 47.9762L51.4763 72.4762C51.1512 72.8017 50.7652 73.0598 50.3403 73.236C49.9154 73.4121 49.46 73.5027 49 73.5027C48.5401 73.5027 48.0846 73.4121 47.6597 73.236C47.2348 73.0598 46.8488 72.8017 46.5238 72.4762L36.0238 61.9762C35.367 61.3195 34.9981 60.4288 34.9981 59.5C34.9981 58.5712 35.367 57.6805 36.0238 57.0237C36.6805 56.367 37.5712 55.9981 38.5 55.9981C39.4288 55.9981 40.3195 56.367 40.9763 57.0237L49 65.0519L71.0238 43.0237C71.3488 42.6983 71.7348 42.4402 72.1597 42.264C72.5846 42.0879 73.0401 41.9972 73.5 41.9972C73.96 41.9972 74.4154 42.0879 74.8403 42.264C75.2652 42.4402 75.6512 42.6983 75.9763 43.0237ZM101.5 56C101.5 64.999 98.8315 73.796 93.8319 81.2784C88.8323 88.7609 81.7262 94.5927 73.4121 98.0365C65.0981 101.48 55.9495 102.381 47.1234 100.626C38.2973 98.8701 30.19 94.5366 23.8267 88.1734C17.4634 81.8101 13.1299 73.7027 11.3743 64.8766C9.61866 56.0505 10.5197 46.9019 13.9635 38.5879C17.4073 30.2739 23.2391 23.1677 30.7216 18.1681C38.204 13.1685 47.001 10.5 56 10.5C68.0635 10.5127 79.6292 15.3106 88.1593 23.8407C96.6895 32.3709 101.487 43.9366 101.5 56ZM94.5 56C94.5 48.3854 92.242 40.9418 88.0116 34.6105C83.7812 28.2793 77.7683 23.3446 70.7333 20.4306C63.6984 17.5167 55.9573 16.7542 48.489 18.2398C41.0208 19.7253 34.1607 23.3921 28.7764 28.7764C23.3921 34.1607 19.7253 41.0208 18.2398 48.489C16.7543 55.9573 17.5167 63.6984 20.4307 70.7333C23.3446 77.7683 28.2793 83.7811 34.6106 88.0116C40.9419 92.242 48.3854 94.5 56 94.5C66.2073 94.4884 75.9932 90.4285 83.2108 83.2108C90.4285 75.9932 94.4884 66.2073 94.5 56Z" fill="#674941"/>
</g>
</svg>
